<mxfile host="app.diagrams.net" modified="2024-04-18T09:58:36.775Z" agent="Mozilla/5.0 (Macintosh; Intel Mac OS X 10_15_7) AppleWebKit/537.36 (KHTML, like Gecko) Chrome/123.0.0.0 Safari/537.36" etag="q98br2mvoKFOpehNjFIF" version="24.2.5" type="device" pages="4">
  <diagram id="kgpKYQtTHZ0yAKxKKP6v" name="Page-1">
    <mxGraphModel dx="1647" dy="985" grid="0" gridSize="10" guides="1" tooltips="1" connect="1" arrows="1" fold="1" page="1" pageScale="1" pageWidth="827" pageHeight="1169" math="0" shadow="0">
      <root>
        <mxCell id="0" />
        <mxCell id="1" parent="0" />
        <mxCell id="m1EzDJfJrsovWAoZpiBF-1" value="" style="group;strokeColor=#0A6ED1;" parent="1" vertex="1" connectable="0">
          <mxGeometry x="596" y="226" width="420" height="1003" as="geometry" />
        </mxCell>
        <mxCell id="m1EzDJfJrsovWAoZpiBF-2" value="" style="group;strokeColor=#074D92;" parent="m1EzDJfJrsovWAoZpiBF-1" vertex="1" connectable="0">
          <mxGeometry width="420" height="1003" as="geometry" />
        </mxCell>
        <mxCell id="m1EzDJfJrsovWAoZpiBF-3" value="" style="rounded=1;whiteSpace=wrap;html=1;strokeColor=#0070F2;fillColor=#EBF8FF;arcSize=32;absoluteArcSize=1;imageWidth=64;imageHeight=64;strokeWidth=1.5;" parent="m1EzDJfJrsovWAoZpiBF-2" vertex="1">
          <mxGeometry width="420" height="1003" as="geometry" />
        </mxCell>
        <mxCell id="m1EzDJfJrsovWAoZpiBF-4" value="" style="shape=image;verticalLabelPosition=bottom;labelBackgroundColor=default;verticalAlign=top;aspect=fixed;imageAspect=0;image=data:image/svg+xml,PHN2ZyB4bWxuczp4bGluaz0iaHR0cDovL3d3dy53My5vcmcvMTk5OS94bGluayIgeG1sbnM9Imh0dHA6Ly93d3cudzMub3JnLzIwMDAvc3ZnIiB2aWV3Qm94PSIwIDAgMTQ0Ljc0NyAzOS44MzIiIGlkPSJhIj48ZGVmcz48bGluZWFyR3JhZGllbnQgZ3JhZGllbnRVbml0cz0idXNlclNwYWNlT25Vc2UiIHkyPSIzOS44MzIiIHgyPSI0MC4yNTgiIHkxPSIwIiB4MT0iNDAuMjU4IiBpZD0iYiI+PHN0b3Agc3RvcC1jb2xvcj0iIzAwYjhmMSIgb2Zmc2V0PSIwIi8+PHN0b3Agc3RvcC1jb2xvcj0iIzAwYjVlZiIgb2Zmc2V0PSIuMDE2Ii8+PHN0b3Agc3RvcC1jb2xvcj0iIzBkOTBkOCIgb2Zmc2V0PSIuMzA4Ii8+PHN0b3Agc3RvcC1jb2xvcj0iIzE2NzVjOCIgb2Zmc2V0PSIuNTc4Ii8+PHN0b3Agc3RvcC1jb2xvcj0iIzFjNjRiZSIgb2Zmc2V0PSIuODE3Ii8+PHN0b3Agc3RvcC1jb2xvcj0iIzFlNWZiYiIgb2Zmc2V0PSIxIi8+PC9saW5lYXJHcmFkaWVudD48L2RlZnM+PHBvbHlsaW5lIGZpbGwtcnVsZT0iZXZlbm9kZCIgZmlsbD0idXJsKCNiKSIgcG9pbnRzPSIwIDM5LjgzMiA0MC42OTIgMzkuODMyIDgwLjUxNyAwIDAgMCAwIDM5LjgzMiIvPjxwYXRoIGZpbGwtcnVsZT0iZXZlbm9kZCIgZmlsbD0iI2ZmZiIgZD0ibTQ3Ljc4Miw3LjQ4OWwtNy45MjUtLjAwNXYxOC44NDVsLTYuOTI0LTE4Ljg0NWgtNi44NjVsLTUuOTEyLDE1Ljc1OWMtLjYzLTMuOTczLTQuNzQtNS4zNDUtNy45NzQtNi4zNzQtMi4xMzUtLjY4Ni00LjQwMS0xLjY5NC00LjM4LTIuODA5LjAxNy0uOTE1LDEuMjE1LTEuNzY1LDMuNTg5LTEuNjM3LDEuNTk1LjA4NCwzLjAwMS4yMTMsNS44LDEuNTYzbDIuNzUzLTQuNzk1Yy0yLjU1NS0xLjMtNi4wODYtMi4xMjEtOC45NzgtMi4xMjRoLS4wMTdjLTMuMzc0LDAtNi4xODUsMS4wOTMtNy45MjgsMi44OTQtMS4yMTQsMS4yNTgtMS44NjksMi44NTYtMS44OTYsNC42MjMtLjA0NCwyLjQzMi44NDgsNC4xNTcsMi43MjEsNS41MzMsMS41ODMsMS4xNiwzLjYwNiwxLjkxMiw1LjM5LDIuNDY1LDIuMjAxLjY4MSwzLjk5NiwxLjI3NCwzLjk3NSwyLjUzOS0uMDE2LjQ1OS0uMTkxLjg4OC0uNTIxLDEuMjM2LS41NDguNTY2LTEuMzkxLjc3OS0yLjU1NS43OTktMi4yNDQuMDQ4LTMuOTEtLjMwMy02LjU2Mi0xLjg3bC0yLjQ0OCw0Ljg2MWMyLjY0NCwxLjUwNiw1Ljc3NiwyLjM4OCw4Ljk3MiwyLjM4OGwuNDExLS4wMDZjMi43ODItLjA1LDUuMDI2LS44NDIsNi44Mi0yLjI4Ni4xMDMtLjA4MS4xOTYtLjE2Ni4yOTEtLjI1bC0uNzk1LDIuMTIzaDcuMmwxLjIwOC0zLjY3NGMxLjI2NS40MzMsMi43MDQuNjcxLDQuMjMyLjY3MSwxLjQ4NywwLDIuODg5LS4yMjksNC4xMzEtLjYzNWwxLjE2NCwzLjYzN2gxMS43NDJ2LTcuNjA3aDIuNTYxYzYuMTg4LDAsOS44NTEtMy4xNTQsOS44NTEtOC40MzYsMC01Ljg4NS0zLjU1Ny04LjU4NS0xMS4xMzItOC41ODVabS0xOC4zMTcsMTYuMTI0Yy0uOTI1LDAtMS43OTItLjE2LTIuNTM5LS40NDNsMi41MTItNy45MjZoLjA0OGwyLjQ2OCw3Ljk0OGMtLjc0Mi4yNjMtMS41ODkuNDIxLTIuNDg4LjQyMVptMTguNzgzLTQuNTUzaC0xLjc0NnYtNi4zODZoMS43NDZjMi4zMjgsMCw0LjE4NS43NzMsNC4xODUsMy4xNTEsMCwyLjQ2MS0xLjg1NywzLjIzNi00LjE4NSwzLjIzNiIvPjxwYXRoIGZpbGw9IiMwMDJhODYiIGQ9Im04MC4yMTcsNy40MDFoMTAuMDYzYzUuNTk1LDAsOC42NzQsMS45MTcsOC42NzQsNi4xNTgsMCwyLjkwMy0xLjUxMyw1LjAxNC00LjMxMSw1LjcsMy4yOS40NTgsNS4yNzgsMi41ODYsNS4yNzgsNS44OTQsMCw1LjAxNC00LjA2NCw3LjAzNy05LjE4NCw3LjAzN2gtMTAuNTIxVjcuNDAxWm0xMy45NjksNi44MjZjMC0yLjE2NC0xLjQ5Ni0yLjk3My00LjI0LTIuOTczaC01LjA0OXY2LjI5OGg0Ljg5MWMzLjIwMiwwLDQuMzk4LTEuMTYxLDQuMzk4LTMuMzI1Wm0xLjAyMSwxMC41MjFjMC0yLjM1Ny0xLjc3Ny0zLjQ2Ni00LjgzOS0zLjQ2NmgtNS40NzF2Ny4wNTVoNS41MDZjMi44MTUsMCw0LjgwNC0uNzc0LDQuODA0LTMuNTg5WiIvPjxwYXRoIGZpbGw9IiMwMDJhODYiIGQ9Im0xMDkuMDUxLDExLjVoLTcuNTgzdi00LjA5OWgxOS44NDZ2NC4wOTloLTcuNTY1djIwLjY5aC00LjY5N1YxMS41WiIvPjxwYXRoIGZpbGw9IiMwMDJhODYiIGQ9Im0xMjUuMTQ4LDcuNDAxaDEwLjUwNGM2LjE5MiwwLDkuMDk2LDMuMTg1LDkuMDk2LDcuODk5LDAsNC4zOTgtMi44MzMsOC4xNDYtOC44NSw4LjE0NmgtNi4wN3Y4Ljc0NGgtNC42OFY3LjQwMVptMTQuOTAyLDcuOTUyYzAtMi41NTEtMS42ODktMy45MjMtNC45NDQtMy45MjNoLTUuMjc4djguMDRoNS40MTljMy4yNzIsMCw0LjgwNC0xLjU4Myw0LjgwNC00LjExN1oiLz48L3N2Zz4=;strokeWidth=1.5;" parent="m1EzDJfJrsovWAoZpiBF-2" vertex="1">
          <mxGeometry x="19.998" y="13.000835616438366" width="86.91900000000001" height="23.9715" as="geometry" />
        </mxCell>
        <mxCell id="m1EzDJfJrsovWAoZpiBF-14" value="" style="rounded=1;whiteSpace=wrap;html=1;strokeColor=#074D92;fillColor=#EBF8FF;arcSize=24;absoluteArcSize=1;imageWidth=64;imageHeight=64;strokeWidth=1.5;" parent="m1EzDJfJrsovWAoZpiBF-2" vertex="1">
          <mxGeometry x="124.5" y="123.65753424657535" width="161.70000000000002" height="137.39726027397262" as="geometry" />
        </mxCell>
        <mxCell id="m1EzDJfJrsovWAoZpiBF-16" value="" style="group" parent="m1EzDJfJrsovWAoZpiBF-2" vertex="1" connectable="0">
          <mxGeometry x="140.10000000000002" y="130.52739726027397" width="115.5" height="130.52739726027397" as="geometry" />
        </mxCell>
        <mxCell id="m1EzDJfJrsovWAoZpiBF-17" value="" style="shape=image;verticalLabelPosition=bottom;verticalAlign=top;imageAspect=0;aspect=fixed;image=data:image/svg+xml,PHN2ZyB4bWxucz0iaHR0cDovL3d3dy53My5vcmcvMjAwMC9zdmciIGZpbGw9Im5vbmUiIHZpZXdCb3g9IjAgMCA0OSA0OSIgaGVpZ2h0PSI0OSIgd2lkdGg9IjQ5Ij4mI3hhOzxjaXJjbGUgc3Ryb2tlLXdpZHRoPSIwLjg1NzE0MyIgc3Ryb2tlPSIjRDVEQUREIiBmaWxsPSJ1cmwoI3BhaW50MF9saW5lYXJfMjYyMl8zMDkyKSIgcj0iMjMuNTcxNCIgY3k9IjI0LjAzNDkiIGN4PSIyNC41Ii8+JiN4YTs8ZyBjbGlwLXBhdGg9InVybCgjY2xpcDBfMjYyMl8zMDkyKSI+JiN4YTs8cGF0aCBmaWxsPSJ1cmwoI3BhaW50MV9yYWRpYWxfMjYyMl8zMDkyKSIgZD0iTTI0LjMwODggMTEuNTk2MUMyMC4wMjY0IDExLjU5NjEgMTYuOTgzNyAxNS4wODIxIDE2LjQ3NjggMTguNzIxNEMxNS4wOTkyIDE4LjgwMzQgMTMuODgyOSAxOS4zMjExIDEyLjkzODEgMjAuMTkwN0MxMS42NjAxIDIxLjM2NzEgMTEgMjMuMDc0NiAxMSAyNC44NzUzQzExIDI2LjU0ODcgMTEuNTA3NiAyOC4xMzA0IDEyLjY0NzMgMjkuMjk5OUMxMy43OTQ2IDMwLjQ3NzMgMTUuNDIzNCAzMS4wNzM3IDE3LjM0MTMgMzEuMDczN0gxOS40Mzc1VjI4LjAwMTNDMTkuNDM3NSAyNi4yMTA5IDIwLjg4MDQgMjQuNzM0NCAyMi42OTEyIDI0LjczNDRDMjQuMTA0OCAyNC43MzQ0IDI1LjM0NjIgMjUuNjQ4NCAyNS43ODI0IDI2Ljk4MThMMjUuODUxMSAyNy4xOTJMMjUuOTE0NiAyNi45OTM3QzI2LjM0MzEgMjUuNjU1IDI3LjU4NDggMjQuNzM0NCAyOS4wMDEzIDI0LjczNDRDMzAuODA1NyAyNC43MzQ0IDMyLjI0MzQgMjYuMjA1NyAzMi4yNDM0IDI3Ljk4OTZWMjkuMTY5QzMyLjgwMzMgMjguNjYxMSAzMy41NDI1IDI4LjQyNjQgMzQuMzExOCAyOC41NzYyQzM0Ljg0NDggMjguNjggMzUuMjY5OCAyOC45NDQ2IDM1LjU4MjIgMjkuMjA4QzM2Ljk5NDkgMjcuOTMwNiAzNy45MTU2IDI2LjA1MDEgMzcuOTE1NiAyMy43MTgxQzM3LjkxNTYgMTkuNzM0MSAzNS4wNjgzIDE2LjY3MjUgMzEuNjQwNCAxNi4zNDg3QzMwLjI2NjMgMTMuNTA3MiAyNy43MTU2IDExLjU5NjEgMjQuMzA4OCAxMS41OTYxWiIgY2xpcC1ydWxlPSJldmVub2RkIiBmaWxsLXJ1bGU9ImV2ZW5vZGQiLz4mI3hhOzxwYXRoIGZpbGw9InVybCgjcGFpbnQyX3JhZGlhbF8yNjIyXzMwOTIpIiBkPSJNMzMuNzYyNyAzNi42ODdDMzMuMzY3MSAzNy4wODkzIDMyLjk3NjMgMzcuNzEzIDMzLjM3MTkgMzguMTE1M0MzMy43Njc0IDM4LjUxNzYgMzQuMjE2MyAzOC41NDU4IDM0LjYxMTggMzguMTQzNEwzNy42NDg4IDM1LjA1NDVDMzguMDQ0NCAzNC42NTIyIDM4LjA0NDQgMzQuMDAwNCAzNy42NDg4IDMzLjU5ODFMMzQuNjExOCAzMC41MDkyQzM0LjIxNjMgMzAuMTA2OSAzMy43NTE1IDI5LjkzOTQgMzMuMzU1OSAzMC4zNDE3QzMyLjg2MTIgMzAuNzI4IDMzLjU0OTkgMzEuNTYzMyAzMy45NDU1IDMxLjk2NTZMMzUuMDc5MyAzMy4zMTkyTDI4LjgzNTggMzMuMzI1NUwyOC44MzU0IDM0LjEyNjdDMjguODM1IDM0LjY3OTIgMjkuMjc5MyAzNS4xMjY5IDI5LjgyNzIgMzUuMTI2M0wzNS4xOTEgMzUuMTIwN0wzMy43NjI3IDM2LjY4N1oiLz4mI3hhOzxwYXRoIGZpbGw9InVybCgjcGFpbnQzX3JhZGlhbF8yNjIyXzMwOTIpIiBkPSJNMjEuMTUzMSAyOC4wMDE0QzIxLjE1MzEgMjcuMTQ0NyAyMS44NDE3IDI2LjQ1MDIgMjIuNjkxMSAyNi40NTAyQzIzLjM1NDkgMjYuNDUwMiAyMy45NDM3IDI2Ljg3OTYgMjQuMTUxNyAyNy41MTU0TDI1LjQxMzEgMzEuMzcxNEMyNS40ODMzIDMxLjU4MzcgMjUuNTY1OSAzMS44ODE0IDI1LjY2MDggMzIuMjY0NEMyNS43NTU4IDMyLjY0NzUgMjUuODE3NyAzMi45MDE1IDI1Ljg0NjYgMzMuMDI2NEMyNS44Nzk2IDMyLjkwMTUgMjUuOTQ1NyAzMi42NTE2IDI2LjA0NDcgMzIuMjc2OUMyNi4xNDc5IDMxLjg5ODEgMjYuMjM0NiAzMS42MDY2IDI2LjMwNDggMzEuNDAyNkwyNy41NDg1IDI3LjUxNjhDMjcuNzUyIDI2Ljg4MSAyOC4zMzg4IDI2LjQ1MDIgMjkuMDAxMiAyNi40NTAyQzI5Ljg0NDMgMjYuNDUwMiAzMC41Mjc3IDI3LjEzOTUgMzAuNTI3NyAyNy45ODk4VjMzLjMyMzhMMjguODM1OCAzMy4zMjU1TDI4LjgzNzMgMjkuOTE2M0MyOC44MzczIDI5LjQ2NjYgMjguODQ3NiAyOS4wNDE5IDI4Ljg2ODMgMjguNjQyMkMyOC44OTMgMjguMjQyNiAyOC44ODI5IDI4LjA4MzYgMjguOTA1NCAyOC4wMTE1QzI4LjkwMTMgMjguMDE1NiAyOC44NiAyOC4xNjE0IDI4Ljc4MTYgMjguNDQ4NkMyOC43NDAzIDI4LjU4NiAyOC42NTM2IDI4Ljg4MTYgMjguNTIxNSAyOS4zMzU1QzI4LjM5MzUgMjkuNzg5MyAyOC4yOTI0IDMwLjEyNDQgMjguMjE4MSAzMC4zNDA5TDI2LjgyIDM0LjUzOTJDMjYuNjc4NyAzNC45NjM3IDI2LjI4NDMgMzUuMjQ5NiAyNS44NDA0IDM1LjI0OTZDMjUuMzk2NSAzNS4yNDk2IDI1LjAwMjEgMzQuOTYzNyAyNC44NjA4IDM0LjUzOTJMMjMuNDYyNyAzMC4zNDA5QzIzLjM3NiAzMC4wODcgMjMuMjUyMiAyOS42ODk0IDIzLjA5MTIgMjkuMTQ4MUMyMi45MzQzIDI4LjYwMjcgMjIuODI0OSAyOC4yMjM4IDIyLjc2MyAyOC4wMTE1TDIyLjc3NTQgMjguMTkyNkMyMi43Nzk1IDI4LjI1OTIgMjIuNzkxOSAyOC40OTQ0IDIyLjgxMjUgMjguODk4M0MyMi44MzMyIDI5LjI5OCAyMi44NDM1IDI5LjYzNzMgMjIuODQzNSAyOS45MTYzVjM0LjM5NzJDMjIuODQzNSAzNC44NjggMjIuNDY1MSAzNS4yNDk2IDIxLjk5ODMgMzUuMjQ5NkMyMS41MzE1IDM1LjI0OTYgMjEuMTUzMSAzNC44NjggMjEuMTUzMSAzNC4zOTcyVjI4LjAwMTRaIi8+JiN4YTs8L2c+JiN4YTs8ZGVmcz4mI3hhOzxsaW5lYXJHcmFkaWVudCBncmFkaWVudFVuaXRzPSJ1c2VyU3BhY2VPblVzZSIgeTI9IjQ0LjI3OTIiIHgyPSI0MS41NjQ1IiB5MT0iNi44NDc3NSIgeDE9IjQuODUyODciIGlkPSJwYWludDBfbGluZWFyXzI2MjJfMzA5MiI+JiN4YTs8c3RvcCBzdG9wLWNvbG9yPSJ3aGl0ZSIvPiYjeGE7PHN0b3Agc3RvcC1jb2xvcj0iI0VBRUNFRSIgb2Zmc2V0PSIxIi8+JiN4YTs8L2xpbmVhckdyYWRpZW50PiYjeGE7PHJhZGlhbEdyYWRpZW50IGdyYWRpZW50VHJhbnNmb3JtPSJ0cmFuc2xhdGUoMTUuMTczOSAxNC40NTYpIHJvdGF0ZSgzNi4xOTQxKSBzY2FsZSgyMy4wOTA5IDQxLjU4NjIpIiBncmFkaWVudFVuaXRzPSJ1c2VyU3BhY2VPblVzZSIgcj0iMSIgY3k9IjAiIGN4PSIwIiBpZD0icGFpbnQxX3JhZGlhbF8yNjIyXzMwOTIiPiYjeGE7PHN0b3Agc3RvcC1jb2xvcj0iIzAxOTVGRiIvPiYjeGE7PHN0b3Agc3RvcC1jb2xvcj0iIzExNDdFOSIgb2Zmc2V0PSIxIi8+JiN4YTs8L3JhZGlhbEdyYWRpZW50PiYjeGE7PHJhZGlhbEdyYWRpZW50IGdyYWRpZW50VHJhbnNmb3JtPSJ0cmFuc2xhdGUoMjMuODI1NSAyOC4yNDg0KSByb3RhdGUoMzUuNTA3Nikgc2NhbGUoMTQuNDQ2MyAxNi41Nzg5KSIgZ3JhZGllbnRVbml0cz0idXNlclNwYWNlT25Vc2UiIHI9IjEiIGN5PSIwIiBjeD0iMCIgaWQ9InBhaW50Ml9yYWRpYWxfMjYyMl8zMDkyIj4mI3hhOzxzdG9wIHN0b3AtY29sb3I9IiMwMEJCRkYiLz4mI3hhOzxzdG9wIHN0b3AtY29sb3I9IiMwMDhCRkYiIG9mZnNldD0iMSIvPiYjeGE7PC9yYWRpYWxHcmFkaWVudD4mI3hhOzxyYWRpYWxHcmFkaWVudCBncmFkaWVudFRyYW5zZm9ybT0idHJhbnNsYXRlKDIzLjgyNTUgMjguMjQ4NCkgcm90YXRlKDM1LjUwNzYpIHNjYWxlKDE0LjQ0NjMgMTYuNTc4OSkiIGdyYWRpZW50VW5pdHM9InVzZXJTcGFjZU9uVXNlIiByPSIxIiBjeT0iMCIgY3g9IjAiIGlkPSJwYWludDNfcmFkaWFsXzI2MjJfMzA5MiI+JiN4YTs8c3RvcCBzdG9wLWNvbG9yPSIjMDBCQkZGIi8+JiN4YTs8c3RvcCBzdG9wLWNvbG9yPSIjMDA4QkZGIiBvZmZzZXQ9IjEiLz4mI3hhOzwvcmFkaWFsR3JhZGllbnQ+JiN4YTs8Y2xpcFBhdGggaWQ9ImNsaXAwXzI2MjJfMzA5MiI+JiN4YTs8cmVjdCB0cmFuc2Zvcm09InRyYW5zbGF0ZSgxMSAxMS41MzQ5KSIgZmlsbD0id2hpdGUiIGhlaWdodD0iMjciIHdpZHRoPSIyNyIvPiYjeGE7PC9jbGlwUGF0aD4mI3hhOzwvZGVmcz4mI3hhOzwvc3ZnPg==;points=[[0,0,0,0,0],[0,0.25,0,0,0],[0,0.5,0,0,0],[0,0.75,0,0,0],[0.25,0,0,0,0],[0.5,0,0,0,0],[0.75,0,0,0,0],[1,0,0,0,0],[1,0.25,0,0,0],[1,0.5,0,0,0],[1,0.75,0,0,0]];" parent="m1EzDJfJrsovWAoZpiBF-16" vertex="1">
          <mxGeometry x="32.025" width="51.45" height="51.45" as="geometry" />
        </mxCell>
        <mxCell id="m1EzDJfJrsovWAoZpiBF-18" value="&lt;font color=&quot;#1d2d3e&quot; size=&quot;1&quot; face=&quot;arial&quot; style=&quot;&quot;&gt;&lt;b style=&quot;font-size: 14px;&quot;&gt;Event Mesh&lt;br&gt;&lt;/b&gt;&lt;/font&gt;" style="text;html=1;align=center;verticalAlign=top;resizable=1;points=[[0,0.5,0,0,0],[0.21,1,0,0,0],[0.5,1,0,0,0],[0.85,1,0,0,0],[1,0.5,0,0,0]];autosize=0;strokeColor=none;fillColor=none;fontSize=12;fontColor=default;fontFamily=Helvetica;fixedWidth=1;imageWidth=24;whiteSpace=wrap;labelBackgroundColor=none;" parent="m1EzDJfJrsovWAoZpiBF-16" vertex="1">
          <mxGeometry y="67.32465753424658" width="115.5" height="63.2027397260274" as="geometry" />
        </mxCell>
        <mxCell id="m1EzDJfJrsovWAoZpiBF-28" value="" style="rounded=1;whiteSpace=wrap;html=1;strokeColor=#074D92;fillColor=#EBF8FF;arcSize=24;absoluteArcSize=1;imageWidth=64;imageHeight=64;strokeWidth=1.5;" parent="m1EzDJfJrsovWAoZpiBF-2" vertex="1">
          <mxGeometry x="52.5" y="288.5342465753425" width="325.5" height="659.5068493150685" as="geometry" />
        </mxCell>
        <mxCell id="m1EzDJfJrsovWAoZpiBF-29" value="" style="group" parent="m1EzDJfJrsovWAoZpiBF-2" vertex="1" connectable="0">
          <mxGeometry x="50" y="294" width="300" height="60" as="geometry" />
        </mxCell>
        <mxCell id="m1EzDJfJrsovWAoZpiBF-30" value="&lt;font color=&quot;#1d2d3e&quot; size=&quot;1&quot; face=&quot;arial&quot; style=&quot;&quot;&gt;&lt;b style=&quot;font-size: 14px;&quot;&gt;SAP Build Process Automation&lt;br&gt;&lt;/b&gt;&lt;/font&gt;" style="text;html=1;align=center;verticalAlign=top;resizable=1;points=[[0,0.5,0,0,0],[0.21,1,0,0,0],[0.5,1,0,0,0],[0.85,1,0,0,0],[1,0.5,0,0,0]];autosize=0;strokeColor=none;fillColor=none;fontSize=12;fontColor=default;fontFamily=Helvetica;fixedWidth=1;imageWidth=24;whiteSpace=wrap;labelBackgroundColor=none;" parent="m1EzDJfJrsovWAoZpiBF-29" vertex="1">
          <mxGeometry y="30.94736842105263" width="299.99999999999994" height="29.052631578947366" as="geometry" />
        </mxCell>
        <mxCell id="m1EzDJfJrsovWAoZpiBF-31" value="" style="shape=image;verticalLabelPosition=bottom;labelBackgroundColor=default;verticalAlign=top;aspect=fixed;imageAspect=0;image=data:image/svg+xml,PHN2ZyB4bWxucz0iaHR0cDovL3d3dy53My5vcmcvMjAwMC9zdmciIGZpbGw9Im5vbmUiIHZpZXdCb3g9IjAgMCAxNiAxNiIgaGVpZ2h0PSIxNiIgd2lkdGg9IjE2Ij4mI3hhOzxnIGNsaXAtcGF0aD0idXJsKCNjbGlwMF8zMTA2XzI3MDY1KSI+JiN4YTs8Y2lyY2xlIHN0cm9rZS13aWR0aD0iMC4yNzM4OTMiIHN0cm9rZT0iI0Q1REFERCIgZmlsbD0idXJsKCNwYWludDBfbGluZWFyXzMxMDZfMjcwNjUpIiByPSI3LjUzMjA1IiBjeT0iOC4wMDAwNSIgY3g9IjcuOTk5MzIiLz4mI3hhOzxnIGNsaXAtcGF0aD0idXJsKCNjbGlwMV8zMTA2XzI3MDY1KSI+JiN4YTs8bWFzayBoZWlnaHQ9IjEyIiB3aWR0aD0iMTMiIHk9IjIiIHg9IjIiIG1hc2tVbml0cz0idXNlclNwYWNlT25Vc2UiIHN0eWxlPSJtYXNrLXR5cGU6YWxwaGEiIGlkPSJtYXNrMF8zMTA2XzI3MDY1Ij4mI3hhOzxwYXRoIGZpbGw9ImJsYWNrIiBkPSJNOS41MzU2MyA5LjM1MTM1QzEwLjUxMDMgOS4wNDIyMSAxMS4yMTU0IDguMTQxNyAxMS4yMTU0IDcuMDc4OThDMTEuMjE1NCA1Ljc2MDc3IDEwLjEzMDQgNC42OTIxNCA4Ljc5MjAzIDQuNjkyMTRMNy44NzM4OCA0LjY5MjE0QzYuNTU1NjggNC42OTIxNCA1LjQ4NzA2IDUuNzYwNzYgNS40ODcwNiA3LjA3ODk3VjkuOTQzMTdDNS40ODcwNiAxMC43MzQxIDYuMTI4MjMgMTEuMzc1MyA2LjkxOTE1IDExLjM3NTNDNy43MTAwOCAxMS4zNzUzIDguMzUxMjUgMTAuNzM0MSA4LjM1MTI1IDkuOTQzMTdMOC4zNTEyNSA3LjIzNjYyQzguMzUxMjUgNy4wNTIxNiA4LjYxNTY4IDcuMDIxNzkgOC42NTc0OSA3LjIwMTQ1TDkuMDg2NTEgOS4wNDQ5MUM5LjE0ODA0IDkuMzAwNzEgOS4zMDMwOSA5LjQyNTExIDkuNTM1NjMgOS4zNTEzNVoiLz4mI3hhOzwvbWFzaz4mI3hhOzxnIG1hc2s9InVybCgjbWFzazBfMzEwNl8yNzA2NSkiPiYjeGE7PGcgZmlsdGVyPSJ1cmwoI2ZpbHRlcjBfZF8zMTA2XzI3MDY1KSI+JiN4YTs8cGF0aCBmaWxsPSJ1cmwoI3BhaW50MV9yYWRpYWxfMzEwNl8yNzA2NSkiIGQ9Ik0xMy44NTA3IDQuMjM3MUMxMi45NDE0IDUuMDg3MjMgMTEuNTk5NiA1LjQxMTcxIDExLjQzODYgOS4yNTgyNEMxMS4yNzc2IDEzLjEwNDggNi42NDA5MyAxMS45MTQyIDUuNjU3MTEgMTEuNDc3OUMzLjkxNzAxIDEwLjcwNjIgMS4zOTI5NCA1LjYxNTYxIDQuMzAxMTggNC4wMjE1MkM3LjIwOTQyIDIuNDI3NDIgOS4wMDAyOSAxLjA5OTM5IDEwLjc0MDQgMS44NzExQzEyLjQ4MDUgMi42NDI4IDE0Ljc2IDMuMzg2OTcgMTMuODUwNyA0LjIzNzFaIi8+JiN4YTs8L2c+JiN4YTs8ZyBmaWx0ZXI9InVybCgjZmlsdGVyMV9kXzMxMDZfMjcwNjUpIj4mI3hhOzxwYXRoIGZpbGw9InVybCgjcGFpbnQyX3JhZGlhbF8zMTA2XzI3MDY1KSIgZD0iTTEzLjIwNjcgNi41NDU1OEMxMi4xNDgzIDYuNzg5NCA5LjkzOTM1IDUuNzY1MTcgOC4xMzQ2NSA4LjU5ODIyQzYuMzI5OTYgMTEuNDMxMyAzLjE0NTgzIDkuMTQzOTYgMi41OTQxMiA4LjM4NDEyQzEuNjE4MzEgNy4wNDAxNyAxLjc1NjggMi43NTE5MSA0LjY0OTU5IDIuODIxMjFDNy41NDIzOSAyLjg5MDUxIDEwLjc3ODEgMy4zMTU2MiAxMS43NTM5IDQuNjU5NTZDMTIuNzI5NyA2LjAwMzUgMTQuMjY1IDYuMzAxNzUgMTMuMjA2NyA2LjU0NTU4WiIvPiYjeGE7PC9nPiYjeGE7PGcgZmlsdGVyPSJ1cmwoI2ZpbHRlcjJfZF8zMTA2XzI3MDY1KSI+JiN4YTs8cGF0aCBmaWxsPSJ1cmwoI3BhaW50M19yYWRpYWxfMzEwNl8yNzA2NSkiIGQ9Ik0zLjU3OTA1IDkuMzAyODlDMi4yOTU4OSA4LjkzODcgMS41NTA5MiA3LjYwMzI3IDEuOTE1MTEgNi4zMjAxMUMyLjI3OTI5IDUuMDM2OTYgNC44OTE3NSAyLjQ2NjA5IDYuMTc0OTEgMi44MzAyN0M3LjQ1ODA2IDMuMTk0NDYgNy45Njk5NCA1LjYwNDEgNy42MDU3NSA2Ljg4NzI1QzcuMjQxNTcgOC4xNzA0MSA1LjIzOTU4IDkuNzc0MTggMy41NzkwNSA5LjMwMjg5WiIvPiYjeGE7PC9nPiYjeGE7PC9nPiYjeGE7PC9nPiYjeGE7PC9nPiYjeGE7PGRlZnM+JiN4YTs8ZmlsdGVyIGNvbG9yLWludGVycG9sYXRpb24tZmlsdGVycz0ic1JHQiIgZmlsdGVyVW5pdHM9InVzZXJTcGFjZU9uVXNlIiBoZWlnaHQ9IjExLjY5ODciIHdpZHRoPSIxMi40Mjk0IiB5PSIxLjAxNzUiIHg9IjIuNTI0OTgiIGlkPSJmaWx0ZXIwX2RfMzEwNl8yNzA2NSI+JiN4YTs8ZmVGbG9vZCByZXN1bHQ9IkJhY2tncm91bmRJbWFnZUZpeCIgZmxvb2Qtb3BhY2l0eT0iMCIvPiYjeGE7PGZlQ29sb3JNYXRyaXggcmVzdWx0PSJoYXJkQWxwaGEiIHZhbHVlcz0iMCAwIDAgMCAwIDAgMCAwIDAgMCAwIDAgMCAwIDAgMCAwIDAgMTI3IDAiIHR5cGU9Im1hdHJpeCIgaW49IlNvdXJjZUFscGhhIi8+JiN4YTs8ZmVPZmZzZXQgZHk9IjAuMDQ0ODQwNSIgZHg9IjAuMjI0MjAyIi8+JiN4YTs8ZmVHYXVzc2lhbkJsdXIgc3RkRGV2aWF0aW9uPSIwLjMzNjMwNCIvPiYjeGE7PGZlQ29tcG9zaXRlIG9wZXJhdG9yPSJvdXQiIGluMj0iaGFyZEFscGhhIi8+JiN4YTs8ZmVDb2xvck1hdHJpeCB2YWx1ZXM9IjAgMCAwIDAgMCAwIDAgMCAwIDAgMCAwIDAgMCAwIDAgMCAwIDAuNCAwIiB0eXBlPSJtYXRyaXgiLz4mI3hhOzxmZUJsZW5kIHJlc3VsdD0iZWZmZWN0MV9kcm9wU2hhZG93XzMxMDZfMjcwNjUiIGluMj0iQmFja2dyb3VuZEltYWdlRml4IiBtb2RlPSJub3JtYWwiLz4mI3hhOzxmZUJsZW5kIHJlc3VsdD0ic2hhcGUiIGluMj0iZWZmZWN0MV9kcm9wU2hhZG93XzMxMDZfMjcwNjUiIGluPSJTb3VyY2VHcmFwaGljIiBtb2RlPSJub3JtYWwiLz4mI3hhOzwvZmlsdGVyPiYjeGE7PGZpbHRlciBjb2xvci1pbnRlcnBvbGF0aW9uLWZpbHRlcnM9InNSR0IiIGZpbHRlclVuaXRzPSJ1c2VyU3BhY2VPblVzZSIgaGVpZ2h0PSI4LjUwMjIiIHdpZHRoPSIxMi44NjAxIiB5PSIyLjE5MjU1IiB4PSIxLjYwMDkxIiBpZD0iZmlsdGVyMV9kXzMxMDZfMjcwNjUiPiYjeGE7PGZlRmxvb2QgcmVzdWx0PSJCYWNrZ3JvdW5kSW1hZ2VGaXgiIGZsb29kLW9wYWNpdHk9IjAiLz4mI3hhOzxmZUNvbG9yTWF0cml4IHJlc3VsdD0iaGFyZEFscGhhIiB2YWx1ZXM9IjAgMCAwIDAgMCAwIDAgMCAwIDAgMCAwIDAgMCAwIDAgMCAwIDEyNyAwIiB0eXBlPSJtYXRyaXgiIGluPSJTb3VyY2VBbHBoYSIvPiYjeGE7PGZlT2Zmc2V0IGR5PSIwLjA0NDg0MDUiIGR4PSIwLjIyNDIwMiIvPiYjeGE7PGZlR2F1c3NpYW5CbHVyIHN0ZERldmlhdGlvbj0iMC4zMzYzMDQiLz4mI3hhOzxmZUNvbXBvc2l0ZSBvcGVyYXRvcj0ib3V0IiBpbjI9ImhhcmRBbHBoYSIvPiYjeGE7PGZlQ29sb3JNYXRyaXggdmFsdWVzPSIwIDAgMCAwIDAgMCAwIDAgMCAwIDAgMCAwIDAgMCAwIDAgMCAwLjQgMCIgdHlwZT0ibWF0cml4Ii8+JiN4YTs8ZmVCbGVuZCByZXN1bHQ9ImVmZmVjdDFfZHJvcFNoYWRvd18zMTA2XzI3MDY1IiBpbjI9IkJhY2tncm91bmRJbWFnZUZpeCIgbW9kZT0ibm9ybWFsIi8+JiN4YTs8ZmVCbGVuZCByZXN1bHQ9InNoYXBlIiBpbjI9ImVmZmVjdDFfZHJvcFNoYWRvd18zMTA2XzI3MDY1IiBpbj0iU291cmNlR3JhcGhpYyIgbW9kZT0ibm9ybWFsIi8+JiN4YTs8L2ZpbHRlcj4mI3hhOzxmaWx0ZXIgY29sb3ItaW50ZXJwb2xhdGlvbi1maWx0ZXJzPSJzUkdCIiBmaWx0ZXJVbml0cz0idXNlclNwYWNlT25Vc2UiIGhlaWdodD0iNy45MzY3NyIgd2lkdGg9IjcuMjQyNjgiIHk9IjIuMTY3NjQiIHg9IjEuMzc0MzUiIGlkPSJmaWx0ZXIyX2RfMzEwNl8yNzA2NSI+JiN4YTs8ZmVGbG9vZCByZXN1bHQ9IkJhY2tncm91bmRJbWFnZUZpeCIgZmxvb2Qtb3BhY2l0eT0iMCIvPiYjeGE7PGZlQ29sb3JNYXRyaXggcmVzdWx0PSJoYXJkQWxwaGEiIHZhbHVlcz0iMCAwIDAgMCAwIDAgMCAwIDAgMCAwIDAgMCAwIDAgMCAwIDAgMTI3IDAiIHR5cGU9Im1hdHJpeCIgaW49IlNvdXJjZUFscGhhIi8+JiN4YTs8ZmVPZmZzZXQgZHk9IjAuMDQ0ODQwNSIgZHg9IjAuMjI0MjAyIi8+JiN4YTs8ZmVHYXVzc2lhbkJsdXIgc3RkRGV2aWF0aW9uPSIwLjMzNjMwNCIvPiYjeGE7PGZlQ29tcG9zaXRlIG9wZXJhdG9yPSJvdXQiIGluMj0iaGFyZEFscGhhIi8+JiN4YTs8ZmVDb2xvck1hdHJpeCB2YWx1ZXM9IjAgMCAwIDAgMCAwIDAgMCAwIDAgMCAwIDAgMCAwIDAgMCAwIDAuNCAwIiB0eXBlPSJtYXRyaXgiLz4mI3hhOzxmZUJsZW5kIHJlc3VsdD0iZWZmZWN0MV9kcm9wU2hhZG93XzMxMDZfMjcwNjUiIGluMj0iQmFja2dyb3VuZEltYWdlRml4IiBtb2RlPSJub3JtYWwiLz4mI3hhOzxmZUJsZW5kIHJlc3VsdD0ic2hhcGUiIGluMj0iZWZmZWN0MV9kcm9wU2hhZG93XzMxMDZfMjcwNjUiIGluPSJTb3VyY2VHcmFwaGljIiBtb2RlPSJub3JtYWwiLz4mI3hhOzwvZmlsdGVyPiYjeGE7PGxpbmVhckdyYWRpZW50IGdyYWRpZW50VW5pdHM9InVzZXJTcGFjZU9uVXNlIiB5Mj0iMTQuNDY4OSIgeDI9IjEzLjQ1MjEiIHkxPSIyLjUwODA0IiB4MT0iMS43MjEyNCIgaWQ9InBhaW50MF9saW5lYXJfMzEwNl8yNzA2NSI+JiN4YTs8c3RvcCBzdG9wLWNvbG9yPSJ3aGl0ZSIvPiYjeGE7PHN0b3Agc3RvcC1jb2xvcj0iI0VBRUNFRSIgb2Zmc2V0PSIxIi8+JiN4YTs8L2xpbmVhckdyYWRpZW50PiYjeGE7PHJhZGlhbEdyYWRpZW50IGdyYWRpZW50VHJhbnNmb3JtPSJ0cmFuc2xhdGUoOC4zMzg3IDUuMjU4NzgpIHJvdGF0ZSg3OS4wOTY3KSBzY2FsZSgxMC45MDQ0IDEwLjA5OCkiIGdyYWRpZW50VW5pdHM9InVzZXJTcGFjZU9uVXNlIiByPSIxIiBjeT0iMCIgY3g9IjAiIGlkPSJwYWludDFfcmFkaWFsXzMxMDZfMjcwNjUiPiYjeGE7PHN0b3Agc3RvcC1jb2xvcj0iIzEzNDhGRiIvPiYjeGE7PHN0b3Agc3RvcC1jb2xvcj0iIzA2MjM4RCIgb2Zmc2V0PSIxIi8+JiN4YTs8L3JhZGlhbEdyYWRpZW50PiYjeGE7PHJhZGlhbEdyYWRpZW50IGdyYWRpZW50VHJhbnNmb3JtPSJ0cmFuc2xhdGUoOS4yNTAwNSAxLjYzODAyKSByb3RhdGUoMTA4LjU0OSkgc2NhbGUoMTQuMzUxOCAyNS40NykiIGdyYWRpZW50VW5pdHM9InVzZXJTcGFjZU9uVXNlIiByPSIxIiBjeT0iMCIgY3g9IjAiIGlkPSJwYWludDJfcmFkaWFsXzMxMDZfMjcwNjUiPiYjeGE7PHN0b3Agc3RvcC1jb2xvcj0iIzAxOTVGRiIvPiYjeGE7PHN0b3Agc3RvcC1jb2xvcj0iIzExNDdFOSIgb2Zmc2V0PSIxIi8+JiN4YTs8L3JhZGlhbEdyYWRpZW50PiYjeGE7PHJhZGlhbEdyYWRpZW50IGdyYWRpZW50VHJhbnNmb3JtPSJ0cmFuc2xhdGUoNy4xNDEzNiAzLjc4NzA2KSByb3RhdGUoMTQ0Ljc0Nikgc2NhbGUoOC43MDE2NSAxMS44MzcxKSIgZ3JhZGllbnRVbml0cz0idXNlclNwYWNlT25Vc2UiIHI9IjEiIGN5PSIwIiBjeD0iMCIgaWQ9InBhaW50M19yYWRpYWxfMzEwNl8yNzA2NSI+JiN4YTs8c3RvcCBzdG9wLWNvbG9yPSIjMDBCQkZGIi8+JiN4YTs8c3RvcCBzdG9wLWNvbG9yPSIjMDA4QkZGIiBvZmZzZXQ9IjEiLz4mI3hhOzwvcmFkaWFsR3JhZGllbnQ+JiN4YTs8Y2xpcFBhdGggaWQ9ImNsaXAwXzMxMDZfMjcwNjUiPiYjeGE7PHJlY3QgdHJhbnNmb3JtPSJ0cmFuc2xhdGUoLTAuMDAwNzMyNDIyKSIgZmlsbD0id2hpdGUiIGhlaWdodD0iMTYiIHdpZHRoPSIxNiIvPiYjeGE7PC9jbGlwUGF0aD4mI3hhOzxjbGlwUGF0aCBpZD0iY2xpcDFfMzEwNl8yNzA2NSI+JiN4YTs8cmVjdCB0cmFuc2Zvcm09InRyYW5zbGF0ZSgzLjQ5OTI3IDMuMTY2NzUpIiBmaWxsPSJ3aGl0ZSIgaGVpZ2h0PSI5LjY2NjY3IiB3aWR0aD0iOS42NjY2NiIvPiYjeGE7PC9jbGlwUGF0aD4mI3hhOzwvZGVmcz4mI3hhOzwvc3ZnPg==;points=[[0,0,0,0,0],[0,0.25,0,0,0],[0,0.5,0,0,0],[0,0.75,0,0,0],[0.25,0,0,0,0],[0.5,0,0,0,0],[0.75,0,0,0,0],[1,0,0,0,0],[1,0.25,0,0,0],[1,0.5,0,0,0],[1,0.75,0,0,0]];" parent="m1EzDJfJrsovWAoZpiBF-29" vertex="1">
          <mxGeometry x="83.18181818181817" width="30.94736842105263" height="30.94736842105263" as="geometry" />
        </mxCell>
        <mxCell id="m1EzDJfJrsovWAoZpiBF-43" style="edgeStyle=orthogonalEdgeStyle;rounded=0;orthogonalLoop=1;jettySize=auto;html=1;" parent="m1EzDJfJrsovWAoZpiBF-2" source="m1EzDJfJrsovWAoZpiBF-36" target="m1EzDJfJrsovWAoZpiBF-42" edge="1">
          <mxGeometry relative="1" as="geometry" />
        </mxCell>
        <mxCell id="m1EzDJfJrsovWAoZpiBF-36" value="Start" style="strokeWidth=2;html=1;shape=mxgraph.flowchart.start_1;whiteSpace=wrap;" parent="m1EzDJfJrsovWAoZpiBF-2" vertex="1">
          <mxGeometry x="156.20000000000005" y="363" width="100" height="60" as="geometry" />
        </mxCell>
        <mxCell id="m1EzDJfJrsovWAoZpiBF-46" style="edgeStyle=orthogonalEdgeStyle;rounded=0;orthogonalLoop=1;jettySize=auto;html=1;entryX=0.5;entryY=0;entryDx=0;entryDy=0;" parent="m1EzDJfJrsovWAoZpiBF-2" source="m1EzDJfJrsovWAoZpiBF-42" target="m1EzDJfJrsovWAoZpiBF-45" edge="1">
          <mxGeometry relative="1" as="geometry" />
        </mxCell>
        <mxCell id="m1EzDJfJrsovWAoZpiBF-42" value="Determine Approve Level and approver" style="rounded=1;whiteSpace=wrap;html=1;absoluteArcSize=1;arcSize=14;strokeWidth=2;" parent="m1EzDJfJrsovWAoZpiBF-2" vertex="1">
          <mxGeometry x="159.25" y="473" width="94.75" height="67" as="geometry" />
        </mxCell>
        <mxCell id="m1EzDJfJrsovWAoZpiBF-45" value="Approver&lt;div&gt;&amp;nbsp;Approve&lt;/div&gt;" style="verticalLabelPosition=middle;verticalAlign=middle;html=1;shape=trapezoid;perimeter=trapezoidPerimeter;whiteSpace=wrap;size=0.23;arcSize=10;flipV=1;labelPosition=center;align=center;" parent="m1EzDJfJrsovWAoZpiBF-2" vertex="1">
          <mxGeometry x="157" y="588.29" width="100" height="60" as="geometry" />
        </mxCell>
        <mxCell id="m1EzDJfJrsovWAoZpiBF-51" style="edgeStyle=orthogonalEdgeStyle;rounded=0;orthogonalLoop=1;jettySize=auto;html=1;exitX=1;exitY=0.5;exitDx=0;exitDy=0;exitPerimeter=0;entryX=1;entryY=0.5;entryDx=0;entryDy=0;" parent="m1EzDJfJrsovWAoZpiBF-2" source="m1EzDJfJrsovWAoZpiBF-48" target="m1EzDJfJrsovWAoZpiBF-42" edge="1">
          <mxGeometry relative="1" as="geometry" />
        </mxCell>
        <mxCell id="m1EzDJfJrsovWAoZpiBF-52" value="No" style="edgeLabel;html=1;align=center;verticalAlign=middle;resizable=0;points=[];" parent="m1EzDJfJrsovWAoZpiBF-51" vertex="1" connectable="0">
          <mxGeometry x="-0.0279" y="1" relative="1" as="geometry">
            <mxPoint as="offset" />
          </mxGeometry>
        </mxCell>
        <mxCell id="m1EzDJfJrsovWAoZpiBF-55" style="edgeStyle=orthogonalEdgeStyle;rounded=0;orthogonalLoop=1;jettySize=auto;html=1;entryX=0.5;entryY=0;entryDx=0;entryDy=0;" parent="m1EzDJfJrsovWAoZpiBF-2" source="m1EzDJfJrsovWAoZpiBF-48" target="m1EzDJfJrsovWAoZpiBF-54" edge="1">
          <mxGeometry relative="1" as="geometry" />
        </mxCell>
        <mxCell id="m1EzDJfJrsovWAoZpiBF-48" value="Finished ?" style="strokeWidth=2;html=1;shape=mxgraph.flowchart.decision;whiteSpace=wrap;" parent="m1EzDJfJrsovWAoZpiBF-2" vertex="1">
          <mxGeometry x="157" y="683" width="100" height="47" as="geometry" />
        </mxCell>
        <mxCell id="m1EzDJfJrsovWAoZpiBF-49" style="edgeStyle=orthogonalEdgeStyle;rounded=0;orthogonalLoop=1;jettySize=auto;html=1;entryX=0.5;entryY=0;entryDx=0;entryDy=0;entryPerimeter=0;" parent="m1EzDJfJrsovWAoZpiBF-2" source="m1EzDJfJrsovWAoZpiBF-45" target="m1EzDJfJrsovWAoZpiBF-48" edge="1">
          <mxGeometry relative="1" as="geometry" />
        </mxCell>
        <mxCell id="m1EzDJfJrsovWAoZpiBF-54" value="API&amp;nbsp; Call to release PR Block" style="rounded=1;whiteSpace=wrap;html=1;absoluteArcSize=1;arcSize=14;strokeWidth=2;" parent="m1EzDJfJrsovWAoZpiBF-2" vertex="1">
          <mxGeometry x="151" y="773" width="113" height="67" as="geometry" />
        </mxCell>
        <mxCell id="m1EzDJfJrsovWAoZpiBF-58" value="End" style="strokeWidth=2;html=1;shape=mxgraph.flowchart.terminator;whiteSpace=wrap;" parent="m1EzDJfJrsovWAoZpiBF-2" vertex="1">
          <mxGeometry x="157" y="883" width="100" height="60" as="geometry" />
        </mxCell>
        <mxCell id="m1EzDJfJrsovWAoZpiBF-59" style="edgeStyle=orthogonalEdgeStyle;rounded=0;orthogonalLoop=1;jettySize=auto;html=1;entryX=0.5;entryY=0;entryDx=0;entryDy=0;entryPerimeter=0;" parent="m1EzDJfJrsovWAoZpiBF-2" source="m1EzDJfJrsovWAoZpiBF-54" target="m1EzDJfJrsovWAoZpiBF-58" edge="1">
          <mxGeometry relative="1" as="geometry" />
        </mxCell>
        <mxCell id="m1EzDJfJrsovWAoZpiBF-61" style="edgeStyle=orthogonalEdgeStyle;rounded=0;orthogonalLoop=1;jettySize=auto;html=1;entryX=0.5;entryY=0;entryDx=0;entryDy=0;entryPerimeter=0;" parent="m1EzDJfJrsovWAoZpiBF-2" source="m1EzDJfJrsovWAoZpiBF-14" target="m1EzDJfJrsovWAoZpiBF-36" edge="1">
          <mxGeometry relative="1" as="geometry" />
        </mxCell>
        <mxCell id="m1EzDJfJrsovWAoZpiBF-5" value="" style="group;strokeColor=#0A6ED1;" parent="1" vertex="1" connectable="0">
          <mxGeometry x="6" y="227" width="410" height="992" as="geometry" />
        </mxCell>
        <mxCell id="m1EzDJfJrsovWAoZpiBF-6" value="" style="group;strokeColor=#0A6ED1;" parent="m1EzDJfJrsovWAoZpiBF-5" vertex="1" connectable="0">
          <mxGeometry width="410" height="991.9999999999999" as="geometry" />
        </mxCell>
        <mxCell id="m1EzDJfJrsovWAoZpiBF-7" value="" style="rounded=1;whiteSpace=wrap;html=1;strokeColor=#0070F2;fillColor=#EBF8FF;arcSize=32;absoluteArcSize=1;imageWidth=64;imageHeight=64;strokeWidth=1.5;" parent="m1EzDJfJrsovWAoZpiBF-6" vertex="1">
          <mxGeometry width="410" height="991.9999999999999" as="geometry" />
        </mxCell>
        <mxCell id="m1EzDJfJrsovWAoZpiBF-38" value="Purchase Requisition&lt;div&gt;as blocked&lt;/div&gt;" style="strokeWidth=2;html=1;shape=mxgraph.flowchart.document2;whiteSpace=wrap;size=0.25;strokeColor=#074D92;" parent="m1EzDJfJrsovWAoZpiBF-6" vertex="1">
          <mxGeometry x="94.52" y="162.83585095669687" width="145.48" height="106.89224572004028" as="geometry" />
        </mxCell>
        <mxCell id="m1EzDJfJrsovWAoZpiBF-41" value="Purchase Order" style="strokeWidth=2;html=1;shape=mxgraph.flowchart.document2;whiteSpace=wrap;size=0.25;strokeColor=#074D92;" parent="m1EzDJfJrsovWAoZpiBF-6" vertex="1">
          <mxGeometry x="83" y="452.5438066465257" width="170" height="106.89224572004028" as="geometry" />
        </mxCell>
        <mxCell id="m1EzDJfJrsovWAoZpiBF-53" style="edgeStyle=orthogonalEdgeStyle;rounded=0;orthogonalLoop=1;jettySize=auto;html=1;entryX=0.5;entryY=0;entryDx=0;entryDy=0;entryPerimeter=0;" parent="m1EzDJfJrsovWAoZpiBF-6" source="m1EzDJfJrsovWAoZpiBF-38" target="m1EzDJfJrsovWAoZpiBF-41" edge="1">
          <mxGeometry relative="1" as="geometry" />
        </mxCell>
        <mxCell id="m1EzDJfJrsovWAoZpiBF-62" value="" style="shape=image;verticalLabelPosition=bottom;labelBackgroundColor=default;verticalAlign=top;aspect=fixed;imageAspect=0;image=data:image/svg+xml,PHN2ZyB4bWxuczp4bGluaz0iaHR0cDovL3d3dy53My5vcmcvMTk5OS94bGluayIgeG1sbnM9Imh0dHA6Ly93d3cudzMub3JnLzIwMDAvc3ZnIiB2aWV3Qm94PSIwIDAgMzMzLjg3NCAzOS44MzIiIGlkPSJhIj48ZGVmcz48bGluZWFyR3JhZGllbnQgZ3JhZGllbnRVbml0cz0idXNlclNwYWNlT25Vc2UiIHkyPSIzOS44MzIiIHgyPSI0MC4yNTgiIHkxPSIwIiB4MT0iNDAuMjU4IiBpZD0iYiI+PHN0b3Agc3RvcC1jb2xvcj0iIzAwYjhmMSIgb2Zmc2V0PSIwIi8+PHN0b3Agc3RvcC1jb2xvcj0iIzAwYjVlZiIgb2Zmc2V0PSIuMDE2Ii8+PHN0b3Agc3RvcC1jb2xvcj0iIzBkOTBkOCIgb2Zmc2V0PSIuMzA4Ii8+PHN0b3Agc3RvcC1jb2xvcj0iIzE2NzVjOCIgb2Zmc2V0PSIuNTc4Ii8+PHN0b3Agc3RvcC1jb2xvcj0iIzFjNjRiZSIgb2Zmc2V0PSIuODE3Ii8+PHN0b3Agc3RvcC1jb2xvcj0iIzFlNWZiYiIgb2Zmc2V0PSIxIi8+PC9saW5lYXJHcmFkaWVudD48L2RlZnM+PHBvbHlsaW5lIGZpbGwtcnVsZT0iZXZlbm9kZCIgZmlsbD0idXJsKCNiKSIgcG9pbnRzPSIwIDM5LjgzMiA0MC42OTIgMzkuODMyIDgwLjUxNyAwIDAgMCAwIDM5LjgzMiIvPjxwYXRoIGZpbGwtcnVsZT0iZXZlbm9kZCIgZmlsbD0iI2ZmZiIgZD0ibTQ3Ljc4Miw3LjQ4OWwtNy45MjUtLjAwNXYxOC44NDVsLTYuOTI0LTE4Ljg0NWgtNi44NjVsLTUuOTEyLDE1Ljc1OWMtLjYzLTMuOTczLTQuNzQtNS4zNDUtNy45NzQtNi4zNzQtMi4xMzUtLjY4Ni00LjQwMS0xLjY5NC00LjM4LTIuODA5LjAxNy0uOTE1LDEuMjE1LTEuNzY1LDMuNTg5LTEuNjM3LDEuNTk1LjA4NCwzLjAwMS4yMTMsNS44LDEuNTYzbDIuNzUzLTQuNzk1Yy0yLjU1NS0xLjMtNi4wODYtMi4xMjEtOC45NzgtMi4xMjRoLS4wMTdjLTMuMzc0LDAtNi4xODUsMS4wOTMtNy45MjgsMi44OTQtMS4yMTQsMS4yNTgtMS44NjksMi44NTYtMS44OTYsNC42MjMtLjA0NCwyLjQzMi44NDgsNC4xNTcsMi43MjEsNS41MzMsMS41ODMsMS4xNiwzLjYwNiwxLjkxMiw1LjM5LDIuNDY1LDIuMjAxLjY4MSwzLjk5NiwxLjI3NCwzLjk3NSwyLjUzOS0uMDE2LjQ1OS0uMTkxLjg4OC0uNTIxLDEuMjM2LS41NDguNTY2LTEuMzkxLjc3OS0yLjU1NS43OTktMi4yNDQuMDQ4LTMuOTEtLjMwMy02LjU2Mi0xLjg3bC0yLjQ0OCw0Ljg2MWMyLjY0NCwxLjUwNiw1Ljc3NiwyLjM4OCw4Ljk3MiwyLjM4OGwuNDExLS4wMDZjMi43ODItLjA1LDUuMDI2LS44NDIsNi44Mi0yLjI4Ni4xMDMtLjA4MS4xOTYtLjE2Ni4yOTEtLjI1bC0uNzk1LDIuMTIzaDcuMmwxLjIwOC0zLjY3NGMxLjI2NS40MzMsMi43MDQuNjcxLDQuMjMyLjY3MSwxLjQ4NywwLDIuODg5LS4yMjksNC4xMzEtLjYzNWwxLjE2NCwzLjYzN2gxMS43NDJ2LTcuNjA3aDIuNTYxYzYuMTg4LDAsOS44NTEtMy4xNTQsOS44NTEtOC40MzYsMC01Ljg4NS0zLjU1Ny04LjU4NS0xMS4xMzItOC41ODVabS0xOC4zMTcsMTYuMTI0Yy0uOTI1LDAtMS43OTItLjE2LTIuNTM5LS40NDNsMi41MTItNy45MjZoLjA0OGwyLjQ2OCw3Ljk0OGMtLjc0Mi4yNjMtMS41ODkuNDIxLTIuNDg4LjQyMVptMTguNzgzLTQuNTUzaC0xLjc0NnYtNi4zODZoMS43NDZjMi4zMjgsMCw0LjE4NS43NzMsNC4xODUsMy4xNTEsMCwyLjQ2MS0xLjg1NywzLjIzNi00LjE4NSwzLjIzNiIvPjxwYXRoIGZpbGw9IiMwMDJhODYiIGQ9Im03OC42MDUsMjguMzlsMi45OTEtMy4wMDhjMS41MTMsMS45NywzLjYyNCwzLjI5LDcuMTA3LDMuMjksMi44NSwwLDUuMDE0LS45NSw1LjAxNC0zLjI3MiwwLTIuNDQ1LTIuNDk4LTMuMTQ5LTUuODc2LTMuOTc2LTMuODg4LS45MzMtOC4xMTEtMi4yMTctOC4xMTEtNy4zODksMC00Ljg3NCwzLjk5NC03LjAwMiw5LjEzMS03LjAwMiw0LjA0NiwwLDYuOTY3LDEuMzM3LDguODg1LDMuNTcybC0yLjkwMywyLjkwM2MtMS41My0xLjc0Mi0zLjQzMS0yLjY5Mi02LjE0LTIuNjkyLTMuMDYxLDAtNC4zODEsMS4yNjctNC4zODEsMi45NTYsMCwyLjIzNCwyLjI3LDIuODMzLDUuNDAxLDMuNjI1LDQuMTcuOTg1LDguNjA0LDIuMTY0LDguNjA0LDcuNjUzLDAsNC40NTEtMy4zMjUsNy40OTUtOS43MTEsNy40OTUtNC42OCwwLTcuOTg3LTEuNTY2LTEwLjAxMS00LjE1MloiLz48cGF0aCBmaWxsPSIjMDAyYTg2IiBkPSJtMTA5Ljk0LDYuMjc1aDMuODdsLTEwLjg1NCwyNy4wNDFoLTMuODcxbDEwLjg1NS0yNy4wNDFaIi8+PHBhdGggZmlsbD0iIzAwMmE4NiIgZD0ibTEyMy40NTYsMjcuMjk5aC0xMS4zNjV2LTMuNjc3bDEwLjgxOS0xNi4yMjFoNC43MTV2MTYuMjU2aDMuMzA4djMuNjQyaC0zLjMwOHY0Ljg5MWgtNC4xNjl2LTQuODkxWm0wLTMuNjQydi04LjA0YzAtLjk4NSwwLTIuMTgyLjA3LTMuMjItLjMzNS42MTYtLjg5NywxLjQ3OC0xLjI2NywyLjA3NmwtNS4wNjcsNy42Yy0uMjk5LjQ0LS43OTIsMS4xNzktMS4wOTEsMS41ODNoNy4zNTRaIi8+PHBhdGggZmlsbD0iIzAwMmE4NiIgZD0ibTEzNC4xMjQsNy40MDFoNC42OHY5LjgxN2gxMC45NzlWNy40MDFoNC42OTd2MjQuNzg5aC00LjY5N3YtMTAuNjYyaC0xMC45Nzl2MTAuNjYyaC00LjY4VjcuNDAxWiIvPjxwYXRoIGZpbGw9IiMwMDJhODYiIGQ9Im0xNjUuODUsNy40MDFoNS40NzJsOS4wOTYsMjQuNzg5aC00LjgwM2wtMi4wMjMtNi4wMzVoLTEwLjExNmwtMi4wMjMsNi4wMzVoLTQuNjhsOS4wNzgtMjQuNzg5Wm02LjQ3NSwxNC45NzJsLTIuNTMzLTcuNTY1Yy0uNDIzLTEuMjMxLTEuMDAzLTIuOTAzLTEuMjY4LTMuODE4LS4yNjQuOTE1LS44MDksMi41ODYtMS4yMzEsMy44MThsLTIuNTMzLDcuNTY1aDcuNTY1WiIvPjxwYXRoIGZpbGw9IiMwMDJhODYiIGQ9Im0xODIuNjkzLDcuNDAxaDUuNTA3bDExLjIwNywxOS41NDZjLS4wODgtMS4wMDMtLjE1OC0zLjI1NS0uMTU4LTUuNDU0VjcuNDAxaDQuMjR2MjQuNzg5aC01LjY0N2wtMTEuMDY2LTE5LjNjLjA4OCwxLjAwMy4xNTgsMy4yMzcuMTU4LDUuNDU0djEzLjg0NmgtNC4yNFY3LjQwMVoiLz48cGF0aCBmaWxsPSIjMDAyYTg2IiBkPSJtMjE0Ljg1OSw3LjQwMWg1LjQ3Mmw5LjA5NiwyNC43ODloLTQuODAzbC0yLjAyMy02LjAzNWgtMTAuMTE2bC0yLjAyMyw2LjAzNWgtNC42OGw5LjA3OC0yNC43ODlabTYuNDc1LDE0Ljk3MmwtMi41MzMtNy41NjVjLS40MjMtMS4yMzEtMS4wMDMtMi45MDMtMS4yNjgtMy44MTgtLjI2NC45MTUtLjgwOSwyLjU4Ni0xLjIzMSwzLjgxOGwtMi41MzMsNy41NjVoNy41NjVaIi8+PHBhdGggZmlsbD0iIzAwMmE4NiIgZD0ibTIzNy4yNSwxOS43ODdjMC04LjY3Myw1LjU2LTEyLjc1NSwxMi42MTQtMTIuNzU1LDQuMjkzLDAsNy40OTUsMS40OTYsOS43NDcsNC4wODJsLTMuMTQ5LDMuMTQ5Yy0xLjQyNS0xLjg0Ny0zLjQ0OC0zLjA3OS02LjU4LTMuMDc5LTQuODkxLDAtNy43OTQsMi45OTEtNy43OTQsOC42MDNzMi45MDMsOC42MjEsNy43OTQsOC42MjFjMy4xMzIsMCw1LjE1NS0xLjIzMSw2LjU4LTMuMDc5bDMuMTQ5LDMuMTQ5Yy0yLjIzNCwyLjU2OS01LjQ3Miw0LjA2NC05Ljc0Nyw0LjA2NC03LjA1NSwwLTEyLjYxNC00LjA2NC0xMi42MTQtMTIuNzU1WiIvPjxwYXRoIGZpbGw9IiMwMDJhODYiIGQ9Im0yNjIuMDg3LDI3LjQ1OFY1Ljk1OGg0LjQ2OXYyMC43MjVjMCwxLjQ5Ni4zNTIsMi4wMjMsMS42MzYsMi4wMjMuNTQ2LDAsMS4wMjEtLjA4OCwxLjUzMS0uMTk0djMuNjc3Yy0uNzA0LjE3Ni0xLjY1NC4zMTctMi42MjIuMzE3LTMuNjI0LDAtNS4wMTQtMS43MjQtNS4wMTQtNS4wNDlaIi8+PHBhdGggZmlsbD0iIzAwMmE4NiIgZD0ibTI3MS40NDQsMjIuNTY3YzAtNi4wNyw0LjA0Ny05Ljk5Myw5LjgtOS45OTNzOS43OTksMy45MjMsOS43OTksOS45OTMtNC4wNDYsOS45NzYtOS43OTksOS45NzYtOS44LTMuOTA2LTkuOC05Ljk3NlptMTQuOTM3LDBjMC00LjE1Mi0yLjE0Ni02LjM2OS01LjEzNy02LjM2OXMtNS4xMzgsMi4yMTctNS4xMzgsNi4zNjksMi4xNDYsNi4zNjksNS4xMzgsNi4zNjksNS4xMzctMi4yMzQsNS4xMzctNi4zNjlaIi8+PHBhdGggZmlsbD0iIzAwMmE4NiIgZD0ibTI5NC4zNDYsMjUuNjI4di0xMi42ODVoNC40Njl2MTEuNjI5YzAsMi41NjkuODgsNC4xNTIsMy40NjYsNC4xNTIsMi42NTYsMCw0LjMxMS0xLjc3Nyw0LjMxMS01LjAxNHYtMTAuNzY3aDQuNDM0djE5LjI0N2gtNC4yOTN2LTQuMDY0aC0uMDg4Yy0uODgsMi4yMTctMi42MjEsNC40MTYtNi4zMTYsNC40MTYtNC4xMTYsMC01Ljk4MS0yLjgxNS01Ljk4MS02LjkxNVoiLz48cGF0aCBmaWxsPSIjMDAyYTg2IiBkPSJtMzE0LjUzOSwyMi41NjdjMC02LDMuMDA5LTkuOTkzLDcuOTg3LTkuOTkzLDMuNzQ3LDAsNS45MTEsMi4wMDYsNi44MDksNC4xODhoLjA4OFY1Ljk1OGg0LjQ1MXYyNi4yMzJoLTQuMjkzdi0zLjk1OGgtLjA4OGMtLjkzMiwyLjIxNy0yLjcyNyw0LjMxMS02Ljc5MSw0LjMxMS00Ljg5MSwwLTguMTYzLTMuNzgzLTguMTYzLTkuOTc2Wm0xNC45MTksMGMwLTQuMTUyLTIuMTI5LTYuMzY5LTUuMTE5LTYuMzY5LTMuMDA5LDAtNS4xMzgsMi4yMTctNS4xMzgsNi4zNjlzMi4xMjksNi4zNjksNS4xMzgsNi4zNjljMi45OSwwLDUuMTE5LTIuMjM0LDUuMTE5LTYuMzY5WiIvPjwvc3ZnPg==;" parent="m1EzDJfJrsovWAoZpiBF-6" vertex="1">
          <mxGeometry x="10" y="12.986908358509567" width="225.22296072507552" height="26.972809667673715" as="geometry" />
        </mxCell>
        <mxCell id="m1EzDJfJrsovWAoZpiBF-39" style="edgeStyle=orthogonalEdgeStyle;rounded=0;orthogonalLoop=1;jettySize=auto;html=1;entryX=0;entryY=0.5;entryDx=0;entryDy=0;" parent="1" source="m1EzDJfJrsovWAoZpiBF-38" target="m1EzDJfJrsovWAoZpiBF-14" edge="1">
          <mxGeometry relative="1" as="geometry" />
        </mxCell>
        <mxCell id="m1EzDJfJrsovWAoZpiBF-40" value="Created" style="edgeLabel;html=1;align=center;verticalAlign=middle;resizable=0;points=[];" parent="m1EzDJfJrsovWAoZpiBF-39" vertex="1" connectable="0">
          <mxGeometry x="-0.0105" y="-1" relative="1" as="geometry">
            <mxPoint as="offset" />
          </mxGeometry>
        </mxCell>
        <mxCell id="m1EzDJfJrsovWAoZpiBF-56" style="edgeStyle=orthogonalEdgeStyle;rounded=0;orthogonalLoop=1;jettySize=auto;html=1;entryX=1;entryY=0.5;entryDx=0;entryDy=0;entryPerimeter=0;" parent="1" source="m1EzDJfJrsovWAoZpiBF-54" target="m1EzDJfJrsovWAoZpiBF-38" edge="1">
          <mxGeometry relative="1" as="geometry" />
        </mxCell>
        <mxCell id="m1EzDJfJrsovWAoZpiBF-57" value="Release block" style="edgeLabel;html=1;align=center;verticalAlign=middle;resizable=0;points=[];" parent="m1EzDJfJrsovWAoZpiBF-56" vertex="1" connectable="0">
          <mxGeometry x="-0.001" y="-1" relative="1" as="geometry">
            <mxPoint as="offset" />
          </mxGeometry>
        </mxCell>
        <mxCell id="m1EzDJfJrsovWAoZpiBF-63" value="S/4HANA Cloud Purchase Requisition Workflow Solution" style="text;strokeColor=none;align=center;fillColor=none;html=1;verticalAlign=middle;whiteSpace=wrap;rounded=0;fontSize=40;fontStyle=1" parent="1" vertex="1">
          <mxGeometry x="184" y="40" width="660" height="140" as="geometry" />
        </mxCell>
      </root>
    </mxGraphModel>
  </diagram>
  <diagram id="IKrMCft-3WaiD1Vwoxue" name="prworkflow">
    <mxGraphModel dx="1647" dy="985" grid="0" gridSize="10" guides="1" tooltips="1" connect="1" arrows="1" fold="1" page="1" pageScale="1" pageWidth="1169" pageHeight="827" math="0" shadow="0">
      <root>
        <mxCell id="0" />
        <mxCell id="1" parent="0" />
        <mxCell id="PxIvWldZL5yW9Gs3x-Xw-1" value="" style="rounded=1;whiteSpace=wrap;html=1;fontColor=#B3B3B3;strokeColor=#0A6ED1;" parent="1" vertex="1">
          <mxGeometry x="100" y="75" width="360" height="745" as="geometry" />
        </mxCell>
        <mxCell id="PxIvWldZL5yW9Gs3x-Xw-2" value="" style="shape=image;verticalLabelPosition=bottom;labelBackgroundColor=default;verticalAlign=top;aspect=fixed;imageAspect=0;image=data:image/png,iVBORw0KGgoAAAANSUhEUgAAAKcAAAANCAYAAADMkX5kAAAAAXNSR0IArs4c6QAAAIRlWElmTU0AKgAAAAgABQESAAMAAAABAAEAAAEaAAUAAAABAAAASgEbAAUAAAABAAAAUgEoAAMAAAABAAIAAIdpAAQAAAABAAAAWgAAAAAAAABIAAAAAQAAAEgAAAABAAOgAQADAAAAAQABAACgAgAEAAAAAQAAAKegAwAEAAAAAQAAAA0AAAAA/PNT5gAAAAlwSFlzAAALEwAACxMBAJqcGAAACl9JREFUaAXFlwmQVsUVRsOu7LJGBGdQUNlXlxDjCGWkgogaIhHUoAVqQLCiCMQVRbQMCQTRopSSEESRpViCYTMIsskuMYAaFkFAkR3ZBcWc8/Maen5+GChJ8lWdebf79eu+fe/tnpl8PzqhJpgPQD0oBKvgbwm7eKarDh2doBzMhCFwGIIuwmgNteD70MlzP3wG78BGCO+uwdaHAlAU+sE+iJWPRhu4HS6D72AljIXxcDrpTyuoD4vB8TsgC26FGqAvQ8H32h2gAZwPvWED2K/ygz7q6zJ4FWKdR+OvoM/b4UGIVYxGDri276fCbAiqjHEz1IUJMA1iGfcuUAs+hL/AFjgTtWOQcTSG5mw5DIPpoMrCfXAx+M69hX1j/teUxcw9oDCMDqt0xnDxdL6l7z2oDbEM/P0Qxhu49DF16JsSjQljfVpUFmlHMLlVoC1YAH3hWugFJjbWIBpHwDmOJmgb4Ilgwk+l3/DiAByEp6EgGIQ+oC/O435NXFh3BPYh8F3jqB8zVZweWt+NhfANZkrl+ek72QqXQ6wLaDwBvjceo6AEBFmUHiDf9YT0+X9LXzjc+qF/ecn4zILgV/x0n/2SCbJ5LgTj4cHwIP4v5B6+Af3q5qIGZACoL+Ep+D28C95iP4VnwIIMspiahQbPmvCTqJ1ufkLHcPAEWsi7waL8I9SBW2ABZMFmKJ7Y8ZrV6PNA6PMy0EeLbD540/8cBkMmNaTT4vQGNNhDwcDfAb8GfTmXMm7doglLYT8XtdNN99QcvDXSizB9rG3nN/6VbaDSUBU8bKeS874O1yUDvG1d70XwcBaB9tAKjsL/Xd4eFpbJNVnPg7eTegXuhpZgYA9BUCUMi1a5EYN0JbwN+yBdc+j4A6wH13wcOoO3Szb4jYVjkDw9I6EN6FOQyTApjvkdzAYD/jI8DDWgE6TLhOlbU/gC/G4jeDO1hkvgMDj3uZJ7DMXpzacP9fOY3AK+EWbB9DzGeojLJWO+52kcOsASWAeZVJ3O25IXK3g2Smy/nQRzQB86grnJpPx0enF42C+Dr2BR8uSRyq21UAbMqfE2XyXhIjDHm2ErGBfH5UBZmAEnqTY9btAimwfeirGKxg1snesKfrMURiT2ezwtrCBvxCngOG+0bAjytloDvmsPJeA5uB1crw+0hFgWq+OPgGu6sVgGOZOa0rka/HYo6L9rvADOZVJmwl7wMLSDMJfreCj91oSkaycdvhsL4RvHGEP798AvEttE5kBQ/GvdsSbL9YeAyfTwjAf7e0I8f3faJthEz4VdYDGc7gB05b37da0WEMt49IcuUBGyYCHozwSwKC2s1rAKnCOwDftJ0GeL7E3w3Xy4BpS5/BTsdw3HXgFLwP3Zb/29Ba5pO/Vr3VO0DNx8E1gLTvwoOIGDY1WmcSM42YdgAHeCxRicwcwlFwsqhHEtVEg6vubp3xlPg0Ey8KNgEsSaSMMEF4S2sAn+AQ/BhRCvQTMlCzgHqoG+Oq9JvBPug4NgAc6FvOSNa7EF9Lt0ho9MpIWvnD/MbeIeszODPqBvABSAW6ETnEqFedEYysNU6AcbwL8nG4ExzCS/Mcfm073EOkDjEXgFtkB8EGimitM49oXq8BlYSIuhHHSD9qBCHnxmsh1TEHpDbTBerr8PvBiMQUq+UE3BxVQhsMj8e9CE2n8JKJ22EHy/AQz8GvgIDFY98EZIl8U0C9aDp9zTUwI8BB/DYXAjw+BZWJ60eRzXIayrYHLScz7PG+AlWA2DID0xJsSgm5AF8C7kQHswqN5SI8H3ecnk63OgJLbxSJd9d4FzGjv3NgZMSBXIJAvCfXlJlIEW8DMIycU8rhpYP05aHuCp4EFR94M3XyY5r759B/szDThNnzm9GqyDVeBF4h47wzTwkF4PXmaZfKY7l6rRsjCLgHm5FIznw3A8F/lpKDfnYqXgIRgFFoMFcBsMBh3wvQViYi3ORbARXEBdDjVTVu4fJvRiyAKTfBQMaidYA2cq17oJKsCjMB4MtnN2gLchyEDeC649G14GE3QLNIHpMBp2QVxk2nGbZkoD+dkTeiRoH4R0mSBlUfYFY/wnUMatTco6+cc8uvTxG9C/X0JRSJf5qA9fwR5w/OLErsfT/WbSTjotnAJgvM5GFo7xVN6a+qrWwScp61h+K2PnVZy+rwQWppoIe1PWscvO2kjJ06wsQgNn8g2QeMoHQUuwsK4C3zcHdR18nLJO/DA4jgvOhzczMDzlW2ATrIAdcLbSx29hG/QD/cyCceBJrAoVwfd1oQ3sBv35FO6Ce8DiawbXg4Fx/+eBegPehFaQH4KGYyyFEHzfPQZ+G0uflIW1OWWd+FEWszOMPtF13PKQ/R1qwSOQA64V1vPpnN46Fot4a6XrBjrWgfuKpe/toCA0hXcgyL0PgDIwGyZDrAI0/HNCeei8uJQ+mw9VCJz7TOS4cAEcwA57zPWtAf4VfA46WwKCdmAYLOU4A2PFNwadcvPeOuIJ1mkDZnArQKy1NMbBWzALnPts1Y0P9NM5QiG5pnPNBOWG3XhNeAr028L8MyjbBlppO7YYGNgg+5Vzna38tmnykYdiK3hQtoO/Sl37Agi3BmYuOdabxL9BHZue7Ab0VQX1NTg+4D87qiOUTVm5f1jI5k29cOyR+uk+nfMB8Fa+CbyNY1lA3tTKubM1kPXiftROcM/OFxRs4xvi6jvrJRR1Dew4/r5Pyc17WsonLOc5CLxl6oJ/w1jVLuot0AJ0aDZ4C20EZVE+Dv6qqwPeYibmXMrbuyg0hzkwBvTJw6KfygIQA9wQvEFGgQdITYaVYOLDjXcU+164A4rAM+A/Wo6z70xlnJolg02uN7iHJ+hqjAVwIejvMMik+XQOh1pQOhpgov0t5r6M+z3gb6Sg/hgWZnXwO4vBvQX5d7n7twDNj74MBXPXFZQFPwSMT6wdNP4F7su6cJ19YC5agessho+gDSj9vxNuhrZQFZT7WAPmxO8cY54s/u5wUqE+T6fBzcR6+juAixm4g/AapOtuOtyEG+gB9WEKOOdgyIYfqmFM4PzO6cY8fcHntdhXgut6MOwfCx7AvNSLAXvB+dqBAVQjwF9hzuUhCP2YqeQb4LCOfcuS9pc20nQpbcd6e70PxeAJsG8cxEkpT7s/hD32xC4F7t/xA6ESxGpA49/g+z7g+HQVp2MeOCYd8/oiqGxYCMZjAljoVWAAGP847s4zFRqBehYs3DC/ezAu25O+LjxLwoOwOekLY13T8bZ7hxMyg4aFpBMm0xPvRsdAL/BdaagKH8Bo2ACxjtDYDy7oDbwJnG8LzIEVcAB+iAzUUtA/N7Eb/gmvgZvWpyvARE+CV0F/8lIJBuwBT76xCMXlnv1e342BN0tQPoyK4I1iwpdAw+TpuishlkW5Ez4H9+D4wmBM5oJ9JkXZtx22wafwPlgUZWAdvAH2x3Lu4rAGPGgm+hDEMm5DwYNsbvTpC5gG3eF1UNaFv6Wcy3zrq3tfBMbb4jReFt1LYFGvBmU8dkARMG7Wz0iwzzHG1xgsBufXJ9sD4UlwXfOw+j8XnNYbxkO7agAAAABJRU5ErkJggg==;" parent="1" vertex="1">
          <mxGeometry x="150.77" y="91.94" width="232" height="18.06" as="geometry" />
        </mxCell>
        <mxCell id="PxIvWldZL5yW9Gs3x-Xw-3" value="" style="rounded=1;whiteSpace=wrap;html=1;strokeColor=#0A6ED1;" parent="1" vertex="1">
          <mxGeometry x="700" y="80" width="360" height="740" as="geometry" />
        </mxCell>
        <mxCell id="PxIvWldZL5yW9Gs3x-Xw-4" value="" style="shape=image;verticalLabelPosition=bottom;labelBackgroundColor=default;verticalAlign=top;aspect=fixed;imageAspect=0;image=data:image/png,iVBORw0KGgoAAAANSUhEUgAAAQ4AAAAQCAYAAADnGpH6AAAAAXNSR0IArs4c6QAAAIRlWElmTU0AKgAAAAgABQESAAMAAAABAAEAAAEaAAUAAAABAAAASgEbAAUAAAABAAAAUgEoAAMAAAABAAIAAIdpAAQAAAABAAAAWgAAAAAAAABIAAAAAQAAAEgAAAABAAOgAQADAAAAAQABAACgAgAEAAAAAQAAAQ6gAwAEAAAAAQAAABAAAAAAfkjL+wAAAAlwSFlzAAALEwAACxMBAJqcGAAAEWNJREFUeAHtlwm4jmUaxyMUQlJJw5wjIlSkhZJQ2pv2labRaCbTMm1Tpm1iKGlfZ9pUU9NCi2gbUREphCxZspwTkp3QQkfN7/d57+n1zXc4RZdmLv/r+p33eZ/1fu77fp73O6W2WqtSPKrDcbAfbAuzoB+MgyLIVkMqmkJ5+ADGQlq1eGkO2yeV3yXPz3lOgmnwDUQ9xYxK87ct5EG6TRsXwlBYBmtgU2oXJtsTXP9DcK30+rz+LKQfasPhkMsHtitjNgXe82UjVImx7eBbGA1j4KeWMdgXmoDr9oEVsDllnrcE81JFbqymbD5PhS9Ae+23O5SBZ2E5lETu2zHG0Phlx1cbPJ/NwPVfho9hs0gjDwQ3rjEaK5Z1wlNQE9JyzD2wCuw3ErJ1NBUmru3Z6OxBoIO3hrTK8dIfssek37vTXjE9aBOUPRza5TongUH8OUp/nQFpf+Qqf00fY7SxqsMEMf8NGztZCcebAz2Sdf241C7huJ+y285M7kENX6SfnhMvj/bgwX8Y4mzov5LqYDrOB+e+BipAyLjfC55N19MvZ8NmkZv0gNwE9WAxeAn4qyAPGoMHqgg6gBtS9t0LDLDaH7xhp/mSUvQvoG5mUl+NZ304DFbCXJgBacW4JVSOhxXgryB/EdSAq2AU9INNpXlM9CaUhQWbatKfYB59swjcv8lTGfJhO/gS9JeJ5SUYPqf4oxWxcIJ0+UdP+AMHbo41izMxbPGXhedEP/sB83JoANdBAdgv+lIssRzjnLlknC8C+/iRHwSTYbPIi8OEaw0aNBTOAy8QL4eL4QAYDF4w3nbKi2IPMHGdw18gvwEdl0u9qewJruG4q+EE8GeXl0j2xUFVRhP52wl0lAG6HLqCcpy2NwUvsOkwG7RxX/BfJL+6/gvlgXK8l51fLy8HL0fHfATKS+9BcC8FYAC9DPOgCGaBPtgTXK8Q/JfGA6ps2w0aQSVYBhNAmyIZtMGfmTVAX+jnj+ETiD6u6U/08qDdjncey8p+78OZ4Bzu9XrYG+bAOaC9tjlGmxpCVVgOzjUT0tqZFz8SO4H+s30UKP0Rcs5fgj4wkRfBIFDuWf9WgALwo+A+dkzKI3jOg5DzNADXNo9s89JbAutTHRpjP8a3EBxnOeRezdFqScV8nmNAGx1rPulnY1cI+l/Z3/gZX/1uv1z6lMp2oH+rQ0foDM5ZE3KpLJXabjx2SDq4hrFcBfrD87ANKPu2AW23XZ8r4zMFeoPj1fagr2vA1uAY+0S7cd0DnLsQVkBTWAiegzxQ2lIf6oJxd//mS8Rcv3hOxsFWVUAHfgsmy2kQDjcAbiYtE+ZOcAPvgkliQs0EAxM6moI3om1dIBJQ4zuB9UvhFEhL4/qB7UPAjYT+REE7TbRjwEQdDh6+86E8qCdBx5nUeaBj/wgfgGt+AR6yt+ByUMeCCajNbUGZDM4zFh6FV8GkWQD6qjkoLw33MQAM1nL4BF4BA6rcl36bBAZLZsDr0BpUaxgIBt6kNLDafB9ETCiuo4N4Gwn6awKUAeV6xtL5tWUluGdtbAbKmDSCZ0AfapOXgfNdA6oOOLfozz5grBeDiXUJqIbg3JNBe3vBdFgG+uTvEGpJ4VkwCbXLy2IiPAD1wEPWA1xzNdQGdSq8AbEf/aOtXSByz1g/De7HtY23Nj0O5pW2e2j0vXG9FEIXUxgN9t83KpOnF1x/0CbbI9cobnUUhI/aU34Ivk7q9N+OcCXov0IwP7RtPHQB1QH0UxE4l3vTf/rpXigE678F/TUOXFd/3Q/6z3rndu/64GBQh8JQMF5/A+Nt+VbQLsvmeRcYDq5tfPX1VdAXtG0eOE9jyNxQBkyjPJCF4AbvgJMh7SBeM053cvt3hntgDayGIyB0NAUdbL9bYCfQgU3hFbBex7SFtMrxYoBt/wyeh4fhOTBhDIhrVoZmsADsey1UBPUOWFcAdaEV6BjrXLsH9Afn6gbqLFgF9jkR1O3gu/tbDh5onWfwrHce1QRMSOsK4Un4CHw3sd3TfqB/V8ALYNDeA+tagQq/GiTbnwAvqt5QDXKpBZWu4VoTwEOn6oD+sn4aOFch+K5tysMwDNyP+3oJnMP9fgktIR8cI8bYfiaVfaybA2ofcB3rPKwmsQkZvnIf9WEvMAbuW188A+ab44zHg1ABekCsmU85D5zDurnQByYm7yt5XgJlwH1Gn5sp9wT9oB0e1rdgWzDW7sFYVQJjNADs5/zZ0lfmjHN7MGvBjlAb7gTrtf8UeCgpW2ccdgd98QUYY/38GbiWtu8CjhsD2uW4GWAe3wtd4X2wXpvNj9fgOHgMXNe2l8G5V4Cx8hzp8+PB9exjXIpgFuif28B60T8zwfG+a4v99YcfFNe23jEZ/ZK/vtgYk5g4DtBgF1eloR3oAJPjMGgCGuKkBiGUvjgWUuklMgk0LDb6D8o1IK1yvMTFoWNNMJ1gWdu06Q+wNTSHBWD9tRAXx5CkroCnF8cpEM64nXIeGKxWYEKosyCCdmKm5vuLw/oXYU/oAB+Da5q86lXwfSocASbUeeChsl7/XpiUDUS3pC6PZ2sIu/Wr/T8C96ZtB0IdcL+51ILKkeC4CeDFoQ97Qcx1KmVt0rbw126UTWj7yN1QA2rBNOgLR0E+RB+TsiXUg9lJvYmv0hfHGN6PBfc9HhzvZXMydICI/0WUY01tt98MsF+P5N3Ya1Ov5H05z6vB+B0MwyDGVU3K5soAqAL20277TAdtLwV3gHX62lxtCOPAOtuyZSz6g+2rYAqYz+bCMrB+OOwND0Hs0diVh5OgHdQGffU4RLwPp2wOuO+IT0/K2uq61eAAiLUfoey+joOpSf0bPI1xPtwE9tVXrns8xMXhmr8Dz3QehB/sfx2YExeA70XwGviBPhuMjfUDy/BHeftcBbdAGzgTjoQaCYN5NgL7m6gVwIBpxFwogLrgAm5oHqTlhiSkQU9AF3BDxcmg3gvOVxPOB79Yt4EJOwVKohV0MrjbwSVwMTj2BRgBG9LXdHgXJkI5MLg6OA6zyaKqQ2dYDSZCJVANwPGqKlwN2uFheRq8nJW+1I/2HwLueyDcCGugpCpLR5NU7QD67Tww6PpAtYfJmdLaj4D+iFgYaw+f5ENoLIVh4DzfRGWOpza7X33eD4xZKdgG9ItPffQhxJrmn0m6K7SEryDk3k9JXpbwvAts/xzM3RbgJZVWaV48ONoavptGOS68PpQvgzyoB/uDh9x99YD1yRyon9XB/f4ZxoN7TUtb9Z3reSF4riJ3KGb84VmaD2Gre5sDX4Iqv/aR2Y/5bG7kQ1VQz8CihME8O4P5VxucJ/QwBVGe47StfXnXR/pM6YtJMALsF7aULZNUVObpAgayd8LOPDWmDewER4C3m+/Kd0nLTVjnpZCWB1RMxOkwA0yqDWkpHYbC5KTjIzx1qBu+An4LG5IbfgPOh+7QANy3ySwnwCGwPunIcKb90mXfPahKP7bMlNb+cb9SCwaBNvwF9K17OChhT54XgheQPj8GtNtxHeFUOAA+hpLKg6Ncq1WmtPaP9hSBe3ANtRq8HEP2WQPpPrb5LhuS46Of8+RS9lxeXKGwK959Rp1zexCV+4j5bfe9PTwFrWAcmPzGeRV0g9hnAeVR4IXRDPSTl5qHxI/S+jSXxmvAOWclpA8nVeuoEW+vQD7MB8/YtnAkuObGKPyStln/eMHuCF5Q0YdixmafuaRvVcRu7dvav+vUmVwm5EjoA8eDh99N6eAxoBzkYasHHjxvx5nggZZJYIC2h19BtiZS8SzosNFQkkuDbplN+4XUuc69G4QT1tkI9ZWhCpgAlSBkv/IwFtrCvtABpoOy/x6QPZ9tJdX8pOOHPJ2rHOjDfNgVHgF9PRD0335wKegX1QnsXx3Og3w4CfqCh9p9VYPYO8X1ygQwJso1wybtyofdoTuE3X4YaoNJph13wVlQEyKZKG609HFcSNqi711TOoLya1qQKX3/x33HxWI+tAH9qd3mhfKD4vyDYS6Yj/Y1F94C92PuRZyXUu6VvJ/A82BQPcELYX3yl4zn5VkYDnOgOGn72ZAPU+H34F4HQ651wr4KtJcBfVOcvBziImxL2bXKQT3w0jB2i8Ac2qTSsG1AB5vg98FL4AZ/AWeBxsyG6XARqDfhBgiHafxQaAIavReEAyhm5DzZdUlTsQ9t0ukmuBfaEaC9JoXJoCyro8D9eDAbQ8i6Q6ETDINRMAOmQV3QqSbdxuhRBt8BHshr4EXwIjsTDJ5+PA702f3gZTsOCsCv0QJwX71hDBiDZTATvgKTwX2W1H/uqTs8B4fAdfA8OM85UAeagvPPg13gQDgd8uDXcCH4q85xm0rfMpFr6n997/zbgvu6Gmz3p77+uwBCZSh0hVfBC/SvcCccAM1A9Qd9dDGYNx+B+ze2c8ELyfh4obqOfY3DZ2B/9Ql4udi+IZnPJVXMb06Yi3tDe9gelJeEWgXaWwPM9VnguRsMufQeldPA/mfA++BZ7AhKX7pHL+ifROcyqw4rAoOYxsXbQST4asomYllI6zJeHLcELB8FU8E6A10aSiKT+2VI25Auz6HtMdBZ+WCSrYHoozN1uO8mgnbrVB1sv8VgItmurbeAe3GPJpP1J4G6A3w36a4A1RTeBetd232Z/E+Ch916fWTy+dSvleAmmA22e1EsBO3Rxg6wKxh46xz3KXwFX0JfqA651ILKD8B5PSwRF5PyEVgEYZNP5x8FJmt56AQzwbbA/caFUSdVfwPlUCEF+2uf0i8zwLqeUAWUsbdO35wO+sp8mwTWpxnOu7FyDzcnbdq7G3h5eOlG7GLcSurMl1qgHoZoSz/tNwyOhZA+fQCin7lQORqznvZ9BexrXuu/4qTfjaF968LJEHGwzstqKOg737uCqgkPQYy17TUoB7b5bo7eBaHTKOg328S8k4nQEYzxCTAfbHePIffgXDG2YdIQMV/F++1JXXOe5pd93zEY6p8wGQ4Cg+SEX4BJPQI8KHmgk02qN8ANpNWbF5NVo6eByXgfVIMh4IIlkYnyNIyF9BidbPA9UDrdC0D7u4N9q4IBGQT7gPYuBevmgP0bgwEwEMtB5xoY9zIBusHWoC/UAHC/OtALSTlfL3gTwpG2XwGuXR9MPu0tBC8D5+iRlLVhZygF2uShHwh+KS6EZqDtFeErKIDXYSHk0mwqTTb3ZXLof+VB7QxvgwlRBZyvEN4D7VPGfhZ48LVLO6bAy6CWwI1QBMYxZMIZ78iDzyjfAzvAMNAnyvWV6+kv538OzK1msAvoC9+N60gwBvrSOdyPcXT9y8H59oJqYI5OB/sa4z0SXOspsN2Lyn21gRZwPbwKynn1r3LMa2CscsncMy9Hg7GIfVP8L/Wnxv2UBf1nfC+FBuB+PgTbW4O5MgbUPNCH+qk62HcCeCaWQ3fwUhkFoRcpmAMHQm34DuaCfTy7xnwq3AqupY9D7uFf4NzKfSn90g1cy3go/Xs/aFchrCM3akAMps8yELJcHgyEgc0l28WDaR/7+u68P0SOj7niWdwcpejrRWcSO05tA45zfdtDttvPvW0XlclTe2Ot2J9rRl34ojR1MX+sl0yR+fXhvM5vkOybLcfuAPZx7rR9vGbeK/G03cMe61LMqbQ97jdbzl8Rwqbs9aK/Y7VLu9N9LOtfbU3HIGJrvdKOqLNfzJH2YfjV/ip84brZbelxMVdmEH9c0/3op/Q4L3QPzmI4G9yLcx8Ck8C218HkfxDuhvFg/fNQC4qTNkRe5vJzelz0S8dX/5gbxsK5JPylH9Iy5vbV7+Fz+zufRB3F/0g/uFfJns+2WCt7bC4/51orHd/s+Zl+i7Z44H/XA+diupeAX+jZMByGwBTw14tf8iZwJdjHXxl+1RfAGZC+hHjdouI84M2yRVs88P/iAb+KjeE0qAleIsqf4CNgACyHTtAW/Dp/Ak/B2+BlskUl8MC/AS4va5Xu1smTAAAAAElFTkSuQmCC;" parent="1" vertex="1">
          <mxGeometry x="745" y="94" width="270" height="16" as="geometry" />
        </mxCell>
        <mxCell id="XKpZNVIdKXG_mrXCYP3_-2" style="edgeStyle=orthogonalEdgeStyle;rounded=0;orthogonalLoop=1;jettySize=auto;html=1;strokeColor=#595959;" parent="1" source="PxIvWldZL5yW9Gs3x-Xw-5" target="XKpZNVIdKXG_mrXCYP3_-1" edge="1">
          <mxGeometry relative="1" as="geometry">
            <Array as="points">
              <mxPoint x="260" y="330" />
              <mxPoint x="260" y="330" />
            </Array>
          </mxGeometry>
        </mxCell>
        <mxCell id="XKpZNVIdKXG_mrXCYP3_-5" style="edgeStyle=orthogonalEdgeStyle;rounded=0;orthogonalLoop=1;jettySize=auto;html=1;strokeColor=#0F828F;" parent="1" source="PxIvWldZL5yW9Gs3x-Xw-5" target="XKpZNVIdKXG_mrXCYP3_-4" edge="1">
          <mxGeometry relative="1" as="geometry" />
        </mxCell>
        <mxCell id="XKpZNVIdKXG_mrXCYP3_-6" value="&lt;font face=&quot;Arial&quot; color=&quot;#595959&quot;&gt;PR created event&lt;/font&gt;" style="edgeLabel;html=1;align=center;verticalAlign=middle;resizable=0;points=[];" parent="XKpZNVIdKXG_mrXCYP3_-5" vertex="1" connectable="0">
          <mxGeometry x="-0.0037" y="1" relative="1" as="geometry">
            <mxPoint as="offset" />
          </mxGeometry>
        </mxCell>
        <mxCell id="PxIvWldZL5yW9Gs3x-Xw-5" value="&lt;font face=&quot;Arial&quot; color=&quot;#595959&quot;&gt;Purchase Requestion Created with Block&lt;/font&gt;" style="shape=document;whiteSpace=wrap;html=1;boundedLbl=1;strokeColor=#074D92;" parent="1" vertex="1">
          <mxGeometry x="200" y="185" width="120" height="80" as="geometry" />
        </mxCell>
        <mxCell id="XKpZNVIdKXG_mrXCYP3_-1" value="&lt;font face=&quot;Arial&quot; color=&quot;#595959&quot;&gt;Purchase Order&lt;/font&gt;" style="shape=document;whiteSpace=wrap;html=1;boundedLbl=1;strokeColor=#074D92;" parent="1" vertex="1">
          <mxGeometry x="200" y="360" width="120" height="80" as="geometry" />
        </mxCell>
        <mxCell id="XKpZNVIdKXG_mrXCYP3_-4" value="&lt;font face=&quot;Arial&quot; color=&quot;#595959&quot;&gt;Event Q&lt;/font&gt;" style="strokeWidth=2;html=1;shape=mxgraph.flowchart.stored_data;whiteSpace=wrap;strokeColor=#053B70;" parent="1" vertex="1">
          <mxGeometry x="830" y="195" width="100" height="60" as="geometry" />
        </mxCell>
        <mxCell id="XKpZNVIdKXG_mrXCYP3_-7" value="&lt;span style=&quot;color: rgba(0, 0, 0, 0); font-family: monospace; font-size: 0px; text-align: start; text-wrap: nowrap;&quot;&gt;%3CmxGraphModel%3E%3Croot%3E%3CmxCell%20id%3D%220%22%2F%3E%3CmxCell%20id%3D%221%22%20parent%3D%220%22%2F%3E%3CmxCell%20id%3D%222%22%20value%3D%22Action%20get%20additional%20data%22%20style%3D%22rounded%3D1%3BwhiteSpace%3Dwrap%3Bhtml%3D1%3BabsoluteArcSize%3D1%3BarcSize%3D14%3BstrokeWidth%3D2%3BstrokeColor%3D%23053B70%3B%22%20vertex%3D%221%22%20parent%3D%221%22%3E%3CmxGeometry%20x%3D%22840%22%20y%3D%22445%22%20width%3D%2280%22%20height%3D%2250%22%20as%3D%22geometry%22%2F%3E%3C%2FmxCell%3E%3C%2Froot%3E%3C%2FmxGraphModel%3E&lt;/span&gt;" style="rounded=1;whiteSpace=wrap;html=1;strokeColor=#074D92;fillColor=none;" parent="1" vertex="1">
          <mxGeometry x="737" y="290" width="285" height="496" as="geometry" />
        </mxCell>
        <mxCell id="XKpZNVIdKXG_mrXCYP3_-28" style="edgeStyle=orthogonalEdgeStyle;rounded=0;orthogonalLoop=1;jettySize=auto;html=1;exitX=0.5;exitY=1;exitDx=0;exitDy=0;exitPerimeter=0;entryX=0.5;entryY=0;entryDx=0;entryDy=0;strokeColor=#595959;" parent="1" source="XKpZNVIdKXG_mrXCYP3_-8" target="XKpZNVIdKXG_mrXCYP3_-9" edge="1">
          <mxGeometry relative="1" as="geometry">
            <Array as="points">
              <mxPoint x="880" y="350" />
            </Array>
          </mxGeometry>
        </mxCell>
        <mxCell id="XKpZNVIdKXG_mrXCYP3_-8" value="&lt;font color=&quot;#595959&quot;&gt;Start&lt;/font&gt;" style="strokeWidth=2;html=1;shape=mxgraph.flowchart.start_1;whiteSpace=wrap;strokeColor=#053b70;" parent="1" vertex="1">
          <mxGeometry x="840" y="320" width="70" height="30" as="geometry" />
        </mxCell>
        <mxCell id="XKpZNVIdKXG_mrXCYP3_-10" style="edgeStyle=orthogonalEdgeStyle;rounded=0;orthogonalLoop=1;jettySize=auto;html=1;entryX=1;entryY=0.5;entryDx=0;entryDy=0;strokeColor=#C0399F;" parent="1" source="XKpZNVIdKXG_mrXCYP3_-9" target="PxIvWldZL5yW9Gs3x-Xw-5" edge="1">
          <mxGeometry relative="1" as="geometry" />
        </mxCell>
        <mxCell id="XKpZNVIdKXG_mrXCYP3_-11" value="&lt;font face=&quot;Arial&quot; color=&quot;#595959&quot;&gt;Odata Api Call&lt;/font&gt;" style="edgeLabel;html=1;align=center;verticalAlign=middle;resizable=0;points=[];" parent="XKpZNVIdKXG_mrXCYP3_-10" vertex="1" connectable="0">
          <mxGeometry x="0.0026" y="-4" relative="1" as="geometry">
            <mxPoint as="offset" />
          </mxGeometry>
        </mxCell>
        <mxCell id="XKpZNVIdKXG_mrXCYP3_-29" style="edgeStyle=orthogonalEdgeStyle;rounded=0;orthogonalLoop=1;jettySize=auto;html=1;exitX=0.5;exitY=1;exitDx=0;exitDy=0;strokeColor=#595959;" parent="1" source="XKpZNVIdKXG_mrXCYP3_-9" target="XKpZNVIdKXG_mrXCYP3_-12" edge="1">
          <mxGeometry relative="1" as="geometry">
            <Array as="points">
              <mxPoint x="880" y="430" />
              <mxPoint x="880" y="430" />
            </Array>
          </mxGeometry>
        </mxCell>
        <mxCell id="XKpZNVIdKXG_mrXCYP3_-9" value="&lt;font face=&quot;Arial&quot; color=&quot;#595959&quot;&gt;Action get additional data&lt;/font&gt;" style="rounded=1;whiteSpace=wrap;html=1;absoluteArcSize=1;arcSize=14;strokeWidth=2;strokeColor=#053B70;" parent="1" vertex="1">
          <mxGeometry x="845" y="382.5" width="70" height="35" as="geometry" />
        </mxCell>
        <mxCell id="XKpZNVIdKXG_mrXCYP3_-12" value="&lt;font face=&quot;Arial&quot; color=&quot;#595959&quot;&gt;Determine Apprver&lt;/font&gt;" style="rounded=1;whiteSpace=wrap;html=1;absoluteArcSize=1;arcSize=14;strokeWidth=2;strokeColor=#053B70;" parent="1" vertex="1">
          <mxGeometry x="845" y="450" width="70" height="30" as="geometry" />
        </mxCell>
        <mxCell id="XKpZNVIdKXG_mrXCYP3_-14" value="&lt;font face=&quot;Arial&quot; color=&quot;#595959&quot;&gt;Approve?&lt;/font&gt;" style="strokeWidth=2;html=1;shape=mxgraph.flowchart.decision;whiteSpace=wrap;strokeColor=#053B70;" parent="1" vertex="1">
          <mxGeometry x="850" y="513" width="70" height="50" as="geometry" />
        </mxCell>
        <mxCell id="XKpZNVIdKXG_mrXCYP3_-16" style="edgeStyle=orthogonalEdgeStyle;rounded=0;orthogonalLoop=1;jettySize=auto;html=1;entryX=1;entryY=0.5;entryDx=0;entryDy=0;strokeColor=#C0399F;" parent="1" source="XKpZNVIdKXG_mrXCYP3_-15" target="PxIvWldZL5yW9Gs3x-Xw-5" edge="1">
          <mxGeometry relative="1" as="geometry" />
        </mxCell>
        <mxCell id="XKpZNVIdKXG_mrXCYP3_-17" value="&lt;font face=&quot;Arial&quot; color=&quot;#595959&quot;&gt;API Call&lt;/font&gt;" style="edgeLabel;html=1;align=center;verticalAlign=middle;resizable=0;points=[];" parent="XKpZNVIdKXG_mrXCYP3_-16" vertex="1" connectable="0">
          <mxGeometry x="0.0072" y="1" relative="1" as="geometry">
            <mxPoint as="offset" />
          </mxGeometry>
        </mxCell>
        <mxCell id="XKpZNVIdKXG_mrXCYP3_-15" value="&lt;font face=&quot;Arial&quot; color=&quot;#595959&quot;&gt;Remove Block&lt;/font&gt;" style="rounded=1;whiteSpace=wrap;html=1;absoluteArcSize=1;arcSize=14;strokeWidth=2;strokeColor=#053B70;" parent="1" vertex="1">
          <mxGeometry x="853" y="670" width="70" height="30" as="geometry" />
        </mxCell>
        <mxCell id="XKpZNVIdKXG_mrXCYP3_-18" value="&lt;font face=&quot;Arial&quot; color=&quot;#595959&quot;&gt;End&lt;/font&gt;" style="strokeWidth=2;html=1;shape=mxgraph.flowchart.terminator;whiteSpace=wrap;strokeColor=#053B70;" parent="1" vertex="1">
          <mxGeometry x="845" y="740" width="80" height="34" as="geometry" />
        </mxCell>
        <mxCell id="XKpZNVIdKXG_mrXCYP3_-23" style="edgeStyle=orthogonalEdgeStyle;rounded=0;orthogonalLoop=1;jettySize=auto;html=1;exitX=0.5;exitY=1;exitDx=0;exitDy=0;exitPerimeter=0;entryX=0.5;entryY=0;entryDx=0;entryDy=0;strokeColor=#595959;" parent="1" source="XKpZNVIdKXG_mrXCYP3_-19" target="XKpZNVIdKXG_mrXCYP3_-15" edge="1">
          <mxGeometry relative="1" as="geometry">
            <Array as="points">
              <mxPoint x="885" y="655" />
              <mxPoint x="880" y="655" />
              <mxPoint x="880" y="670" />
            </Array>
          </mxGeometry>
        </mxCell>
        <mxCell id="XKpZNVIdKXG_mrXCYP3_-24" value="Yes" style="edgeLabel;html=1;align=center;verticalAlign=middle;resizable=0;points=[];" parent="XKpZNVIdKXG_mrXCYP3_-23" vertex="1" connectable="0">
          <mxGeometry x="-0.2065" y="-1" relative="1" as="geometry">
            <mxPoint as="offset" />
          </mxGeometry>
        </mxCell>
        <mxCell id="XKpZNVIdKXG_mrXCYP3_-26" style="edgeStyle=orthogonalEdgeStyle;rounded=0;orthogonalLoop=1;jettySize=auto;html=1;exitX=1;exitY=0.5;exitDx=0;exitDy=0;exitPerimeter=0;entryX=1;entryY=0.25;entryDx=0;entryDy=0;strokeColor=#595959;" parent="1" source="XKpZNVIdKXG_mrXCYP3_-19" target="XKpZNVIdKXG_mrXCYP3_-12" edge="1">
          <mxGeometry relative="1" as="geometry" />
        </mxCell>
        <mxCell id="XKpZNVIdKXG_mrXCYP3_-27" value="&lt;font face=&quot;Arial&quot; color=&quot;#595959&quot;&gt;No&lt;/font&gt;" style="edgeLabel;html=1;align=center;verticalAlign=middle;resizable=0;points=[];" parent="XKpZNVIdKXG_mrXCYP3_-26" vertex="1" connectable="0">
          <mxGeometry x="0.0128" y="3" relative="1" as="geometry">
            <mxPoint as="offset" />
          </mxGeometry>
        </mxCell>
        <mxCell id="XKpZNVIdKXG_mrXCYP3_-19" value="&lt;font face=&quot;Arial&quot; color=&quot;#595959&quot;&gt;Last Level?&lt;/font&gt;" style="strokeWidth=2;html=1;shape=mxgraph.flowchart.decision;whiteSpace=wrap;strokeColor=#053B70;" parent="1" vertex="1">
          <mxGeometry x="850" y="590" width="70" height="50" as="geometry" />
        </mxCell>
        <mxCell id="XKpZNVIdKXG_mrXCYP3_-20" value="&lt;font face=&quot;Arial&quot; color=&quot;#595959&quot;&gt;No&lt;/font&gt;" style="edgeStyle=orthogonalEdgeStyle;rounded=0;orthogonalLoop=1;jettySize=auto;html=1;entryX=1;entryY=0.5;entryDx=0;entryDy=0;entryPerimeter=0;strokeColor=#595959;" parent="1" source="XKpZNVIdKXG_mrXCYP3_-14" target="XKpZNVIdKXG_mrXCYP3_-18" edge="1">
          <mxGeometry x="-0.034" relative="1" as="geometry">
            <Array as="points">
              <mxPoint x="960" y="538" />
              <mxPoint x="960" y="757" />
            </Array>
            <mxPoint as="offset" />
          </mxGeometry>
        </mxCell>
        <mxCell id="XKpZNVIdKXG_mrXCYP3_-21" style="edgeStyle=orthogonalEdgeStyle;rounded=0;orthogonalLoop=1;jettySize=auto;html=1;exitX=0.5;exitY=1;exitDx=0;exitDy=0;exitPerimeter=0;entryX=0.5;entryY=0;entryDx=0;entryDy=0;entryPerimeter=0;strokeColor=#595959;" parent="1" source="XKpZNVIdKXG_mrXCYP3_-14" target="XKpZNVIdKXG_mrXCYP3_-19" edge="1">
          <mxGeometry relative="1" as="geometry">
            <Array as="points">
              <mxPoint x="885" y="570" />
              <mxPoint x="885" y="570" />
            </Array>
          </mxGeometry>
        </mxCell>
        <mxCell id="XKpZNVIdKXG_mrXCYP3_-22" value="&lt;font color=&quot;#595959&quot;&gt;Yes&lt;/font&gt;" style="edgeLabel;html=1;align=center;verticalAlign=middle;resizable=0;points=[];" parent="XKpZNVIdKXG_mrXCYP3_-21" vertex="1" connectable="0">
          <mxGeometry x="-0.0525" y="-3" relative="1" as="geometry">
            <mxPoint as="offset" />
          </mxGeometry>
        </mxCell>
        <mxCell id="XKpZNVIdKXG_mrXCYP3_-25" style="edgeStyle=orthogonalEdgeStyle;rounded=0;orthogonalLoop=1;jettySize=auto;html=1;exitX=0.5;exitY=1;exitDx=0;exitDy=0;entryX=0.5;entryY=0;entryDx=0;entryDy=0;entryPerimeter=0;strokeColor=#595959;" parent="1" source="XKpZNVIdKXG_mrXCYP3_-15" target="XKpZNVIdKXG_mrXCYP3_-18" edge="1">
          <mxGeometry relative="1" as="geometry">
            <Array as="points">
              <mxPoint x="885" y="720" />
              <mxPoint x="885" y="720" />
            </Array>
          </mxGeometry>
        </mxCell>
        <mxCell id="XKpZNVIdKXG_mrXCYP3_-30" style="edgeStyle=orthogonalEdgeStyle;rounded=0;orthogonalLoop=1;jettySize=auto;html=1;exitX=0.5;exitY=1;exitDx=0;exitDy=0;entryX=0.5;entryY=0;entryDx=0;entryDy=0;entryPerimeter=0;strokeColor=#595959;" parent="1" source="XKpZNVIdKXG_mrXCYP3_-12" target="XKpZNVIdKXG_mrXCYP3_-14" edge="1">
          <mxGeometry relative="1" as="geometry">
            <Array as="points">
              <mxPoint x="885" y="480" />
            </Array>
          </mxGeometry>
        </mxCell>
        <mxCell id="XKpZNVIdKXG_mrXCYP3_-31" value="&lt;h1 style=&quot;margin-top: 0px;&quot;&gt;S/4HANA Cloud Purchase Requisiton SBS Workflow&lt;/h1&gt;" style="text;html=1;whiteSpace=wrap;overflow=hidden;rounded=0;" parent="1" vertex="1">
          <mxGeometry x="450" width="340" height="120" as="geometry" />
        </mxCell>
        <mxCell id="XKpZNVIdKXG_mrXCYP3_-35" value="" style="group" parent="1" vertex="1" connectable="0">
          <mxGeometry x="752" y="462" width="94" height="82" as="geometry" />
        </mxCell>
        <mxCell id="XKpZNVIdKXG_mrXCYP3_-36" value="&lt;font color=&quot;#1d2d3e&quot; size=&quot;1&quot; face=&quot;arial&quot; style=&quot;&quot;&gt;&lt;b style=&quot;font-size: 14px;&quot;&gt;SAP Build Process Automation&lt;br&gt;&lt;/b&gt;&lt;/font&gt;" style="text;html=1;align=center;verticalAlign=top;resizable=1;points=[[0,0.5,0,0,0],[0.21,1,0,0,0],[0.5,1,0,0,0],[0.85,1,0,0,0],[1,0.5,0,0,0]];autosize=0;strokeColor=none;fillColor=none;fontSize=12;fontColor=default;fontFamily=Helvetica;fixedWidth=1;imageWidth=24;whiteSpace=wrap;labelBackgroundColor=none;" parent="XKpZNVIdKXG_mrXCYP3_-35" vertex="1">
          <mxGeometry y="42.294736842105266" width="94" height="39.705263157894734" as="geometry" />
        </mxCell>
        <mxCell id="XKpZNVIdKXG_mrXCYP3_-37" value="" style="shape=image;verticalLabelPosition=bottom;labelBackgroundColor=default;verticalAlign=top;aspect=fixed;imageAspect=0;image=data:image/svg+xml,PHN2ZyB4bWxucz0iaHR0cDovL3d3dy53My5vcmcvMjAwMC9zdmciIGZpbGw9Im5vbmUiIHZpZXdCb3g9IjAgMCAxNiAxNiIgaGVpZ2h0PSIxNiIgd2lkdGg9IjE2Ij4mI3hhOzxnIGNsaXAtcGF0aD0idXJsKCNjbGlwMF8zMTA2XzI3MDY1KSI+JiN4YTs8Y2lyY2xlIHN0cm9rZS13aWR0aD0iMC4yNzM4OTMiIHN0cm9rZT0iI0Q1REFERCIgZmlsbD0idXJsKCNwYWludDBfbGluZWFyXzMxMDZfMjcwNjUpIiByPSI3LjUzMjA1IiBjeT0iOC4wMDAwNSIgY3g9IjcuOTk5MzIiLz4mI3hhOzxnIGNsaXAtcGF0aD0idXJsKCNjbGlwMV8zMTA2XzI3MDY1KSI+JiN4YTs8bWFzayBoZWlnaHQ9IjEyIiB3aWR0aD0iMTMiIHk9IjIiIHg9IjIiIG1hc2tVbml0cz0idXNlclNwYWNlT25Vc2UiIHN0eWxlPSJtYXNrLXR5cGU6YWxwaGEiIGlkPSJtYXNrMF8zMTA2XzI3MDY1Ij4mI3hhOzxwYXRoIGZpbGw9ImJsYWNrIiBkPSJNOS41MzU2MyA5LjM1MTM1QzEwLjUxMDMgOS4wNDIyMSAxMS4yMTU0IDguMTQxNyAxMS4yMTU0IDcuMDc4OThDMTEuMjE1NCA1Ljc2MDc3IDEwLjEzMDQgNC42OTIxNCA4Ljc5MjAzIDQuNjkyMTRMNy44NzM4OCA0LjY5MjE0QzYuNTU1NjggNC42OTIxNCA1LjQ4NzA2IDUuNzYwNzYgNS40ODcwNiA3LjA3ODk3VjkuOTQzMTdDNS40ODcwNiAxMC43MzQxIDYuMTI4MjMgMTEuMzc1MyA2LjkxOTE1IDExLjM3NTNDNy43MTAwOCAxMS4zNzUzIDguMzUxMjUgMTAuNzM0MSA4LjM1MTI1IDkuOTQzMTdMOC4zNTEyNSA3LjIzNjYyQzguMzUxMjUgNy4wNTIxNiA4LjYxNTY4IDcuMDIxNzkgOC42NTc0OSA3LjIwMTQ1TDkuMDg2NTEgOS4wNDQ5MUM5LjE0ODA0IDkuMzAwNzEgOS4zMDMwOSA5LjQyNTExIDkuNTM1NjMgOS4zNTEzNVoiLz4mI3hhOzwvbWFzaz4mI3hhOzxnIG1hc2s9InVybCgjbWFzazBfMzEwNl8yNzA2NSkiPiYjeGE7PGcgZmlsdGVyPSJ1cmwoI2ZpbHRlcjBfZF8zMTA2XzI3MDY1KSI+JiN4YTs8cGF0aCBmaWxsPSJ1cmwoI3BhaW50MV9yYWRpYWxfMzEwNl8yNzA2NSkiIGQ9Ik0xMy44NTA3IDQuMjM3MUMxMi45NDE0IDUuMDg3MjMgMTEuNTk5NiA1LjQxMTcxIDExLjQzODYgOS4yNTgyNEMxMS4yNzc2IDEzLjEwNDggNi42NDA5MyAxMS45MTQyIDUuNjU3MTEgMTEuNDc3OUMzLjkxNzAxIDEwLjcwNjIgMS4zOTI5NCA1LjYxNTYxIDQuMzAxMTggNC4wMjE1MkM3LjIwOTQyIDIuNDI3NDIgOS4wMDAyOSAxLjA5OTM5IDEwLjc0MDQgMS44NzExQzEyLjQ4MDUgMi42NDI4IDE0Ljc2IDMuMzg2OTcgMTMuODUwNyA0LjIzNzFaIi8+JiN4YTs8L2c+JiN4YTs8ZyBmaWx0ZXI9InVybCgjZmlsdGVyMV9kXzMxMDZfMjcwNjUpIj4mI3hhOzxwYXRoIGZpbGw9InVybCgjcGFpbnQyX3JhZGlhbF8zMTA2XzI3MDY1KSIgZD0iTTEzLjIwNjcgNi41NDU1OEMxMi4xNDgzIDYuNzg5NCA5LjkzOTM1IDUuNzY1MTcgOC4xMzQ2NSA4LjU5ODIyQzYuMzI5OTYgMTEuNDMxMyAzLjE0NTgzIDkuMTQzOTYgMi41OTQxMiA4LjM4NDEyQzEuNjE4MzEgNy4wNDAxNyAxLjc1NjggMi43NTE5MSA0LjY0OTU5IDIuODIxMjFDNy41NDIzOSAyLjg5MDUxIDEwLjc3ODEgMy4zMTU2MiAxMS43NTM5IDQuNjU5NTZDMTIuNzI5NyA2LjAwMzUgMTQuMjY1IDYuMzAxNzUgMTMuMjA2NyA2LjU0NTU4WiIvPiYjeGE7PC9nPiYjeGE7PGcgZmlsdGVyPSJ1cmwoI2ZpbHRlcjJfZF8zMTA2XzI3MDY1KSI+JiN4YTs8cGF0aCBmaWxsPSJ1cmwoI3BhaW50M19yYWRpYWxfMzEwNl8yNzA2NSkiIGQ9Ik0zLjU3OTA1IDkuMzAyODlDMi4yOTU4OSA4LjkzODcgMS41NTA5MiA3LjYwMzI3IDEuOTE1MTEgNi4zMjAxMUMyLjI3OTI5IDUuMDM2OTYgNC44OTE3NSAyLjQ2NjA5IDYuMTc0OTEgMi44MzAyN0M3LjQ1ODA2IDMuMTk0NDYgNy45Njk5NCA1LjYwNDEgNy42MDU3NSA2Ljg4NzI1QzcuMjQxNTcgOC4xNzA0MSA1LjIzOTU4IDkuNzc0MTggMy41NzkwNSA5LjMwMjg5WiIvPiYjeGE7PC9nPiYjeGE7PC9nPiYjeGE7PC9nPiYjeGE7PC9nPiYjeGE7PGRlZnM+JiN4YTs8ZmlsdGVyIGNvbG9yLWludGVycG9sYXRpb24tZmlsdGVycz0ic1JHQiIgZmlsdGVyVW5pdHM9InVzZXJTcGFjZU9uVXNlIiBoZWlnaHQ9IjExLjY5ODciIHdpZHRoPSIxMi40Mjk0IiB5PSIxLjAxNzUiIHg9IjIuNTI0OTgiIGlkPSJmaWx0ZXIwX2RfMzEwNl8yNzA2NSI+JiN4YTs8ZmVGbG9vZCByZXN1bHQ9IkJhY2tncm91bmRJbWFnZUZpeCIgZmxvb2Qtb3BhY2l0eT0iMCIvPiYjeGE7PGZlQ29sb3JNYXRyaXggcmVzdWx0PSJoYXJkQWxwaGEiIHZhbHVlcz0iMCAwIDAgMCAwIDAgMCAwIDAgMCAwIDAgMCAwIDAgMCAwIDAgMTI3IDAiIHR5cGU9Im1hdHJpeCIgaW49IlNvdXJjZUFscGhhIi8+JiN4YTs8ZmVPZmZzZXQgZHk9IjAuMDQ0ODQwNSIgZHg9IjAuMjI0MjAyIi8+JiN4YTs8ZmVHYXVzc2lhbkJsdXIgc3RkRGV2aWF0aW9uPSIwLjMzNjMwNCIvPiYjeGE7PGZlQ29tcG9zaXRlIG9wZXJhdG9yPSJvdXQiIGluMj0iaGFyZEFscGhhIi8+JiN4YTs8ZmVDb2xvck1hdHJpeCB2YWx1ZXM9IjAgMCAwIDAgMCAwIDAgMCAwIDAgMCAwIDAgMCAwIDAgMCAwIDAuNCAwIiB0eXBlPSJtYXRyaXgiLz4mI3hhOzxmZUJsZW5kIHJlc3VsdD0iZWZmZWN0MV9kcm9wU2hhZG93XzMxMDZfMjcwNjUiIGluMj0iQmFja2dyb3VuZEltYWdlRml4IiBtb2RlPSJub3JtYWwiLz4mI3hhOzxmZUJsZW5kIHJlc3VsdD0ic2hhcGUiIGluMj0iZWZmZWN0MV9kcm9wU2hhZG93XzMxMDZfMjcwNjUiIGluPSJTb3VyY2VHcmFwaGljIiBtb2RlPSJub3JtYWwiLz4mI3hhOzwvZmlsdGVyPiYjeGE7PGZpbHRlciBjb2xvci1pbnRlcnBvbGF0aW9uLWZpbHRlcnM9InNSR0IiIGZpbHRlclVuaXRzPSJ1c2VyU3BhY2VPblVzZSIgaGVpZ2h0PSI4LjUwMjIiIHdpZHRoPSIxMi44NjAxIiB5PSIyLjE5MjU1IiB4PSIxLjYwMDkxIiBpZD0iZmlsdGVyMV9kXzMxMDZfMjcwNjUiPiYjeGE7PGZlRmxvb2QgcmVzdWx0PSJCYWNrZ3JvdW5kSW1hZ2VGaXgiIGZsb29kLW9wYWNpdHk9IjAiLz4mI3hhOzxmZUNvbG9yTWF0cml4IHJlc3VsdD0iaGFyZEFscGhhIiB2YWx1ZXM9IjAgMCAwIDAgMCAwIDAgMCAwIDAgMCAwIDAgMCAwIDAgMCAwIDEyNyAwIiB0eXBlPSJtYXRyaXgiIGluPSJTb3VyY2VBbHBoYSIvPiYjeGE7PGZlT2Zmc2V0IGR5PSIwLjA0NDg0MDUiIGR4PSIwLjIyNDIwMiIvPiYjeGE7PGZlR2F1c3NpYW5CbHVyIHN0ZERldmlhdGlvbj0iMC4zMzYzMDQiLz4mI3hhOzxmZUNvbXBvc2l0ZSBvcGVyYXRvcj0ib3V0IiBpbjI9ImhhcmRBbHBoYSIvPiYjeGE7PGZlQ29sb3JNYXRyaXggdmFsdWVzPSIwIDAgMCAwIDAgMCAwIDAgMCAwIDAgMCAwIDAgMCAwIDAgMCAwLjQgMCIgdHlwZT0ibWF0cml4Ii8+JiN4YTs8ZmVCbGVuZCByZXN1bHQ9ImVmZmVjdDFfZHJvcFNoYWRvd18zMTA2XzI3MDY1IiBpbjI9IkJhY2tncm91bmRJbWFnZUZpeCIgbW9kZT0ibm9ybWFsIi8+JiN4YTs8ZmVCbGVuZCByZXN1bHQ9InNoYXBlIiBpbjI9ImVmZmVjdDFfZHJvcFNoYWRvd18zMTA2XzI3MDY1IiBpbj0iU291cmNlR3JhcGhpYyIgbW9kZT0ibm9ybWFsIi8+JiN4YTs8L2ZpbHRlcj4mI3hhOzxmaWx0ZXIgY29sb3ItaW50ZXJwb2xhdGlvbi1maWx0ZXJzPSJzUkdCIiBmaWx0ZXJVbml0cz0idXNlclNwYWNlT25Vc2UiIGhlaWdodD0iNy45MzY3NyIgd2lkdGg9IjcuMjQyNjgiIHk9IjIuMTY3NjQiIHg9IjEuMzc0MzUiIGlkPSJmaWx0ZXIyX2RfMzEwNl8yNzA2NSI+JiN4YTs8ZmVGbG9vZCByZXN1bHQ9IkJhY2tncm91bmRJbWFnZUZpeCIgZmxvb2Qtb3BhY2l0eT0iMCIvPiYjeGE7PGZlQ29sb3JNYXRyaXggcmVzdWx0PSJoYXJkQWxwaGEiIHZhbHVlcz0iMCAwIDAgMCAwIDAgMCAwIDAgMCAwIDAgMCAwIDAgMCAwIDAgMTI3IDAiIHR5cGU9Im1hdHJpeCIgaW49IlNvdXJjZUFscGhhIi8+JiN4YTs8ZmVPZmZzZXQgZHk9IjAuMDQ0ODQwNSIgZHg9IjAuMjI0MjAyIi8+JiN4YTs8ZmVHYXVzc2lhbkJsdXIgc3RkRGV2aWF0aW9uPSIwLjMzNjMwNCIvPiYjeGE7PGZlQ29tcG9zaXRlIG9wZXJhdG9yPSJvdXQiIGluMj0iaGFyZEFscGhhIi8+JiN4YTs8ZmVDb2xvck1hdHJpeCB2YWx1ZXM9IjAgMCAwIDAgMCAwIDAgMCAwIDAgMCAwIDAgMCAwIDAgMCAwIDAuNCAwIiB0eXBlPSJtYXRyaXgiLz4mI3hhOzxmZUJsZW5kIHJlc3VsdD0iZWZmZWN0MV9kcm9wU2hhZG93XzMxMDZfMjcwNjUiIGluMj0iQmFja2dyb3VuZEltYWdlRml4IiBtb2RlPSJub3JtYWwiLz4mI3hhOzxmZUJsZW5kIHJlc3VsdD0ic2hhcGUiIGluMj0iZWZmZWN0MV9kcm9wU2hhZG93XzMxMDZfMjcwNjUiIGluPSJTb3VyY2VHcmFwaGljIiBtb2RlPSJub3JtYWwiLz4mI3hhOzwvZmlsdGVyPiYjeGE7PGxpbmVhckdyYWRpZW50IGdyYWRpZW50VW5pdHM9InVzZXJTcGFjZU9uVXNlIiB5Mj0iMTQuNDY4OSIgeDI9IjEzLjQ1MjEiIHkxPSIyLjUwODA0IiB4MT0iMS43MjEyNCIgaWQ9InBhaW50MF9saW5lYXJfMzEwNl8yNzA2NSI+JiN4YTs8c3RvcCBzdG9wLWNvbG9yPSJ3aGl0ZSIvPiYjeGE7PHN0b3Agc3RvcC1jb2xvcj0iI0VBRUNFRSIgb2Zmc2V0PSIxIi8+JiN4YTs8L2xpbmVhckdyYWRpZW50PiYjeGE7PHJhZGlhbEdyYWRpZW50IGdyYWRpZW50VHJhbnNmb3JtPSJ0cmFuc2xhdGUoOC4zMzg3IDUuMjU4NzgpIHJvdGF0ZSg3OS4wOTY3KSBzY2FsZSgxMC45MDQ0IDEwLjA5OCkiIGdyYWRpZW50VW5pdHM9InVzZXJTcGFjZU9uVXNlIiByPSIxIiBjeT0iMCIgY3g9IjAiIGlkPSJwYWludDFfcmFkaWFsXzMxMDZfMjcwNjUiPiYjeGE7PHN0b3Agc3RvcC1jb2xvcj0iIzEzNDhGRiIvPiYjeGE7PHN0b3Agc3RvcC1jb2xvcj0iIzA2MjM4RCIgb2Zmc2V0PSIxIi8+JiN4YTs8L3JhZGlhbEdyYWRpZW50PiYjeGE7PHJhZGlhbEdyYWRpZW50IGdyYWRpZW50VHJhbnNmb3JtPSJ0cmFuc2xhdGUoOS4yNTAwNSAxLjYzODAyKSByb3RhdGUoMTA4LjU0OSkgc2NhbGUoMTQuMzUxOCAyNS40NykiIGdyYWRpZW50VW5pdHM9InVzZXJTcGFjZU9uVXNlIiByPSIxIiBjeT0iMCIgY3g9IjAiIGlkPSJwYWludDJfcmFkaWFsXzMxMDZfMjcwNjUiPiYjeGE7PHN0b3Agc3RvcC1jb2xvcj0iIzAxOTVGRiIvPiYjeGE7PHN0b3Agc3RvcC1jb2xvcj0iIzExNDdFOSIgb2Zmc2V0PSIxIi8+JiN4YTs8L3JhZGlhbEdyYWRpZW50PiYjeGE7PHJhZGlhbEdyYWRpZW50IGdyYWRpZW50VHJhbnNmb3JtPSJ0cmFuc2xhdGUoNy4xNDEzNiAzLjc4NzA2KSByb3RhdGUoMTQ0Ljc0Nikgc2NhbGUoOC43MDE2NSAxMS44MzcxKSIgZ3JhZGllbnRVbml0cz0idXNlclNwYWNlT25Vc2UiIHI9IjEiIGN5PSIwIiBjeD0iMCIgaWQ9InBhaW50M19yYWRpYWxfMzEwNl8yNzA2NSI+JiN4YTs8c3RvcCBzdG9wLWNvbG9yPSIjMDBCQkZGIi8+JiN4YTs8c3RvcCBzdG9wLWNvbG9yPSIjMDA4QkZGIiBvZmZzZXQ9IjEiLz4mI3hhOzwvcmFkaWFsR3JhZGllbnQ+JiN4YTs8Y2xpcFBhdGggaWQ9ImNsaXAwXzMxMDZfMjcwNjUiPiYjeGE7PHJlY3QgdHJhbnNmb3JtPSJ0cmFuc2xhdGUoLTAuMDAwNzMyNDIyKSIgZmlsbD0id2hpdGUiIGhlaWdodD0iMTYiIHdpZHRoPSIxNiIvPiYjeGE7PC9jbGlwUGF0aD4mI3hhOzxjbGlwUGF0aCBpZD0iY2xpcDFfMzEwNl8yNzA2NSI+JiN4YTs8cmVjdCB0cmFuc2Zvcm09InRyYW5zbGF0ZSgzLjQ5OTI3IDMuMTY2NzUpIiBmaWxsPSJ3aGl0ZSIgaGVpZ2h0PSI5LjY2NjY3IiB3aWR0aD0iOS42NjY2NiIvPiYjeGE7PC9jbGlwUGF0aD4mI3hhOzwvZGVmcz4mI3hhOzwvc3ZnPg==;points=[[0,0,0,0,0],[0,0.25,0,0,0],[0,0.5,0,0,0],[0,0.75,0,0,0],[0.25,0,0,0,0],[0.5,0,0,0,0],[0.75,0,0,0,0],[1,0,0,0,0],[1,0.25,0,0,0],[1,0.5,0,0,0],[1,0.75,0,0,0]];" parent="XKpZNVIdKXG_mrXCYP3_-35" vertex="1">
          <mxGeometry x="26.063636363636363" width="41.87272727272727" height="41.87272727272727" as="geometry" />
        </mxCell>
        <mxCell id="XKpZNVIdKXG_mrXCYP3_-38" value="" style="group" parent="1" vertex="1" connectable="0">
          <mxGeometry x="805" y="140" width="193" height="143" as="geometry" />
        </mxCell>
        <mxCell id="XKpZNVIdKXG_mrXCYP3_-39" value="" style="shape=image;verticalLabelPosition=bottom;verticalAlign=top;imageAspect=0;aspect=fixed;image=data:image/svg+xml,PHN2ZyB4bWxucz0iaHR0cDovL3d3dy53My5vcmcvMjAwMC9zdmciIGZpbGw9Im5vbmUiIHZpZXdCb3g9IjAgMCA0OSA0OSIgaGVpZ2h0PSI0OSIgd2lkdGg9IjQ5Ij4mI3hhOzxjaXJjbGUgc3Ryb2tlLXdpZHRoPSIwLjg1NzE0MyIgc3Ryb2tlPSIjRDVEQUREIiBmaWxsPSJ1cmwoI3BhaW50MF9saW5lYXJfMjYyMl8zMDkyKSIgcj0iMjMuNTcxNCIgY3k9IjI0LjAzNDkiIGN4PSIyNC41Ii8+JiN4YTs8ZyBjbGlwLXBhdGg9InVybCgjY2xpcDBfMjYyMl8zMDkyKSI+JiN4YTs8cGF0aCBmaWxsPSJ1cmwoI3BhaW50MV9yYWRpYWxfMjYyMl8zMDkyKSIgZD0iTTI0LjMwODggMTEuNTk2MUMyMC4wMjY0IDExLjU5NjEgMTYuOTgzNyAxNS4wODIxIDE2LjQ3NjggMTguNzIxNEMxNS4wOTkyIDE4LjgwMzQgMTMuODgyOSAxOS4zMjExIDEyLjkzODEgMjAuMTkwN0MxMS42NjAxIDIxLjM2NzEgMTEgMjMuMDc0NiAxMSAyNC44NzUzQzExIDI2LjU0ODcgMTEuNTA3NiAyOC4xMzA0IDEyLjY0NzMgMjkuMjk5OUMxMy43OTQ2IDMwLjQ3NzMgMTUuNDIzNCAzMS4wNzM3IDE3LjM0MTMgMzEuMDczN0gxOS40Mzc1VjI4LjAwMTNDMTkuNDM3NSAyNi4yMTA5IDIwLjg4MDQgMjQuNzM0NCAyMi42OTEyIDI0LjczNDRDMjQuMTA0OCAyNC43MzQ0IDI1LjM0NjIgMjUuNjQ4NCAyNS43ODI0IDI2Ljk4MThMMjUuODUxMSAyNy4xOTJMMjUuOTE0NiAyNi45OTM3QzI2LjM0MzEgMjUuNjU1IDI3LjU4NDggMjQuNzM0NCAyOS4wMDEzIDI0LjczNDRDMzAuODA1NyAyNC43MzQ0IDMyLjI0MzQgMjYuMjA1NyAzMi4yNDM0IDI3Ljk4OTZWMjkuMTY5QzMyLjgwMzMgMjguNjYxMSAzMy41NDI1IDI4LjQyNjQgMzQuMzExOCAyOC41NzYyQzM0Ljg0NDggMjguNjggMzUuMjY5OCAyOC45NDQ2IDM1LjU4MjIgMjkuMjA4QzM2Ljk5NDkgMjcuOTMwNiAzNy45MTU2IDI2LjA1MDEgMzcuOTE1NiAyMy43MTgxQzM3LjkxNTYgMTkuNzM0MSAzNS4wNjgzIDE2LjY3MjUgMzEuNjQwNCAxNi4zNDg3QzMwLjI2NjMgMTMuNTA3MiAyNy43MTU2IDExLjU5NjEgMjQuMzA4OCAxMS41OTYxWiIgY2xpcC1ydWxlPSJldmVub2RkIiBmaWxsLXJ1bGU9ImV2ZW5vZGQiLz4mI3hhOzxwYXRoIGZpbGw9InVybCgjcGFpbnQyX3JhZGlhbF8yNjIyXzMwOTIpIiBkPSJNMzMuNzYyNyAzNi42ODdDMzMuMzY3MSAzNy4wODkzIDMyLjk3NjMgMzcuNzEzIDMzLjM3MTkgMzguMTE1M0MzMy43Njc0IDM4LjUxNzYgMzQuMjE2MyAzOC41NDU4IDM0LjYxMTggMzguMTQzNEwzNy42NDg4IDM1LjA1NDVDMzguMDQ0NCAzNC42NTIyIDM4LjA0NDQgMzQuMDAwNCAzNy42NDg4IDMzLjU5ODFMMzQuNjExOCAzMC41MDkyQzM0LjIxNjMgMzAuMTA2OSAzMy43NTE1IDI5LjkzOTQgMzMuMzU1OSAzMC4zNDE3QzMyLjg2MTIgMzAuNzI4IDMzLjU0OTkgMzEuNTYzMyAzMy45NDU1IDMxLjk2NTZMMzUuMDc5MyAzMy4zMTkyTDI4LjgzNTggMzMuMzI1NUwyOC44MzU0IDM0LjEyNjdDMjguODM1IDM0LjY3OTIgMjkuMjc5MyAzNS4xMjY5IDI5LjgyNzIgMzUuMTI2M0wzNS4xOTEgMzUuMTIwN0wzMy43NjI3IDM2LjY4N1oiLz4mI3hhOzxwYXRoIGZpbGw9InVybCgjcGFpbnQzX3JhZGlhbF8yNjIyXzMwOTIpIiBkPSJNMjEuMTUzMSAyOC4wMDE0QzIxLjE1MzEgMjcuMTQ0NyAyMS44NDE3IDI2LjQ1MDIgMjIuNjkxMSAyNi40NTAyQzIzLjM1NDkgMjYuNDUwMiAyMy45NDM3IDI2Ljg3OTYgMjQuMTUxNyAyNy41MTU0TDI1LjQxMzEgMzEuMzcxNEMyNS40ODMzIDMxLjU4MzcgMjUuNTY1OSAzMS44ODE0IDI1LjY2MDggMzIuMjY0NEMyNS43NTU4IDMyLjY0NzUgMjUuODE3NyAzMi45MDE1IDI1Ljg0NjYgMzMuMDI2NEMyNS44Nzk2IDMyLjkwMTUgMjUuOTQ1NyAzMi42NTE2IDI2LjA0NDcgMzIuMjc2OUMyNi4xNDc5IDMxLjg5ODEgMjYuMjM0NiAzMS42MDY2IDI2LjMwNDggMzEuNDAyNkwyNy41NDg1IDI3LjUxNjhDMjcuNzUyIDI2Ljg4MSAyOC4zMzg4IDI2LjQ1MDIgMjkuMDAxMiAyNi40NTAyQzI5Ljg0NDMgMjYuNDUwMiAzMC41Mjc3IDI3LjEzOTUgMzAuNTI3NyAyNy45ODk4VjMzLjMyMzhMMjguODM1OCAzMy4zMjU1TDI4LjgzNzMgMjkuOTE2M0MyOC44MzczIDI5LjQ2NjYgMjguODQ3NiAyOS4wNDE5IDI4Ljg2ODMgMjguNjQyMkMyOC44OTMgMjguMjQyNiAyOC44ODI5IDI4LjA4MzYgMjguOTA1NCAyOC4wMTE1QzI4LjkwMTMgMjguMDE1NiAyOC44NiAyOC4xNjE0IDI4Ljc4MTYgMjguNDQ4NkMyOC43NDAzIDI4LjU4NiAyOC42NTM2IDI4Ljg4MTYgMjguNTIxNSAyOS4zMzU1QzI4LjM5MzUgMjkuNzg5MyAyOC4yOTI0IDMwLjEyNDQgMjguMjE4MSAzMC4zNDA5TDI2LjgyIDM0LjUzOTJDMjYuNjc4NyAzNC45NjM3IDI2LjI4NDMgMzUuMjQ5NiAyNS44NDA0IDM1LjI0OTZDMjUuMzk2NSAzNS4yNDk2IDI1LjAwMjEgMzQuOTYzNyAyNC44NjA4IDM0LjUzOTJMMjMuNDYyNyAzMC4zNDA5QzIzLjM3NiAzMC4wODcgMjMuMjUyMiAyOS42ODk0IDIzLjA5MTIgMjkuMTQ4MUMyMi45MzQzIDI4LjYwMjcgMjIuODI0OSAyOC4yMjM4IDIyLjc2MyAyOC4wMTE1TDIyLjc3NTQgMjguMTkyNkMyMi43Nzk1IDI4LjI1OTIgMjIuNzkxOSAyOC40OTQ0IDIyLjgxMjUgMjguODk4M0MyMi44MzMyIDI5LjI5OCAyMi44NDM1IDI5LjYzNzMgMjIuODQzNSAyOS45MTYzVjM0LjM5NzJDMjIuODQzNSAzNC44NjggMjIuNDY1MSAzNS4yNDk2IDIxLjk5ODMgMzUuMjQ5NkMyMS41MzE1IDM1LjI0OTYgMjEuMTUzMSAzNC44NjggMjEuMTUzMSAzNC4zOTcyVjI4LjAwMTRaIi8+JiN4YTs8L2c+JiN4YTs8ZGVmcz4mI3hhOzxsaW5lYXJHcmFkaWVudCBncmFkaWVudFVuaXRzPSJ1c2VyU3BhY2VPblVzZSIgeTI9IjQ0LjI3OTIiIHgyPSI0MS41NjQ1IiB5MT0iNi44NDc3NSIgeDE9IjQuODUyODciIGlkPSJwYWludDBfbGluZWFyXzI2MjJfMzA5MiI+JiN4YTs8c3RvcCBzdG9wLWNvbG9yPSJ3aGl0ZSIvPiYjeGE7PHN0b3Agc3RvcC1jb2xvcj0iI0VBRUNFRSIgb2Zmc2V0PSIxIi8+JiN4YTs8L2xpbmVhckdyYWRpZW50PiYjeGE7PHJhZGlhbEdyYWRpZW50IGdyYWRpZW50VHJhbnNmb3JtPSJ0cmFuc2xhdGUoMTUuMTczOSAxNC40NTYpIHJvdGF0ZSgzNi4xOTQxKSBzY2FsZSgyMy4wOTA5IDQxLjU4NjIpIiBncmFkaWVudFVuaXRzPSJ1c2VyU3BhY2VPblVzZSIgcj0iMSIgY3k9IjAiIGN4PSIwIiBpZD0icGFpbnQxX3JhZGlhbF8yNjIyXzMwOTIiPiYjeGE7PHN0b3Agc3RvcC1jb2xvcj0iIzAxOTVGRiIvPiYjeGE7PHN0b3Agc3RvcC1jb2xvcj0iIzExNDdFOSIgb2Zmc2V0PSIxIi8+JiN4YTs8L3JhZGlhbEdyYWRpZW50PiYjeGE7PHJhZGlhbEdyYWRpZW50IGdyYWRpZW50VHJhbnNmb3JtPSJ0cmFuc2xhdGUoMjMuODI1NSAyOC4yNDg0KSByb3RhdGUoMzUuNTA3Nikgc2NhbGUoMTQuNDQ2MyAxNi41Nzg5KSIgZ3JhZGllbnRVbml0cz0idXNlclNwYWNlT25Vc2UiIHI9IjEiIGN5PSIwIiBjeD0iMCIgaWQ9InBhaW50Ml9yYWRpYWxfMjYyMl8zMDkyIj4mI3hhOzxzdG9wIHN0b3AtY29sb3I9IiMwMEJCRkYiLz4mI3hhOzxzdG9wIHN0b3AtY29sb3I9IiMwMDhCRkYiIG9mZnNldD0iMSIvPiYjeGE7PC9yYWRpYWxHcmFkaWVudD4mI3hhOzxyYWRpYWxHcmFkaWVudCBncmFkaWVudFRyYW5zZm9ybT0idHJhbnNsYXRlKDIzLjgyNTUgMjguMjQ4NCkgcm90YXRlKDM1LjUwNzYpIHNjYWxlKDE0LjQ0NjMgMTYuNTc4OSkiIGdyYWRpZW50VW5pdHM9InVzZXJTcGFjZU9uVXNlIiByPSIxIiBjeT0iMCIgY3g9IjAiIGlkPSJwYWludDNfcmFkaWFsXzI2MjJfMzA5MiI+JiN4YTs8c3RvcCBzdG9wLWNvbG9yPSIjMDBCQkZGIi8+JiN4YTs8c3RvcCBzdG9wLWNvbG9yPSIjMDA4QkZGIiBvZmZzZXQ9IjEiLz4mI3hhOzwvcmFkaWFsR3JhZGllbnQ+JiN4YTs8Y2xpcFBhdGggaWQ9ImNsaXAwXzI2MjJfMzA5MiI+JiN4YTs8cmVjdCB0cmFuc2Zvcm09InRyYW5zbGF0ZSgxMSAxMS41MzQ5KSIgZmlsbD0id2hpdGUiIGhlaWdodD0iMjciIHdpZHRoPSIyNyIvPiYjeGE7PC9jbGlwUGF0aD4mI3hhOzwvZGVmcz4mI3hhOzwvc3ZnPg==;points=[[0,0,0,0,0],[0,0.25,0,0,0],[0,0.5,0,0,0],[0,0.75,0,0,0],[0.25,0,0,0,0],[0.5,0,0,0,0],[0.75,0,0,0,0],[1,0,0,0,0],[1,0.25,0,0,0],[1,0.5,0,0,0],[1,0.75,0,0,0]];" parent="XKpZNVIdKXG_mrXCYP3_-38" vertex="1">
          <mxGeometry x="65.17" y="-4" width="34" height="34" as="geometry" />
        </mxCell>
        <mxCell id="XKpZNVIdKXG_mrXCYP3_-40" value="&lt;font color=&quot;#1d2d3e&quot; size=&quot;1&quot; face=&quot;arial&quot; style=&quot;&quot;&gt;&lt;b style=&quot;font-size: 14px;&quot;&gt;Event Mesh&lt;br&gt;&lt;/b&gt;&lt;/font&gt;" style="text;html=1;align=center;verticalAlign=top;resizable=1;points=[[0,0.5,0,0,0],[0.21,1,0,0,0],[0.5,1,0,0,0],[0.85,1,0,0,0],[1,0.5,0,0,0]];autosize=0;strokeColor=none;fillColor=none;fontSize=12;fontColor=default;fontFamily=Helvetica;fixedWidth=1;imageWidth=24;whiteSpace=wrap;labelBackgroundColor=none;" parent="XKpZNVIdKXG_mrXCYP3_-38" vertex="1">
          <mxGeometry x="30" y="20.631578947368418" width="98" height="19.368421052631575" as="geometry" />
        </mxCell>
        <mxCell id="PxIvWldZL5yW9Gs3x-Xw-8" value="" style="rounded=1;whiteSpace=wrap;html=1;strokeColor=#074D92;fillColor=none;" parent="XKpZNVIdKXG_mrXCYP3_-38" vertex="1">
          <mxGeometry x="-47" y="-11" width="240" height="154" as="geometry" />
        </mxCell>
      </root>
    </mxGraphModel>
  </diagram>
  <diagram name="FreightOrder" id="_s-z3oL13ufCo53Fi8t9">
    <mxGraphModel dx="1647" dy="985" grid="0" gridSize="10" guides="1" tooltips="1" connect="1" arrows="1" fold="1" page="1" pageScale="1" pageWidth="1169" pageHeight="827" math="0" shadow="0">
      <root>
        <mxCell id="J7kSFfG_ZM8IoIkOiP3u-0" />
        <mxCell id="J7kSFfG_ZM8IoIkOiP3u-1" parent="J7kSFfG_ZM8IoIkOiP3u-0" />
        <mxCell id="J7kSFfG_ZM8IoIkOiP3u-2" value="" style="rounded=1;whiteSpace=wrap;html=1;fontColor=#B3B3B3;strokeColor=#0A6ED1;" vertex="1" parent="J7kSFfG_ZM8IoIkOiP3u-1">
          <mxGeometry x="21" y="83" width="360" height="745" as="geometry" />
        </mxCell>
        <mxCell id="J7kSFfG_ZM8IoIkOiP3u-3" value="" style="shape=image;verticalLabelPosition=bottom;labelBackgroundColor=default;verticalAlign=top;aspect=fixed;imageAspect=0;image=data:image/png,iVBORw0KGgoAAAANSUhEUgAAAKcAAAANCAYAAADMkX5kAAAAAXNSR0IArs4c6QAAAIRlWElmTU0AKgAAAAgABQESAAMAAAABAAEAAAEaAAUAAAABAAAASgEbAAUAAAABAAAAUgEoAAMAAAABAAIAAIdpAAQAAAABAAAAWgAAAAAAAABIAAAAAQAAAEgAAAABAAOgAQADAAAAAQABAACgAgAEAAAAAQAAAKegAwAEAAAAAQAAAA0AAAAA/PNT5gAAAAlwSFlzAAALEwAACxMBAJqcGAAACl9JREFUaAXFlwmQVsUVRsOu7LJGBGdQUNlXlxDjCGWkgogaIhHUoAVqQLCiCMQVRbQMCQTRopSSEESRpViCYTMIsskuMYAaFkFAkR3ZBcWc8/Maen5+GChJ8lWdebf79eu+fe/tnpl8PzqhJpgPQD0oBKvgbwm7eKarDh2doBzMhCFwGIIuwmgNteD70MlzP3wG78BGCO+uwdaHAlAU+sE+iJWPRhu4HS6D72AljIXxcDrpTyuoD4vB8TsgC26FGqAvQ8H32h2gAZwPvWED2K/ygz7q6zJ4FWKdR+OvoM/b4UGIVYxGDri276fCbAiqjHEz1IUJMA1iGfcuUAs+hL/AFjgTtWOQcTSG5mw5DIPpoMrCfXAx+M69hX1j/teUxcw9oDCMDqt0xnDxdL6l7z2oDbEM/P0Qxhu49DF16JsSjQljfVpUFmlHMLlVoC1YAH3hWugFJjbWIBpHwDmOJmgb4Ilgwk+l3/DiAByEp6EgGIQ+oC/O435NXFh3BPYh8F3jqB8zVZweWt+NhfANZkrl+ek72QqXQ6wLaDwBvjceo6AEBFmUHiDf9YT0+X9LXzjc+qF/ecn4zILgV/x0n/2SCbJ5LgTj4cHwIP4v5B6+Af3q5qIGZACoL+Ep+D28C95iP4VnwIIMspiahQbPmvCTqJ1ufkLHcPAEWsi7waL8I9SBW2ABZMFmKJ7Y8ZrV6PNA6PMy0EeLbD540/8cBkMmNaTT4vQGNNhDwcDfAb8GfTmXMm7doglLYT8XtdNN99QcvDXSizB9rG3nN/6VbaDSUBU8bKeS874O1yUDvG1d70XwcBaB9tAKjsL/Xd4eFpbJNVnPg7eTegXuhpZgYA9BUCUMi1a5EYN0JbwN+yBdc+j4A6wH13wcOoO3Szb4jYVjkDw9I6EN6FOQyTApjvkdzAYD/jI8DDWgE6TLhOlbU/gC/G4jeDO1hkvgMDj3uZJ7DMXpzacP9fOY3AK+EWbB9DzGeojLJWO+52kcOsASWAeZVJ3O25IXK3g2Smy/nQRzQB86grnJpPx0enF42C+Dr2BR8uSRyq21UAbMqfE2XyXhIjDHm2ErGBfH5UBZmAEnqTY9btAimwfeirGKxg1snesKfrMURiT2ezwtrCBvxCngOG+0bAjytloDvmsPJeA5uB1crw+0hFgWq+OPgGu6sVgGOZOa0rka/HYo6L9rvADOZVJmwl7wMLSDMJfreCj91oSkaycdvhsL4RvHGEP798AvEttE5kBQ/GvdsSbL9YeAyfTwjAf7e0I8f3faJthEz4VdYDGc7gB05b37da0WEMt49IcuUBGyYCHozwSwKC2s1rAKnCOwDftJ0GeL7E3w3Xy4BpS5/BTsdw3HXgFLwP3Zb/29Ba5pO/Vr3VO0DNx8E1gLTvwoOIGDY1WmcSM42YdgAHeCxRicwcwlFwsqhHEtVEg6vubp3xlPg0Ey8KNgEsSaSMMEF4S2sAn+AQ/BhRCvQTMlCzgHqoG+Oq9JvBPug4NgAc6FvOSNa7EF9Lt0ho9MpIWvnD/MbeIeszODPqBvABSAW6ETnEqFedEYysNU6AcbwL8nG4ExzCS/Mcfm073EOkDjEXgFtkB8EGimitM49oXq8BlYSIuhHHSD9qBCHnxmsh1TEHpDbTBerr8PvBiMQUq+UE3BxVQhsMj8e9CE2n8JKJ22EHy/AQz8GvgIDFY98EZIl8U0C9aDp9zTUwI8BB/DYXAjw+BZWJ60eRzXIayrYHLScz7PG+AlWA2DID0xJsSgm5AF8C7kQHswqN5SI8H3ecnk63OgJLbxSJd9d4FzGjv3NgZMSBXIJAvCfXlJlIEW8DMIycU8rhpYP05aHuCp4EFR94M3XyY5r759B/szDThNnzm9GqyDVeBF4h47wzTwkF4PXmaZfKY7l6rRsjCLgHm5FIznw3A8F/lpKDfnYqXgIRgFFoMFcBsMBh3wvQViYi3ORbARXEBdDjVTVu4fJvRiyAKTfBQMaidYA2cq17oJKsCjMB4MtnN2gLchyEDeC649G14GE3QLNIHpMBp2QVxk2nGbZkoD+dkTeiRoH4R0mSBlUfYFY/wnUMatTco6+cc8uvTxG9C/X0JRSJf5qA9fwR5w/OLErsfT/WbSTjotnAJgvM5GFo7xVN6a+qrWwScp61h+K2PnVZy+rwQWppoIe1PWscvO2kjJ06wsQgNn8g2QeMoHQUuwsK4C3zcHdR18nLJO/DA4jgvOhzczMDzlW2ATrIAdcLbSx29hG/QD/cyCceBJrAoVwfd1oQ3sBv35FO6Ce8DiawbXg4Fx/+eBegPehFaQH4KGYyyFEHzfPQZ+G0uflIW1OWWd+FEWszOMPtF13PKQ/R1qwSOQA64V1vPpnN46Fot4a6XrBjrWgfuKpe/toCA0hXcgyL0PgDIwGyZDrAI0/HNCeei8uJQ+mw9VCJz7TOS4cAEcwA57zPWtAf4VfA46WwKCdmAYLOU4A2PFNwadcvPeOuIJ1mkDZnArQKy1NMbBWzALnPts1Y0P9NM5QiG5pnPNBOWG3XhNeAr028L8MyjbBlppO7YYGNgg+5Vzna38tmnykYdiK3hQtoO/Sl37Agi3BmYuOdabxL9BHZue7Ab0VQX1NTg+4D87qiOUTVm5f1jI5k29cOyR+uk+nfMB8Fa+CbyNY1lA3tTKubM1kPXiftROcM/OFxRs4xvi6jvrJRR1Dew4/r5Pyc17WsonLOc5CLxl6oJ/w1jVLuot0AJ0aDZ4C20EZVE+Dv6qqwPeYibmXMrbuyg0hzkwBvTJw6KfygIQA9wQvEFGgQdITYaVYOLDjXcU+164A4rAM+A/Wo6z70xlnJolg02uN7iHJ+hqjAVwIejvMMik+XQOh1pQOhpgov0t5r6M+z3gb6Sg/hgWZnXwO4vBvQX5d7n7twDNj74MBXPXFZQFPwSMT6wdNP4F7su6cJ19YC5agessho+gDSj9vxNuhrZQFZT7WAPmxO8cY54s/u5wUqE+T6fBzcR6+juAixm4g/AapOtuOtyEG+gB9WEKOOdgyIYfqmFM4PzO6cY8fcHntdhXgut6MOwfCx7AvNSLAXvB+dqBAVQjwF9hzuUhCP2YqeQb4LCOfcuS9pc20nQpbcd6e70PxeAJsG8cxEkpT7s/hD32xC4F7t/xA6ESxGpA49/g+z7g+HQVp2MeOCYd8/oiqGxYCMZjAljoVWAAGP847s4zFRqBehYs3DC/ezAu25O+LjxLwoOwOekLY13T8bZ7hxMyg4aFpBMm0xPvRsdAL/BdaagKH8Bo2ACxjtDYDy7oDbwJnG8LzIEVcAB+iAzUUtA/N7Eb/gmvgZvWpyvARE+CV0F/8lIJBuwBT76xCMXlnv1e342BN0tQPoyK4I1iwpdAw+TpuishlkW5Ez4H9+D4wmBM5oJ9JkXZtx22wafwPlgUZWAdvAH2x3Lu4rAGPGgm+hDEMm5DwYNsbvTpC5gG3eF1UNaFv6Wcy3zrq3tfBMbb4jReFt1LYFGvBmU8dkARMG7Wz0iwzzHG1xgsBufXJ9sD4UlwXfOw+j8XnNYbxkO7agAAAABJRU5ErkJggg==;" vertex="1" parent="J7kSFfG_ZM8IoIkOiP3u-1">
          <mxGeometry x="71.77000000000001" y="97.94" width="232" height="18.06" as="geometry" />
        </mxCell>
        <mxCell id="J7kSFfG_ZM8IoIkOiP3u-4" value="" style="rounded=1;whiteSpace=wrap;html=1;strokeColor=#0A6ED1;" vertex="1" parent="J7kSFfG_ZM8IoIkOiP3u-1">
          <mxGeometry x="475" y="80" width="529" height="740" as="geometry" />
        </mxCell>
        <mxCell id="J7kSFfG_ZM8IoIkOiP3u-5" value="" style="shape=image;verticalLabelPosition=bottom;labelBackgroundColor=default;verticalAlign=top;aspect=fixed;imageAspect=0;image=data:image/png,iVBORw0KGgoAAAANSUhEUgAAAQ4AAAAQCAYAAADnGpH6AAAAAXNSR0IArs4c6QAAAIRlWElmTU0AKgAAAAgABQESAAMAAAABAAEAAAEaAAUAAAABAAAASgEbAAUAAAABAAAAUgEoAAMAAAABAAIAAIdpAAQAAAABAAAAWgAAAAAAAABIAAAAAQAAAEgAAAABAAOgAQADAAAAAQABAACgAgAEAAAAAQAAAQ6gAwAEAAAAAQAAABAAAAAAfkjL+wAAAAlwSFlzAAALEwAACxMBAJqcGAAAEWNJREFUeAHtlwm4jmUaxyMUQlJJw5wjIlSkhZJQ2pv2labRaCbTMm1Tpm1iKGlfZ9pUU9NCi2gbUREphCxZspwTkp3QQkfN7/d57+n1zXc4RZdmLv/r+p33eZ/1fu77fp73O6W2WqtSPKrDcbAfbAuzoB+MgyLIVkMqmkJ5+ADGQlq1eGkO2yeV3yXPz3lOgmnwDUQ9xYxK87ct5EG6TRsXwlBYBmtgU2oXJtsTXP9DcK30+rz+LKQfasPhkMsHtitjNgXe82UjVImx7eBbGA1j4KeWMdgXmoDr9oEVsDllnrcE81JFbqymbD5PhS9Ae+23O5SBZ2E5lETu2zHG0Phlx1cbPJ/NwPVfho9hs0gjDwQ3rjEaK5Z1wlNQE9JyzD2wCuw3ErJ1NBUmru3Z6OxBoIO3hrTK8dIfssek37vTXjE9aBOUPRza5TongUH8OUp/nQFpf+Qqf00fY7SxqsMEMf8NGztZCcebAz2Sdf241C7huJ+y285M7kENX6SfnhMvj/bgwX8Y4mzov5LqYDrOB+e+BipAyLjfC55N19MvZ8NmkZv0gNwE9WAxeAn4qyAPGoMHqgg6gBtS9t0LDLDaH7xhp/mSUvQvoG5mUl+NZ304DFbCXJgBacW4JVSOhxXgryB/EdSAq2AU9INNpXlM9CaUhQWbatKfYB59swjcv8lTGfJhO/gS9JeJ5SUYPqf4oxWxcIJ0+UdP+AMHbo41izMxbPGXhedEP/sB83JoANdBAdgv+lIssRzjnLlknC8C+/iRHwSTYbPIi8OEaw0aNBTOAy8QL4eL4QAYDF4w3nbKi2IPMHGdw18gvwEdl0u9qewJruG4q+EE8GeXl0j2xUFVRhP52wl0lAG6HLqCcpy2NwUvsOkwG7RxX/BfJL+6/gvlgXK8l51fLy8HL0fHfATKS+9BcC8FYAC9DPOgCGaBPtgTXK8Q/JfGA6ps2w0aQSVYBhNAmyIZtMGfmTVAX+jnj+ETiD6u6U/08qDdjncey8p+78OZ4Bzu9XrYG+bAOaC9tjlGmxpCVVgOzjUT0tqZFz8SO4H+s30UKP0Rcs5fgj4wkRfBIFDuWf9WgALwo+A+dkzKI3jOg5DzNADXNo9s89JbAutTHRpjP8a3EBxnOeRezdFqScV8nmNAGx1rPulnY1cI+l/Z3/gZX/1uv1z6lMp2oH+rQ0foDM5ZE3KpLJXabjx2SDq4hrFcBfrD87ANKPu2AW23XZ8r4zMFeoPj1fagr2vA1uAY+0S7cd0DnLsQVkBTWAiegzxQ2lIf6oJxd//mS8Rcv3hOxsFWVUAHfgsmy2kQDjcAbiYtE+ZOcAPvgkliQs0EAxM6moI3om1dIBJQ4zuB9UvhFEhL4/qB7UPAjYT+REE7TbRjwEQdDh6+86E8qCdBx5nUeaBj/wgfgGt+AR6yt+ByUMeCCajNbUGZDM4zFh6FV8GkWQD6qjkoLw33MQAM1nL4BF4BA6rcl36bBAZLZsDr0BpUaxgIBt6kNLDafB9ETCiuo4N4Gwn6awKUAeV6xtL5tWUluGdtbAbKmDSCZ0AfapOXgfNdA6oOOLfozz5grBeDiXUJqIbg3JNBe3vBdFgG+uTvEGpJ4VkwCbXLy2IiPAD1wEPWA1xzNdQGdSq8AbEf/aOtXSByz1g/De7HtY23Nj0O5pW2e2j0vXG9FEIXUxgN9t83KpOnF1x/0CbbI9cobnUUhI/aU34Ivk7q9N+OcCXov0IwP7RtPHQB1QH0UxE4l3vTf/rpXigE678F/TUOXFd/3Q/6z3rndu/64GBQh8JQMF5/A+Nt+VbQLsvmeRcYDq5tfPX1VdAXtG0eOE9jyNxQBkyjPJCF4AbvgJMh7SBeM053cvt3hntgDayGIyB0NAUdbL9bYCfQgU3hFbBex7SFtMrxYoBt/wyeh4fhOTBhDIhrVoZmsADsey1UBPUOWFcAdaEV6BjrXLsH9Afn6gbqLFgF9jkR1O3gu/tbDh5onWfwrHce1QRMSOsK4Un4CHw3sd3TfqB/V8ALYNDeA+tagQq/GiTbnwAvqt5QDXKpBZWu4VoTwEOn6oD+sn4aOFch+K5tysMwDNyP+3oJnMP9fgktIR8cI8bYfiaVfaybA2ofcB3rPKwmsQkZvnIf9WEvMAbuW188A+ab44zHg1ABekCsmU85D5zDurnQByYm7yt5XgJlwH1Gn5sp9wT9oB0e1rdgWzDW7sFYVQJjNADs5/zZ0lfmjHN7MGvBjlAb7gTrtf8UeCgpW2ccdgd98QUYY/38GbiWtu8CjhsD2uW4GWAe3wtd4X2wXpvNj9fgOHgMXNe2l8G5V4Cx8hzp8+PB9exjXIpgFuif28B60T8zwfG+a4v99YcfFNe23jEZ/ZK/vtgYk5g4DtBgF1eloR3oAJPjMGgCGuKkBiGUvjgWUuklMgk0LDb6D8o1IK1yvMTFoWNNMJ1gWdu06Q+wNTSHBWD9tRAXx5CkroCnF8cpEM64nXIeGKxWYEKosyCCdmKm5vuLw/oXYU/oAB+Da5q86lXwfSocASbUeeChsl7/XpiUDUS3pC6PZ2sIu/Wr/T8C96ZtB0IdcL+51ILKkeC4CeDFoQ97Qcx1KmVt0rbw126UTWj7yN1QA2rBNOgLR0E+RB+TsiXUg9lJvYmv0hfHGN6PBfc9HhzvZXMydICI/0WUY01tt98MsF+P5N3Ya1Ov5H05z6vB+B0MwyDGVU3K5soAqAL20277TAdtLwV3gHX62lxtCOPAOtuyZSz6g+2rYAqYz+bCMrB+OOwND0Hs0diVh5OgHdQGffU4RLwPp2wOuO+IT0/K2uq61eAAiLUfoey+joOpSf0bPI1xPtwE9tVXrns8xMXhmr8Dz3QehB/sfx2YExeA70XwGviBPhuMjfUDy/BHeftcBbdAGzgTjoQaCYN5NgL7m6gVwIBpxFwogLrgAm5oHqTlhiSkQU9AF3BDxcmg3gvOVxPOB79Yt4EJOwVKohV0MrjbwSVwMTj2BRgBG9LXdHgXJkI5MLg6OA6zyaKqQ2dYDSZCJVANwPGqKlwN2uFheRq8nJW+1I/2HwLueyDcCGugpCpLR5NU7QD67Tww6PpAtYfJmdLaj4D+iFgYaw+f5ENoLIVh4DzfRGWOpza7X33eD4xZKdgG9ItPffQhxJrmn0m6K7SEryDk3k9JXpbwvAts/xzM3RbgJZVWaV48ONoavptGOS68PpQvgzyoB/uDh9x99YD1yRyon9XB/f4ZxoN7TUtb9Z3reSF4riJ3KGb84VmaD2Gre5sDX4Iqv/aR2Y/5bG7kQ1VQz8CihME8O4P5VxucJ/QwBVGe47StfXnXR/pM6YtJMALsF7aULZNUVObpAgayd8LOPDWmDewER4C3m+/Kd0nLTVjnpZCWB1RMxOkwA0yqDWkpHYbC5KTjIzx1qBu+An4LG5IbfgPOh+7QANy3ySwnwCGwPunIcKb90mXfPahKP7bMlNb+cb9SCwaBNvwF9K17OChhT54XgheQPj8GtNtxHeFUOAA+hpLKg6Ncq1WmtPaP9hSBe3ANtRq8HEP2WQPpPrb5LhuS46Of8+RS9lxeXKGwK959Rp1zexCV+4j5bfe9PTwFrWAcmPzGeRV0g9hnAeVR4IXRDPSTl5qHxI/S+jSXxmvAOWclpA8nVeuoEW+vQD7MB8/YtnAkuObGKPyStln/eMHuCF5Q0YdixmafuaRvVcRu7dvav+vUmVwm5EjoA8eDh99N6eAxoBzkYasHHjxvx5nggZZJYIC2h19BtiZS8SzosNFQkkuDbplN+4XUuc69G4QT1tkI9ZWhCpgAlSBkv/IwFtrCvtABpoOy/x6QPZ9tJdX8pOOHPJ2rHOjDfNgVHgF9PRD0335wKegX1QnsXx3Og3w4CfqCh9p9VYPYO8X1ygQwJso1wybtyofdoTuE3X4YaoNJph13wVlQEyKZKG609HFcSNqi711TOoLya1qQKX3/x33HxWI+tAH9qd3mhfKD4vyDYS6Yj/Y1F94C92PuRZyXUu6VvJ/A82BQPcELYX3yl4zn5VkYDnOgOGn72ZAPU+H34F4HQ651wr4KtJcBfVOcvBziImxL2bXKQT3w0jB2i8Ac2qTSsG1AB5vg98FL4AZ/AWeBxsyG6XARqDfhBgiHafxQaAIavReEAyhm5DzZdUlTsQ9t0ukmuBfaEaC9JoXJoCyro8D9eDAbQ8i6Q6ETDINRMAOmQV3QqSbdxuhRBt8BHshr4EXwIjsTDJ5+PA702f3gZTsOCsCv0QJwX71hDBiDZTATvgKTwX2W1H/uqTs8B4fAdfA8OM85UAeagvPPg13gQDgd8uDXcCH4q85xm0rfMpFr6n997/zbgvu6Gmz3p77+uwBCZSh0hVfBC/SvcCccAM1A9Qd9dDGYNx+B+ze2c8ELyfh4obqOfY3DZ2B/9Ql4udi+IZnPJVXMb06Yi3tDe9gelJeEWgXaWwPM9VnguRsMufQeldPA/mfA++BZ7AhKX7pHL+ifROcyqw4rAoOYxsXbQST4asomYllI6zJeHLcELB8FU8E6A10aSiKT+2VI25Auz6HtMdBZ+WCSrYHoozN1uO8mgnbrVB1sv8VgItmurbeAe3GPJpP1J4G6A3w36a4A1RTeBetd232Z/E+Ch916fWTy+dSvleAmmA22e1EsBO3Rxg6wKxh46xz3KXwFX0JfqA651ILKD8B5PSwRF5PyEVgEYZNP5x8FJmt56AQzwbbA/caFUSdVfwPlUCEF+2uf0i8zwLqeUAWUsbdO35wO+sp8mwTWpxnOu7FyDzcnbdq7G3h5eOlG7GLcSurMl1qgHoZoSz/tNwyOhZA+fQCin7lQORqznvZ9BexrXuu/4qTfjaF968LJEHGwzstqKOg737uCqgkPQYy17TUoB7b5bo7eBaHTKOg328S8k4nQEYzxCTAfbHePIffgXDG2YdIQMV/F++1JXXOe5pd93zEY6p8wGQ4Cg+SEX4BJPQI8KHmgk02qN8ANpNWbF5NVo6eByXgfVIMh4IIlkYnyNIyF9BidbPA9UDrdC0D7u4N9q4IBGQT7gPYuBevmgP0bgwEwEMtB5xoY9zIBusHWoC/UAHC/OtALSTlfL3gTwpG2XwGuXR9MPu0tBC8D5+iRlLVhZygF2uShHwh+KS6EZqDtFeErKIDXYSHk0mwqTTb3ZXLof+VB7QxvgwlRBZyvEN4D7VPGfhZ48LVLO6bAy6CWwI1QBMYxZMIZ78iDzyjfAzvAMNAnyvWV6+kv538OzK1msAvoC9+N60gwBvrSOdyPcXT9y8H59oJqYI5OB/sa4z0SXOspsN2Lyn21gRZwPbwKynn1r3LMa2CscsncMy9Hg7GIfVP8L/Wnxv2UBf1nfC+FBuB+PgTbW4O5MgbUPNCH+qk62HcCeCaWQ3fwUhkFoRcpmAMHQm34DuaCfTy7xnwq3AqupY9D7uFf4NzKfSn90g1cy3go/Xs/aFchrCM3akAMps8yELJcHgyEgc0l28WDaR/7+u68P0SOj7niWdwcpejrRWcSO05tA45zfdtDttvPvW0XlclTe2Ot2J9rRl34ojR1MX+sl0yR+fXhvM5vkOybLcfuAPZx7rR9vGbeK/G03cMe61LMqbQ97jdbzl8Rwqbs9aK/Y7VLu9N9LOtfbU3HIGJrvdKOqLNfzJH2YfjV/ip84brZbelxMVdmEH9c0/3op/Q4L3QPzmI4G9yLcx8Ck8C218HkfxDuhvFg/fNQC4qTNkRe5vJzelz0S8dX/5gbxsK5JPylH9Iy5vbV7+Fz+zufRB3F/0g/uFfJns+2WCt7bC4/51orHd/s+Zl+i7Z44H/XA+diupeAX+jZMByGwBTw14tf8iZwJdjHXxl+1RfAGZC+hHjdouI84M2yRVs88P/iAb+KjeE0qAleIsqf4CNgACyHTtAW/Dp/Ak/B2+BlskUl8MC/AS4va5Xu1smTAAAAAElFTkSuQmCC;" vertex="1" parent="J7kSFfG_ZM8IoIkOiP3u-1">
          <mxGeometry x="582" y="94" width="337.5" height="20" as="geometry" />
        </mxCell>
        <mxCell id="J7kSFfG_ZM8IoIkOiP3u-6" style="edgeStyle=orthogonalEdgeStyle;rounded=0;orthogonalLoop=1;jettySize=auto;html=1;strokeColor=#595959;" edge="1" parent="J7kSFfG_ZM8IoIkOiP3u-1" source="J7kSFfG_ZM8IoIkOiP3u-9" target="J7kSFfG_ZM8IoIkOiP3u-10">
          <mxGeometry relative="1" as="geometry">
            <Array as="points">
              <mxPoint x="181" y="311" />
              <mxPoint x="181" y="311" />
            </Array>
          </mxGeometry>
        </mxCell>
        <mxCell id="J7kSFfG_ZM8IoIkOiP3u-9" value="&lt;font face=&quot;Arial&quot; color=&quot;#595959&quot;&gt;SalesOrder&lt;/font&gt;" style="shape=document;whiteSpace=wrap;html=1;boundedLbl=1;strokeColor=#074D92;" vertex="1" parent="J7kSFfG_ZM8IoIkOiP3u-1">
          <mxGeometry x="121" y="185" width="120" height="80" as="geometry" />
        </mxCell>
        <mxCell id="iV5j2CM3sd-YC19MhuGI-1" style="edgeStyle=orthogonalEdgeStyle;rounded=0;orthogonalLoop=1;jettySize=auto;html=1;strokeColor=#595959;" edge="1" parent="J7kSFfG_ZM8IoIkOiP3u-1" source="J7kSFfG_ZM8IoIkOiP3u-10" target="iV5j2CM3sd-YC19MhuGI-0">
          <mxGeometry relative="1" as="geometry">
            <Array as="points">
              <mxPoint x="181" y="458" />
              <mxPoint x="181" y="458" />
            </Array>
          </mxGeometry>
        </mxCell>
        <mxCell id="J7kSFfG_ZM8IoIkOiP3u-10" value="&lt;font face=&quot;Arial&quot; color=&quot;#595959&quot;&gt;OutboundDelivery&lt;/font&gt;" style="shape=document;whiteSpace=wrap;html=1;boundedLbl=1;strokeColor=#074D92;" vertex="1" parent="J7kSFfG_ZM8IoIkOiP3u-1">
          <mxGeometry x="121" y="360" width="120" height="80" as="geometry" />
        </mxCell>
        <mxCell id="iV5j2CM3sd-YC19MhuGI-12" style="edgeStyle=orthogonalEdgeStyle;rounded=0;orthogonalLoop=1;jettySize=auto;html=1;entryX=0.5;entryY=0;entryDx=0;entryDy=0;strokeColor=#595959;" edge="1" parent="J7kSFfG_ZM8IoIkOiP3u-1" source="J7kSFfG_ZM8IoIkOiP3u-11" target="J7kSFfG_ZM8IoIkOiP3u-18">
          <mxGeometry relative="1" as="geometry" />
        </mxCell>
        <mxCell id="J7kSFfG_ZM8IoIkOiP3u-11" value="&lt;font face=&quot;Arial&quot; color=&quot;#595959&quot;&gt;Event Q&lt;/font&gt;" style="strokeWidth=2;html=1;shape=mxgraph.flowchart.stored_data;whiteSpace=wrap;strokeColor=#053B70;" vertex="1" parent="J7kSFfG_ZM8IoIkOiP3u-1">
          <mxGeometry x="572" y="195" width="100" height="60" as="geometry" />
        </mxCell>
        <mxCell id="J7kSFfG_ZM8IoIkOiP3u-35" value="&lt;h1 style=&quot;margin-top: 0px;&quot;&gt;S/4HANA Cloud Transportation Order AttachMgmnt&lt;/h1&gt;" style="text;html=1;whiteSpace=wrap;overflow=hidden;rounded=0;align=center;" vertex="1" parent="J7kSFfG_ZM8IoIkOiP3u-1">
          <mxGeometry x="380" y="3" width="415" height="120" as="geometry" />
        </mxCell>
        <mxCell id="J7kSFfG_ZM8IoIkOiP3u-39" value="" style="group" vertex="1" connectable="0" parent="J7kSFfG_ZM8IoIkOiP3u-1">
          <mxGeometry x="550" y="130" width="175" height="110" as="geometry" />
        </mxCell>
        <mxCell id="J7kSFfG_ZM8IoIkOiP3u-40" value="" style="shape=image;verticalLabelPosition=bottom;verticalAlign=top;imageAspect=0;aspect=fixed;image=data:image/svg+xml,PHN2ZyB4bWxucz0iaHR0cDovL3d3dy53My5vcmcvMjAwMC9zdmciIGZpbGw9Im5vbmUiIHZpZXdCb3g9IjAgMCA0OSA0OSIgaGVpZ2h0PSI0OSIgd2lkdGg9IjQ5Ij4mI3hhOzxjaXJjbGUgc3Ryb2tlLXdpZHRoPSIwLjg1NzE0MyIgc3Ryb2tlPSIjRDVEQUREIiBmaWxsPSJ1cmwoI3BhaW50MF9saW5lYXJfMjYyMl8zMDkyKSIgcj0iMjMuNTcxNCIgY3k9IjI0LjAzNDkiIGN4PSIyNC41Ii8+JiN4YTs8ZyBjbGlwLXBhdGg9InVybCgjY2xpcDBfMjYyMl8zMDkyKSI+JiN4YTs8cGF0aCBmaWxsPSJ1cmwoI3BhaW50MV9yYWRpYWxfMjYyMl8zMDkyKSIgZD0iTTI0LjMwODggMTEuNTk2MUMyMC4wMjY0IDExLjU5NjEgMTYuOTgzNyAxNS4wODIxIDE2LjQ3NjggMTguNzIxNEMxNS4wOTkyIDE4LjgwMzQgMTMuODgyOSAxOS4zMjExIDEyLjkzODEgMjAuMTkwN0MxMS42NjAxIDIxLjM2NzEgMTEgMjMuMDc0NiAxMSAyNC44NzUzQzExIDI2LjU0ODcgMTEuNTA3NiAyOC4xMzA0IDEyLjY0NzMgMjkuMjk5OUMxMy43OTQ2IDMwLjQ3NzMgMTUuNDIzNCAzMS4wNzM3IDE3LjM0MTMgMzEuMDczN0gxOS40Mzc1VjI4LjAwMTNDMTkuNDM3NSAyNi4yMTA5IDIwLjg4MDQgMjQuNzM0NCAyMi42OTEyIDI0LjczNDRDMjQuMTA0OCAyNC43MzQ0IDI1LjM0NjIgMjUuNjQ4NCAyNS43ODI0IDI2Ljk4MThMMjUuODUxMSAyNy4xOTJMMjUuOTE0NiAyNi45OTM3QzI2LjM0MzEgMjUuNjU1IDI3LjU4NDggMjQuNzM0NCAyOS4wMDEzIDI0LjczNDRDMzAuODA1NyAyNC43MzQ0IDMyLjI0MzQgMjYuMjA1NyAzMi4yNDM0IDI3Ljk4OTZWMjkuMTY5QzMyLjgwMzMgMjguNjYxMSAzMy41NDI1IDI4LjQyNjQgMzQuMzExOCAyOC41NzYyQzM0Ljg0NDggMjguNjggMzUuMjY5OCAyOC45NDQ2IDM1LjU4MjIgMjkuMjA4QzM2Ljk5NDkgMjcuOTMwNiAzNy45MTU2IDI2LjA1MDEgMzcuOTE1NiAyMy43MTgxQzM3LjkxNTYgMTkuNzM0MSAzNS4wNjgzIDE2LjY3MjUgMzEuNjQwNCAxNi4zNDg3QzMwLjI2NjMgMTMuNTA3MiAyNy43MTU2IDExLjU5NjEgMjQuMzA4OCAxMS41OTYxWiIgY2xpcC1ydWxlPSJldmVub2RkIiBmaWxsLXJ1bGU9ImV2ZW5vZGQiLz4mI3hhOzxwYXRoIGZpbGw9InVybCgjcGFpbnQyX3JhZGlhbF8yNjIyXzMwOTIpIiBkPSJNMzMuNzYyNyAzNi42ODdDMzMuMzY3MSAzNy4wODkzIDMyLjk3NjMgMzcuNzEzIDMzLjM3MTkgMzguMTE1M0MzMy43Njc0IDM4LjUxNzYgMzQuMjE2MyAzOC41NDU4IDM0LjYxMTggMzguMTQzNEwzNy42NDg4IDM1LjA1NDVDMzguMDQ0NCAzNC42NTIyIDM4LjA0NDQgMzQuMDAwNCAzNy42NDg4IDMzLjU5ODFMMzQuNjExOCAzMC41MDkyQzM0LjIxNjMgMzAuMTA2OSAzMy43NTE1IDI5LjkzOTQgMzMuMzU1OSAzMC4zNDE3QzMyLjg2MTIgMzAuNzI4IDMzLjU0OTkgMzEuNTYzMyAzMy45NDU1IDMxLjk2NTZMMzUuMDc5MyAzMy4zMTkyTDI4LjgzNTggMzMuMzI1NUwyOC44MzU0IDM0LjEyNjdDMjguODM1IDM0LjY3OTIgMjkuMjc5MyAzNS4xMjY5IDI5LjgyNzIgMzUuMTI2M0wzNS4xOTEgMzUuMTIwN0wzMy43NjI3IDM2LjY4N1oiLz4mI3hhOzxwYXRoIGZpbGw9InVybCgjcGFpbnQzX3JhZGlhbF8yNjIyXzMwOTIpIiBkPSJNMjEuMTUzMSAyOC4wMDE0QzIxLjE1MzEgMjcuMTQ0NyAyMS44NDE3IDI2LjQ1MDIgMjIuNjkxMSAyNi40NTAyQzIzLjM1NDkgMjYuNDUwMiAyMy45NDM3IDI2Ljg3OTYgMjQuMTUxNyAyNy41MTU0TDI1LjQxMzEgMzEuMzcxNEMyNS40ODMzIDMxLjU4MzcgMjUuNTY1OSAzMS44ODE0IDI1LjY2MDggMzIuMjY0NEMyNS43NTU4IDMyLjY0NzUgMjUuODE3NyAzMi45MDE1IDI1Ljg0NjYgMzMuMDI2NEMyNS44Nzk2IDMyLjkwMTUgMjUuOTQ1NyAzMi42NTE2IDI2LjA0NDcgMzIuMjc2OUMyNi4xNDc5IDMxLjg5ODEgMjYuMjM0NiAzMS42MDY2IDI2LjMwNDggMzEuNDAyNkwyNy41NDg1IDI3LjUxNjhDMjcuNzUyIDI2Ljg4MSAyOC4zMzg4IDI2LjQ1MDIgMjkuMDAxMiAyNi40NTAyQzI5Ljg0NDMgMjYuNDUwMiAzMC41Mjc3IDI3LjEzOTUgMzAuNTI3NyAyNy45ODk4VjMzLjMyMzhMMjguODM1OCAzMy4zMjU1TDI4LjgzNzMgMjkuOTE2M0MyOC44MzczIDI5LjQ2NjYgMjguODQ3NiAyOS4wNDE5IDI4Ljg2ODMgMjguNjQyMkMyOC44OTMgMjguMjQyNiAyOC44ODI5IDI4LjA4MzYgMjguOTA1NCAyOC4wMTE1QzI4LjkwMTMgMjguMDE1NiAyOC44NiAyOC4xNjE0IDI4Ljc4MTYgMjguNDQ4NkMyOC43NDAzIDI4LjU4NiAyOC42NTM2IDI4Ljg4MTYgMjguNTIxNSAyOS4zMzU1QzI4LjM5MzUgMjkuNzg5MyAyOC4yOTI0IDMwLjEyNDQgMjguMjE4MSAzMC4zNDA5TDI2LjgyIDM0LjUzOTJDMjYuNjc4NyAzNC45NjM3IDI2LjI4NDMgMzUuMjQ5NiAyNS44NDA0IDM1LjI0OTZDMjUuMzk2NSAzNS4yNDk2IDI1LjAwMjEgMzQuOTYzNyAyNC44NjA4IDM0LjUzOTJMMjMuNDYyNyAzMC4zNDA5QzIzLjM3NiAzMC4wODcgMjMuMjUyMiAyOS42ODk0IDIzLjA5MTIgMjkuMTQ4MUMyMi45MzQzIDI4LjYwMjcgMjIuODI0OSAyOC4yMjM4IDIyLjc2MyAyOC4wMTE1TDIyLjc3NTQgMjguMTkyNkMyMi43Nzk1IDI4LjI1OTIgMjIuNzkxOSAyOC40OTQ0IDIyLjgxMjUgMjguODk4M0MyMi44MzMyIDI5LjI5OCAyMi44NDM1IDI5LjYzNzMgMjIuODQzNSAyOS45MTYzVjM0LjM5NzJDMjIuODQzNSAzNC44NjggMjIuNDY1MSAzNS4yNDk2IDIxLjk5ODMgMzUuMjQ5NkMyMS41MzE1IDM1LjI0OTYgMjEuMTUzMSAzNC44NjggMjEuMTUzMSAzNC4zOTcyVjI4LjAwMTRaIi8+JiN4YTs8L2c+JiN4YTs8ZGVmcz4mI3hhOzxsaW5lYXJHcmFkaWVudCBncmFkaWVudFVuaXRzPSJ1c2VyU3BhY2VPblVzZSIgeTI9IjQ0LjI3OTIiIHgyPSI0MS41NjQ1IiB5MT0iNi44NDc3NSIgeDE9IjQuODUyODciIGlkPSJwYWludDBfbGluZWFyXzI2MjJfMzA5MiI+JiN4YTs8c3RvcCBzdG9wLWNvbG9yPSJ3aGl0ZSIvPiYjeGE7PHN0b3Agc3RvcC1jb2xvcj0iI0VBRUNFRSIgb2Zmc2V0PSIxIi8+JiN4YTs8L2xpbmVhckdyYWRpZW50PiYjeGE7PHJhZGlhbEdyYWRpZW50IGdyYWRpZW50VHJhbnNmb3JtPSJ0cmFuc2xhdGUoMTUuMTczOSAxNC40NTYpIHJvdGF0ZSgzNi4xOTQxKSBzY2FsZSgyMy4wOTA5IDQxLjU4NjIpIiBncmFkaWVudFVuaXRzPSJ1c2VyU3BhY2VPblVzZSIgcj0iMSIgY3k9IjAiIGN4PSIwIiBpZD0icGFpbnQxX3JhZGlhbF8yNjIyXzMwOTIiPiYjeGE7PHN0b3Agc3RvcC1jb2xvcj0iIzAxOTVGRiIvPiYjeGE7PHN0b3Agc3RvcC1jb2xvcj0iIzExNDdFOSIgb2Zmc2V0PSIxIi8+JiN4YTs8L3JhZGlhbEdyYWRpZW50PiYjeGE7PHJhZGlhbEdyYWRpZW50IGdyYWRpZW50VHJhbnNmb3JtPSJ0cmFuc2xhdGUoMjMuODI1NSAyOC4yNDg0KSByb3RhdGUoMzUuNTA3Nikgc2NhbGUoMTQuNDQ2MyAxNi41Nzg5KSIgZ3JhZGllbnRVbml0cz0idXNlclNwYWNlT25Vc2UiIHI9IjEiIGN5PSIwIiBjeD0iMCIgaWQ9InBhaW50Ml9yYWRpYWxfMjYyMl8zMDkyIj4mI3hhOzxzdG9wIHN0b3AtY29sb3I9IiMwMEJCRkYiLz4mI3hhOzxzdG9wIHN0b3AtY29sb3I9IiMwMDhCRkYiIG9mZnNldD0iMSIvPiYjeGE7PC9yYWRpYWxHcmFkaWVudD4mI3hhOzxyYWRpYWxHcmFkaWVudCBncmFkaWVudFRyYW5zZm9ybT0idHJhbnNsYXRlKDIzLjgyNTUgMjguMjQ4NCkgcm90YXRlKDM1LjUwNzYpIHNjYWxlKDE0LjQ0NjMgMTYuNTc4OSkiIGdyYWRpZW50VW5pdHM9InVzZXJTcGFjZU9uVXNlIiByPSIxIiBjeT0iMCIgY3g9IjAiIGlkPSJwYWludDNfcmFkaWFsXzI2MjJfMzA5MiI+JiN4YTs8c3RvcCBzdG9wLWNvbG9yPSIjMDBCQkZGIi8+JiN4YTs8c3RvcCBzdG9wLWNvbG9yPSIjMDA4QkZGIiBvZmZzZXQ9IjEiLz4mI3hhOzwvcmFkaWFsR3JhZGllbnQ+JiN4YTs8Y2xpcFBhdGggaWQ9ImNsaXAwXzI2MjJfMzA5MiI+JiN4YTs8cmVjdCB0cmFuc2Zvcm09InRyYW5zbGF0ZSgxMSAxMS41MzQ5KSIgZmlsbD0id2hpdGUiIGhlaWdodD0iMjciIHdpZHRoPSIyNyIvPiYjeGE7PC9jbGlwUGF0aD4mI3hhOzwvZGVmcz4mI3hhOzwvc3ZnPg==;points=[[0,0,0,0,0],[0,0.25,0,0,0],[0,0.5,0,0,0],[0,0.75,0,0,0],[0.25,0,0,0,0],[0.5,0,0,0,0],[0.75,0,0,0,0],[1,0,0,0,0],[1,0.25,0,0,0],[1,0.5,0,0,0],[1,0.75,0,0,0]];" vertex="1" parent="J7kSFfG_ZM8IoIkOiP3u-39">
          <mxGeometry x="56.46" y="-2.93" width="33.54" height="33.54" as="geometry" />
        </mxCell>
        <mxCell id="J7kSFfG_ZM8IoIkOiP3u-41" value="&lt;font color=&quot;#1d2d3e&quot; size=&quot;1&quot; face=&quot;arial&quot; style=&quot;&quot;&gt;&lt;b style=&quot;font-size: 14px;&quot;&gt;Event Mesh&lt;br&gt;&lt;/b&gt;&lt;/font&gt;" style="text;html=1;align=center;verticalAlign=top;resizable=1;points=[[0,0.5,0,0,0],[0.21,1,0,0,0],[0.5,1,0,0,0],[0.85,1,0,0,0],[1,0.5,0,0,0]];autosize=0;strokeColor=none;fillColor=none;fontSize=12;fontColor=default;fontFamily=Helvetica;fixedWidth=1;imageWidth=24;whiteSpace=wrap;labelBackgroundColor=none;" vertex="1" parent="J7kSFfG_ZM8IoIkOiP3u-39">
          <mxGeometry x="24.990099009900995" y="15.129824561403508" width="84.90099009900993" height="14.203508771929824" as="geometry" />
        </mxCell>
        <mxCell id="iV5j2CM3sd-YC19MhuGI-3" style="edgeStyle=orthogonalEdgeStyle;rounded=0;orthogonalLoop=1;jettySize=auto;html=1;entryX=0;entryY=0.5;entryDx=0;entryDy=0;strokeColor=#0F828F;entryPerimeter=0;" edge="1" parent="J7kSFfG_ZM8IoIkOiP3u-1" source="iV5j2CM3sd-YC19MhuGI-0" target="J7kSFfG_ZM8IoIkOiP3u-11">
          <mxGeometry relative="1" as="geometry" />
        </mxCell>
        <mxCell id="iV5j2CM3sd-YC19MhuGI-26" value="&lt;font color=&quot;#595959&quot; face=&quot;Arial&quot;&gt;CreatedEvent&lt;/font&gt;" style="edgeLabel;html=1;align=center;verticalAlign=middle;resizable=0;points=[];" vertex="1" connectable="0" parent="iV5j2CM3sd-YC19MhuGI-3">
          <mxGeometry x="0.0115" y="1" relative="1" as="geometry">
            <mxPoint as="offset" />
          </mxGeometry>
        </mxCell>
        <mxCell id="iV5j2CM3sd-YC19MhuGI-0" value="&lt;font face=&quot;Arial&quot; color=&quot;#595959&quot;&gt;TransportationOrder&lt;/font&gt;" style="shape=document;whiteSpace=wrap;html=1;boundedLbl=1;strokeColor=#074D92;" vertex="1" parent="J7kSFfG_ZM8IoIkOiP3u-1">
          <mxGeometry x="121" y="498" width="120" height="80" as="geometry" />
        </mxCell>
        <mxCell id="iV5j2CM3sd-YC19MhuGI-6" value="" style="group" vertex="1" connectable="0" parent="J7kSFfG_ZM8IoIkOiP3u-1">
          <mxGeometry x="670" y="334" width="119" height="490" as="geometry" />
        </mxCell>
        <mxCell id="iV5j2CM3sd-YC19MhuGI-9" value="&lt;font face=&quot;Arial&quot; color=&quot;#595959&quot;&gt;Backend Servcei&lt;/font&gt;" style="rounded=1;whiteSpace=wrap;html=1;absoluteArcSize=1;arcSize=14;strokeWidth=2;strokeColor=#053B70;verticalAlign=top;fillColor=none;" vertex="1" parent="iV5j2CM3sd-YC19MhuGI-6">
          <mxGeometry x="-150" y="98" width="224" height="213" as="geometry" />
        </mxCell>
        <mxCell id="J7kSFfG_ZM8IoIkOiP3u-18" value="&lt;font face=&quot;Arial&quot; color=&quot;#595959&quot;&gt;EventConsumption&lt;/font&gt;" style="rounded=1;whiteSpace=wrap;html=1;absoluteArcSize=1;arcSize=14;strokeWidth=2;strokeColor=#0F828F;" vertex="1" parent="iV5j2CM3sd-YC19MhuGI-6">
          <mxGeometry x="-106.5" y="138" width="113" height="35" as="geometry" />
        </mxCell>
        <mxCell id="iV5j2CM3sd-YC19MhuGI-28" style="edgeStyle=orthogonalEdgeStyle;rounded=0;orthogonalLoop=1;jettySize=auto;html=1;exitX=0.5;exitY=1;exitDx=0;exitDy=0;entryX=0.5;entryY=0;entryDx=0;entryDy=0;fontColor=#595959;" edge="1" parent="iV5j2CM3sd-YC19MhuGI-6" source="iV5j2CM3sd-YC19MhuGI-5" target="iV5j2CM3sd-YC19MhuGI-27">
          <mxGeometry relative="1" as="geometry">
            <Array as="points">
              <mxPoint x="-50" y="247" />
              <mxPoint x="-50" y="247" />
            </Array>
          </mxGeometry>
        </mxCell>
        <mxCell id="iV5j2CM3sd-YC19MhuGI-5" value="&lt;font face=&quot;Arial&quot; color=&quot;#595959&quot;&gt;Get TO details&amp;amp;Save&lt;/font&gt;" style="rounded=1;whiteSpace=wrap;html=1;absoluteArcSize=1;arcSize=14;strokeWidth=2;strokeColor=#0F828F;" vertex="1" parent="iV5j2CM3sd-YC19MhuGI-6">
          <mxGeometry x="-106.5" y="201" width="113" height="35" as="geometry" />
        </mxCell>
        <mxCell id="iV5j2CM3sd-YC19MhuGI-13" style="edgeStyle=orthogonalEdgeStyle;rounded=0;orthogonalLoop=1;jettySize=auto;html=1;exitX=0.5;exitY=1;exitDx=0;exitDy=0;strokeColor=#595959;" edge="1" parent="iV5j2CM3sd-YC19MhuGI-6" source="J7kSFfG_ZM8IoIkOiP3u-18" target="iV5j2CM3sd-YC19MhuGI-5">
          <mxGeometry relative="1" as="geometry" />
        </mxCell>
        <mxCell id="iV5j2CM3sd-YC19MhuGI-7" value="" style="shape=image;verticalLabelPosition=bottom;verticalAlign=top;imageAspect=0;aspect=fixed;image=data:image/svg+xml,PHN2ZyB4bWxucz0iaHR0cDovL3d3dy53My5vcmcvMjAwMC9zdmciIGZpbGw9Im5vbmUiIHZpZXdCb3g9IjAgMCA0OSA0OSIgaGVpZ2h0PSI0OSIgd2lkdGg9IjQ5Ij4mI3hhOzxjaXJjbGUgc3Ryb2tlLXdpZHRoPSIwLjg1NzE0MyIgc3Ryb2tlPSIjRDVEQUREIiBmaWxsPSJ1cmwoI3BhaW50MF9saW5lYXJfMjYyMl8yOTAyKSIgcj0iMjMuNTcxNCIgY3k9IjI0LjAzNDkiIGN4PSIyNC41Ii8+JiN4YTs8cGF0aCBmaWxsPSJ1cmwoI3BhaW50MV9yYWRpYWxfMjYyMl8yOTAyKSIgZD0iTTIyLjQ5OTggMjkuMTA1MUgyMS40ODIxTDIwLjk5MTkgMjcuNjMwMkgxOC42Mzk0TDE4LjE0OTIgMjkuMTA1MUgxNy4xMTkyTDE5LjIyMDMgMjMuMzAwMkgyMC40Mjc1TDIyLjQ5OTggMjkuMTA1MVpNMTguOTExMyAyNi44MTg2SDIwLjcyNDFMMjAuMTA2MSAyNC45NjA1QzE5Ljk2MDUgMjQuNTMyMSAxOS44NjQ0IDI0LjIzNDEgMTkuODE3NyAyNC4wNjY1QzE5LjgwMTIgMjQuMTM1MiAxOS43MDUxIDI0LjQzNTkgMTkuNTI5MyAyNC45Njg4TDE4LjkxMTMgMjYuODE4NloiLz4mI3hhOzxwYXRoIGZpbGw9InVybCgjcGFpbnQyX3JhZGlhbF8yNjIyXzI5MDIpIiBkPSJNMjMuMjg2NiAyOS4xMDUxVjIzLjMwMDJIMjUuNTY0OUMyNi4yMjEzIDIzLjMwMDIgMjYuNzIyNiAyMy40MTk3IDI3LjA2ODYgMjMuNjU4N0MyNy40MTQ3IDIzLjg5NzYgMjcuNTg3NyAyNC4yNTg4IDI3LjU4NzcgMjQuNzQyMkMyNy41ODc3IDI1LjA4IDI3LjQ5ODUgMjUuMzY1NyAyNy4zMiAyNS41OTkxQzI3LjE0NDIgMjUuODMyNiAyNi44ODc0IDI1Ljk4OTEgMjYuNTQ5NSAyNi4wNjg4QzI2Ljk0NSAyNi4xMjEgMjcuMjQ4NSAyNi4yNjkzIDI3LjQ2IDI2LjUxMzdDMjcuNjc0MyAyNi43NTgyIDI3Ljc4MTQgMjcuMDc0IDI3Ljc4MTQgMjcuNDYxM0MyNy43ODE0IDI3LjgzNDggMjcuNjg2NiAyOC4xNDUyIDI3LjQ5NzEgMjguMzkyNEMyNy4zMTAzIDI4LjYzNjggMjcuMDU3NyAyOC44MTY3IDI2LjczOSAyOC45MzIxQzI2LjQyMDQgMjkuMDQ3NSAyNi4wNjIgMjkuMTA1MSAyNS42NjM4IDI5LjEwNTFIMjMuMjg2NlpNMjUuNDcwMSAyNS42ODE1QzI1Ljg0OTIgMjUuNjgxNSAyNi4xMjY2IDI1LjYxNDIgMjYuMzAyMyAyNS40Nzk2QzI2LjQ3ODEgMjUuMzQyMyAyNi41NjYgMjUuMTQxOCAyNi41NjYgMjQuODc4MUMyNi41NjYgMjQuNjIgMjYuNDc5NSAyNC40MzMyIDI2LjMwNjUgMjQuMzE3OEMyNi4xMzYyIDI0LjIwMjUgMjUuODc2NiAyNC4xNDQ4IDI1LjUyNzggMjQuMTQ0OEgyNC4zMDQyVjI1LjY4MTVIMjUuNDcwMVpNMjUuNTgxNCAyOC4yNjA2QzI1Ljk1MjIgMjguMjYwNiAyNi4yNDA1IDI4LjE5NDYgMjYuNDQ2NSAyOC4wNjI4QzI2LjY1NTMgMjcuOTI4MiAyNi43NTk2IDI3LjY5ODkgMjYuNzU5NiAyNy4zNzQ4QzI2Ljc1OTYgMjcuMDc4MiAyNi42NTM5IDI2Ljg2MjUgMjYuNDQyNCAyNi43MjhDMjYuMjMzNyAyNi41OTA2IDI1Ljk0OTQgMjYuNTIyIDI1LjU4OTYgMjYuNTIySDI0LjMwNDJWMjguMjYwNkgyNS41ODE0WiIvPiYjeGE7PHBhdGggZmlsbD0idXJsKCNwYWludDNfcmFkaWFsXzI2MjJfMjkwMikiIGQ9Ik0zMy41ODEgMjkuMTA1MUgzMi41NjM0TDMyLjA3MzEgMjcuNjMwMkgyOS43MjA3TDI5LjIzMDQgMjkuMTA1MUgyOC4yMDA0TDMwLjMwMTYgMjMuMzAwMkgzMS41MDg3TDMzLjU4MSAyOS4xMDUxWk0yOS45OTI2IDI2LjgxODZIMzEuODA1M0wzMS4xODczIDI0Ljk2MDVDMzEuMDQxOCAyNC41MzIxIDMwLjk0NTYgMjQuMjM0MSAzMC44OTkgMjQuMDY2NUMzMC44ODI1IDI0LjEzNTIgMzAuNzg2MyAyNC40MzU5IDMwLjYxMDYgMjQuOTY4OEwyOS45OTI2IDI2LjgxODZaIi8+JiN4YTs8cGF0aCBmaWxsPSJ1cmwoI3BhaW50NF9yYWRpYWxfMjYyMl8yOTAyKSIgZD0iTTM0LjM1OTMgMjkuMTA1MVYyMy4zMDAySDM2Ljc1NzFDMzcuMjEzIDIzLjMwMDIgMzcuNTk2MiAyMy4zNzU4IDM3LjkwNjUgMjMuNTI2OEMzOC4yMTY5IDIzLjY3NzkgMzguNDQ5IDIzLjg5MDcgMzguNjAyOCAyNC4xNjU0QzM4Ljc1NjYgMjQuNDQwMSAzOC44MzM1IDI0Ljc2MTQgMzguODMzNSAyNS4xMjk1QzM4LjgzMzUgMjUuNDgxIDM4Ljc1OCAyNS43OTk2IDM4LjYwNjkgMjYuMDg1M0MzOC40NTU4IDI2LjM3MDkgMzguMjI3OSAyNi41OTg5IDM3LjkyMyAyNi43NjkyQzM3LjYxODEgMjYuOTM2NyAzNy4yNDYgMjcuMDIwNSAzNi44MDY1IDI3LjAyMDVIMzUuMzgxVjI5LjEwNTFIMzQuMzU5M1pNMzYuNjcwNiAyNi4xNTEyQzM3LjA0OTYgMjYuMTUxMiAzNy4zMzI1IDI2LjA2MzMgMzcuNTE5MiAyNS44ODc1QzM3LjcwODggMjUuNzA5IDM3LjgwMzUgMjUuNDU5IDM3LjgwMzUgMjUuMTM3N0MzNy44MDM1IDI0LjgyNDYgMzcuNzA2IDI0LjU4ODQgMzcuNTExIDI0LjQyOTFDMzcuMzE2IDI0LjI2NyAzNy4wMjQ5IDI0LjE4NiAzNi42Mzc2IDI0LjE4NkgzNS4zODFWMjYuMTUxMkgzNi42NzA2WiIvPiYjeGE7PHBhdGggZmlsbD0idXJsKCNwYWludDVfcmFkaWFsXzI2MjJfMjkwMikiIGQ9Ik0xNi4wMDg0IDIyLjc1NjZDMTQuNjk1MSAyMi43OTAyIDEzLjY1NTkgMjMuODgzOSAxMy42ODk1IDI1LjE5NzFDMTMuNzIzNSAyNi41MjggMTQuOTAxNCAyNy41ODQ5IDE2LjIwNzMgMjcuNTEyNUwxNi43Mjk4IDI3LjQ4MzZMMTYuMTAxMiAyOS4xMDUxTDE1Ljg1NzEgMjkuMDkyMkMxMy44MTMyIDI4Ljk4NDQgMTIuMTYyMiAyNy4zMTgxIDEyLjEwOSAyNS4yMzc2QzEyLjA1NDIgMjMuMDkxOCAxMy43MTk0IDIxLjI5ODkgMTUuODQ4MiAyMS4xODFDMTYuMDIwNCAyMC41MDQ5IDE2LjM0NTggMTkuODczOCAxNi44MDY2IDE5LjMzODhDMTguMTUzNyAxNy43NzQ1IDIwLjMzNjkgMTcuMzU3MSAyMi4xNjA4IDE4LjE0NzNDMjMuMjk5NiAxNi44NDY1IDI0Ljc4MDkgMTYuMTQ1NiAyNi41NjQ1IDE2LjMwMzdDMjkuMTA4IDE2LjUyOTIgMzEuNDI2MiAxOC40MDY2IDMxLjY3MzMgMjEuMzcxOEMzMS43MTM1IDIxLjg1NDggMzEuMzM5NiAyMi4yMzcxIDMwLjg5MjkgMjIuMjc3NEMzMC4zNjY3IDIyLjMyNDkgMjkuOTU4NyAyMS45MTI2IDI5Ljg5NjUgMjEuNDQ1OUMyOS42NDM5IDE5LjU1MzkgMjguMDk5MSAxOC4yMTEyIDI2LjQwODcgMTguMDYxM0MyNS4xNDY5IDE3Ljk0OTUgMjQuMTYxNSAxOC40NjQ0IDIzLjM0MjcgMTkuNDg2TDIyLjk0MjEgMTkuOTQ1NUMyMi42OTM4IDIwLjIzMzggMjIuMjgzMiAyMC4yNDQ0IDIyLjAwNjEgMjAuMDUwMkMyMC43ODI0IDE5LjE5MjQgMTkuMTEwNyAxOS4zNzE4IDE4LjE0NTkgMjAuNDkyMkMxNy43NTgzIDIwLjk0MjIgMTcuNTI0NiAyMS41MDI5IDE3LjQ3NCAyMi4wOTU4QzE3LjQ0NSAyMi40MzYgMTcuMTY4OCAyMi43NDkyIDE2Ljc4MjEgMjIuNzQ5M0MxNi41MjM5IDIyLjc1ODIgMTYuMjY2NCAyMi43NSAxNi4wMDg0IDIyLjc1NjZaIi8+JiN4YTs8ZGVmcz4mI3hhOzxsaW5lYXJHcmFkaWVudCBncmFkaWVudFVuaXRzPSJ1c2VyU3BhY2VPblVzZSIgeTI9IjQ0LjI3OTIiIHgyPSI0MS41NjQ1IiB5MT0iNi44NDc3NSIgeDE9IjQuODUyODciIGlkPSJwYWludDBfbGluZWFyXzI2MjJfMjkwMiI+JiN4YTs8c3RvcCBzdG9wLWNvbG9yPSJ3aGl0ZSIvPiYjeGE7PHN0b3Agc3RvcC1jb2xvcj0iI0VBRUNFRSIgb2Zmc2V0PSIxIi8+JiN4YTs8L2xpbmVhckdyYWRpZW50PiYjeGE7PHJhZGlhbEdyYWRpZW50IGdyYWRpZW50VHJhbnNmb3JtPSJ0cmFuc2xhdGUoMjAuNDgxNiAyNC4xNzM1KSByb3RhdGUoMTQuOTY2OSkgc2NhbGUoMTUuNjU2OCA3LjExOTQ0KSIgZ3JhZGllbnRVbml0cz0idXNlclNwYWNlT25Vc2UiIHI9IjEiIGN5PSIwIiBjeD0iMCIgaWQ9InBhaW50MV9yYWRpYWxfMjYyMl8yOTAyIj4mI3hhOzxzdG9wIHN0b3AtY29sb3I9IiMxMzQ4RkYiLz4mI3hhOzxzdG9wIHN0b3AtY29sb3I9IiMwNjIzOEQiIG9mZnNldD0iMSIvPiYjeGE7PC9yYWRpYWxHcmFkaWVudD4mI3hhOzxyYWRpYWxHcmFkaWVudCBncmFkaWVudFRyYW5zZm9ybT0idHJhbnNsYXRlKDIwLjQ4MTYgMjQuMTczNSkgcm90YXRlKDE0Ljk2NjkpIHNjYWxlKDE1LjY1NjggNy4xMTk0NCkiIGdyYWRpZW50VW5pdHM9InVzZXJTcGFjZU9uVXNlIiByPSIxIiBjeT0iMCIgY3g9IjAiIGlkPSJwYWludDJfcmFkaWFsXzI2MjJfMjkwMiI+JiN4YTs8c3RvcCBzdG9wLWNvbG9yPSIjMTM0OEZGIi8+JiN4YTs8c3RvcCBzdG9wLWNvbG9yPSIjMDYyMzhEIiBvZmZzZXQ9IjEiLz4mI3hhOzwvcmFkaWFsR3JhZGllbnQ+JiN4YTs8cmFkaWFsR3JhZGllbnQgZ3JhZGllbnRUcmFuc2Zvcm09InRyYW5zbGF0ZSgyMC40ODE2IDI0LjE3MzUpIHJvdGF0ZSgxNC45NjY5KSBzY2FsZSgxNS42NTY4IDcuMTE5NDQpIiBncmFkaWVudFVuaXRzPSJ1c2VyU3BhY2VPblVzZSIgcj0iMSIgY3k9IjAiIGN4PSIwIiBpZD0icGFpbnQzX3JhZGlhbF8yNjIyXzI5MDIiPiYjeGE7PHN0b3Agc3RvcC1jb2xvcj0iIzEzNDhGRiIvPiYjeGE7PHN0b3Agc3RvcC1jb2xvcj0iIzA2MjM4RCIgb2Zmc2V0PSIxIi8+JiN4YTs8L3JhZGlhbEdyYWRpZW50PiYjeGE7PHJhZGlhbEdyYWRpZW50IGdyYWRpZW50VHJhbnNmb3JtPSJ0cmFuc2xhdGUoMjAuNDgxNiAyNC4xNzM1KSByb3RhdGUoMTQuOTY2OSkgc2NhbGUoMTUuNjU2OCA3LjExOTQ0KSIgZ3JhZGllbnRVbml0cz0idXNlclNwYWNlT25Vc2UiIHI9IjEiIGN5PSIwIiBjeD0iMCIgaWQ9InBhaW50NF9yYWRpYWxfMjYyMl8yOTAyIj4mI3hhOzxzdG9wIHN0b3AtY29sb3I9IiMxMzQ4RkYiLz4mI3hhOzxzdG9wIHN0b3AtY29sb3I9IiMwNjIzOEQiIG9mZnNldD0iMSIvPiYjeGE7PC9yYWRpYWxHcmFkaWVudD4mI3hhOzxyYWRpYWxHcmFkaWVudCBncmFkaWVudFRyYW5zZm9ybT0idHJhbnNsYXRlKDE1LjE0MjMgMTguMTY0Nikgcm90YXRlKDMzLjUyOTQpIHNjYWxlKDE2LjI1MjYgMjguMjgwOSkiIGdyYWRpZW50VW5pdHM9InVzZXJTcGFjZU9uVXNlIiByPSIxIiBjeT0iMCIgY3g9IjAiIGlkPSJwYWludDVfcmFkaWFsXzI2MjJfMjkwMiI+JiN4YTs8c3RvcCBzdG9wLWNvbG9yPSIjMDE5NUZGIi8+JiN4YTs8c3RvcCBzdG9wLWNvbG9yPSIjMTE0N0U5IiBvZmZzZXQ9IjEiLz4mI3hhOzwvcmFkaWFsR3JhZGllbnQ+JiN4YTs8L2RlZnM+JiN4YTs8L3N2Zz4=;points=[[0,0,0,0,0],[0,0.25,0,0,0],[0,0.5,0,0,0],[0,0.75,0,0,0],[0.25,0,0,0,0],[0.5,0,0,0,0],[0.75,0,0,0,0],[1,0,0,0,0],[1,0.25,0,0,0],[1,0.5,0,0,0],[1,0.75,0,0,0]];" vertex="1" parent="iV5j2CM3sd-YC19MhuGI-6">
          <mxGeometry x="-131.9990909090909" y="-30" width="37.136842105263156" height="37.136842105263156" as="geometry" />
        </mxCell>
        <mxCell id="iV5j2CM3sd-YC19MhuGI-8" value="&lt;font color=&quot;#1d2d3e&quot; size=&quot;1&quot; face=&quot;arial&quot; style=&quot;&quot;&gt;&lt;b style=&quot;font-size: 14px;&quot;&gt;ABAP Environment&lt;br&gt;&lt;/b&gt;&lt;/font&gt;" style="text;html=1;align=center;verticalAlign=top;resizable=1;points=[[0,0.5,0,0,0],[0.21,1,0,0,0],[0.5,1,0,0,0],[0.85,1,0,0,0],[1,0.5,0,0,0]];autosize=0;strokeColor=none;fillColor=none;fontSize=12;fontColor=default;fontFamily=Helvetica;fixedWidth=1;imageWidth=24;whiteSpace=wrap;labelBackgroundColor=none;" vertex="1" parent="iV5j2CM3sd-YC19MhuGI-6">
          <mxGeometry x="-166.42999999999995" y="7.136842105263156" width="106" height="34.863157894736844" as="geometry" />
        </mxCell>
        <mxCell id="iV5j2CM3sd-YC19MhuGI-27" value="&lt;font face=&quot;Arial&quot; color=&quot;#595959&quot;&gt;Upload/Download&lt;/font&gt;" style="rounded=1;whiteSpace=wrap;html=1;absoluteArcSize=1;arcSize=14;strokeWidth=2;strokeColor=#0F828F;" vertex="1" parent="iV5j2CM3sd-YC19MhuGI-6">
          <mxGeometry x="-106.5" y="254" width="113" height="35" as="geometry" />
        </mxCell>
        <mxCell id="J7kSFfG_ZM8IoIkOiP3u-42" value="" style="rounded=1;whiteSpace=wrap;html=1;strokeColor=#074D92;fillColor=none;" vertex="1" parent="J7kSFfG_ZM8IoIkOiP3u-1">
          <mxGeometry x="518" y="118" width="214" height="152" as="geometry" />
        </mxCell>
        <mxCell id="iV5j2CM3sd-YC19MhuGI-17" style="edgeStyle=orthogonalEdgeStyle;rounded=0;orthogonalLoop=1;jettySize=auto;html=1;entryX=0.943;entryY=0.475;entryDx=0;entryDy=0;entryPerimeter=0;strokeColor=#C0399F;" edge="1" parent="J7kSFfG_ZM8IoIkOiP3u-1" source="iV5j2CM3sd-YC19MhuGI-5" target="iV5j2CM3sd-YC19MhuGI-0">
          <mxGeometry relative="1" as="geometry" />
        </mxCell>
        <mxCell id="iV5j2CM3sd-YC19MhuGI-37" value="&lt;font color=&quot;#595959&quot; face=&quot;Arial&quot;&gt;Odata Api&lt;/font&gt;" style="edgeLabel;html=1;align=center;verticalAlign=middle;resizable=0;points=[];" vertex="1" connectable="0" parent="iV5j2CM3sd-YC19MhuGI-17">
          <mxGeometry x="-0.2595" y="-1" relative="1" as="geometry">
            <mxPoint as="offset" />
          </mxGeometry>
        </mxCell>
        <mxCell id="iV5j2CM3sd-YC19MhuGI-22" value="" style="rounded=1;whiteSpace=wrap;html=1;strokeColor=#074D92;fillColor=none;" vertex="1" parent="J7kSFfG_ZM8IoIkOiP3u-1">
          <mxGeometry x="841" y="319" width="134" height="238" as="geometry" />
        </mxCell>
        <mxCell id="iV5j2CM3sd-YC19MhuGI-23" value="" style="group" vertex="1" connectable="0" parent="J7kSFfG_ZM8IoIkOiP3u-1">
          <mxGeometry x="858" y="344" width="110" height="95" as="geometry" />
        </mxCell>
        <mxCell id="iV5j2CM3sd-YC19MhuGI-24" value="" style="shape=image;verticalLabelPosition=bottom;verticalAlign=top;imageAspect=0;aspect=fixed;image=data:image/svg+xml,PHN2ZyB4bWxucz0iaHR0cDovL3d3dy53My5vcmcvMjAwMC9zdmciIGZpbGw9Im5vbmUiIHZpZXdCb3g9IjAgMCA0OSA0OSIgaGVpZ2h0PSI0OSIgd2lkdGg9IjQ5Ij4mI3hhOzxnIGNsaXAtcGF0aD0idXJsKCNjbGlwMF8yNjIyXzM3MzkpIj4mI3hhOzxjaXJjbGUgc3Ryb2tlLXdpZHRoPSIwLjg1NzE0MyIgc3Ryb2tlPSIjRDVEQUREIiBmaWxsPSJ1cmwoI3BhaW50MF9saW5lYXJfMjYyMl8zNzM5KSIgcj0iMjMuNTcxNCIgY3k9IjI0LjAzNDkiIGN4PSIyNC41Ii8+JiN4YTs8cGF0aCBmaWxsPSJ1cmwoI3BhaW50MV9yYWRpYWxfMjYyMl8zNzM5KSIgZD0iTTM2LjU3MzYgMzAuNzYyOEMzNi44NDM2IDMwLjQ4MzEgMzcuMTQ3MiAzMC4zNDMzIDM3LjQ4NDcgMzAuMzQzM0MzNy44MjIxIDMwLjM0MzMgMzguMTI1OCAzMC40ODMxIDM4LjM5NTcgMzAuNzYyOEMzOC42MzE5IDMxLjAwNzUgMzguNzUgMzEuMzA0NiAzOC43NSAzMS42NTQyQzM4Ljc1IDMyLjAwMzggMzguNjMxOSAzMi4zMTg0IDM4LjM5NTcgMzIuNTk4MUwzMy4yODM4IDM3Ljg5NDFDMzMuMDQ3NiAzOC4xMzg4IDMyLjc0MzkgMzguMjYxMiAzMi4zNzI3IDM4LjI2MTJDMzIuMDAxNiAzOC4yNjEyIDMxLjY5NzkgMzguMTM4OCAzMS40NjE3IDM3Ljg5NDFMMjguOTMxIDM1LjI3MjNDMjguNjYxMSAzNC45OTI3IDI4LjUyNjEgMzQuNjc4IDI4LjUyNjEgMzQuMzI4NUMyOC41MjYxIDMzLjk3ODkgMjguNjYxMSAzMy42NjQzIDI4LjkzMSAzMy4zODQ2QzI5LjIwMSAzMy4xMDQ5IDI5LjUwNDYgMzIuOTY1MSAyOS44NDIxIDMyLjk2NTFDMzAuMTc5NSAzMi45NjUxIDMwLjQ2NjMgMzMuMTA0OSAzMC43MDI1IDMzLjM4NDZMMzIuMzcyNyAzNS4xMTVMMzYuNTczNiAzMC43NjI4WiIvPiYjeGE7PHBhdGggZmlsbD0idXJsKCNwYWludDJfcmFkaWFsXzI2MjJfMzczOSkiIGQ9Ik0zMi44NjQgMTEuMjg1QzM0LjAwMTkgMTEuMjc4NiAzNC41NzUxIDExLjcxMzQgMzUuMzI1MSAxMi40OTg5QzM2LjEwOTIgMTMuMjg0NCAzNi41MDEzIDE0LjI3NDkgMzYuNTAxMyAxNS40NzAyVjI2Ljc1MzdDMzYuNTAxMyAyOC4xMSAzNS42MTI3IDI5LjMzNjEgMzQuNjUwNyAzMC4yOTIyQzM0LjU1MzMgMzAuMzg5IDM0LjQ1NzIgMzAuNDg4NCAzNC4zNjIzIDMwLjU4OTVDMzMuMjgyNSAzMS43NDA4IDMxLjU5MTIgMzEuNDAyNSAzMC4wMTI4IDMxLjQwMjVWMzEuNDAyNUMyOS4xNzUgMzEuNDAyNSAyOC40NzQyIDMxLjc3MDYgMjcuOTU1NiAzMi4zMDc5VjMyLjMwNzlDMjYuNzcwNCAzMy41MzU3IDI1LjI1MjEgMzYuMTE1NiAyMy41NDU2IDM2LjExNTZIMTUuODQxMUMxNC42ODIgMzYuMTE1NiAxMy43MTAzIDM1LjcyMjkgMTIuOTI2MiAzNC45Mzc0QzEyLjE0MjEgMzQuMTUxOCAxMS43NSAzMy4xNzg1IDExLjc1IDMyLjAxNzNWMTUuNDcwMkMxMS43NSAxNC44ODk2IDExLjg1MjMgMTQuMzQzMiAxMi4wNTY4IDEzLjgzMDlDMTIuMjYxNCAxMy4zMTg2IDEyLjUzNDEgMTIuODc0NiAxMi44NzUxIDEyLjQ5ODlDMTMuMjUwMSAxMi4xMjMyIDEzLjY1OTIgMTEuODMyOSAxNC4xMDI0IDExLjYyOEMxNC41NDU2IDExLjQyMzEgMTUuMDIyOSAxMS4zMjA2IDE1LjUzNDMgMTEuMzIwNkwzMi44NjQgMTEuMjg1Wk0zMi44NjQgMTQuMDcxOEMzMy44MDA4IDE0LjA3MTggMzMuODAwOCAxNS4wNjA0IDMzLjgwMDggMTUuNDcwMlYyMy43MTgxSDI4LjIxNjhDMjcuODA3NyAyMy43MTgxIDI3LjQ2NjcgMjMuODU0OCAyNy4xOTQgMjQuMTI4QzI2Ljk1NTQgMjQuMzY3MSAyNi44MzYgMjQuNzI1NyAyNi44MzYgMjUuMjAzOEMyNi44MzYgMjUuOTIxIDI2LjU2MzMgMjYuNTUyOCAyNi4wMTc4IDI3LjA5OTNDMjUuNTA2NCAyNy42MTE2IDI0Ljg3NTcgMjcuODY3NyAyNC4xMjU3IDI3Ljg2NzdDMjMuMzQxNSAyNy44Njc3IDIyLjY3NjcgMjcuNjExNiAyMi4xMzEyIDI3LjA5OTNDMjEuNjE5OCAyNi41NTI4IDIxLjM2NDEgMjUuOTIxIDIxLjM2NDEgMjUuMjAzOEMyMS4zNjQxIDI0LjcyNTcgMjEuMjI3OCAyNC4zNjcxIDIwLjk1NSAyNC4xMjhDMjAuNzE2NCAyMy44NTQ4IDIwLjM5MjUgMjMuNzE4MSAxOS45ODM0IDIzLjcxODFIMTQuNDYwNFYxNS40NzAyQzE0LjQ2MDQgMTUuMDYwNCAxNC40NjA0IDE0LjA3MTggMTUuNTM0MyAxNC4wNzE4SDMyLjg2NFoiIGNsaXAtcnVsZT0iZXZlbm9kZCIgZmlsbC1ydWxlPSJldmVub2RkIi8+JiN4YTs8cGF0aCBmaWxsPSJ1cmwoI3BhaW50M19yYWRpYWxfMjYyMl8zNzM5KSIgZD0iTTE3Ljk2NzcgMTcuOTU4NUwzMC4yMTQyIDE3Ljk1ODVDMzAuNjgxNiAxNy45NTg1IDMxLjA2MDUgMTcuNTc4OSAzMS4wNjA1IDE3LjExMDdDMzEuMDYwNSAxNi42NDI1IDMwLjY4MTYgMTYuMjYyOSAzMC4yMTQyIDE2LjI2MjlMMTcuOTY3NyAxNi4yNjI5QzE3LjUwMDMgMTYuMjYyOSAxNy4xMjE0IDE2LjY0MjUgMTcuMTIxNCAxNy4xMTA3QzE3LjEyMTQgMTcuNTc4OSAxNy41MDAzIDE3Ljk1ODUgMTcuOTY3NyAxNy45NTg1WiIvPiYjeGE7PHBhdGggZmlsbD0idXJsKCNwYWludDRfcmFkaWFsXzI2MjJfMzczOSkiIGQ9Ik0xNy45Njc3IDIxLjUwNjdMMzAuMjE0MiAyMS41MDY3QzMwLjY4MTYgMjEuNTA2NyAzMS4wNjA1IDIxLjEyNzIgMzEuMDYwNSAyMC42NTg5QzMxLjA2MDUgMjAuMTkwNyAzMC42ODE2IDE5LjgxMTIgMzAuMjE0MiAxOS44MTEyTDE3Ljk2NzcgMTkuODExMkMxNy41MDAzIDE5LjgxMTIgMTcuMTIxNCAyMC4xOTA3IDE3LjEyMTQgMjAuNjU4OUMxNy4xMjE0IDIxLjEyNzIgMTcuNTAwMyAyMS41MDY3IDE3Ljk2NzcgMjEuNTA2N1oiLz4mI3hhOzwvZz4mI3hhOzxkZWZzPiYjeGE7PGxpbmVhckdyYWRpZW50IGdyYWRpZW50VW5pdHM9InVzZXJTcGFjZU9uVXNlIiB5Mj0iNDQuMjc5MiIgeDI9IjQxLjU2NDUiIHkxPSI2Ljg0Nzc1IiB4MT0iNC44NTI4NyIgaWQ9InBhaW50MF9saW5lYXJfMjYyMl8zNzM5Ij4mI3hhOzxzdG9wIHN0b3AtY29sb3I9IndoaXRlIi8+JiN4YTs8c3RvcCBzdG9wLWNvbG9yPSIjRUFFQ0VFIiBvZmZzZXQ9IjEiLz4mI3hhOzwvbGluZWFyR3JhZGllbnQ+JiN4YTs8cmFkaWFsR3JhZGllbnQgZ3JhZGllbnRUcmFuc2Zvcm09InRyYW5zbGF0ZSgzMC4xMDkzIDMxLjUzNDQpIHJvdGF0ZSgzNy43NTYxKSBzY2FsZSg5LjAwNzY2IDcuOTQ3MzIpIiBncmFkaWVudFVuaXRzPSJ1c2VyU3BhY2VPblVzZSIgcj0iMSIgY3k9IjAiIGN4PSIwIiBpZD0icGFpbnQxX3JhZGlhbF8yNjIyXzM3MzkiPiYjeGE7PHN0b3Agc3RvcC1jb2xvcj0iIzEzNDhGRiIvPiYjeGE7PHN0b3Agc3RvcC1jb2xvcj0iIzA2MjM4RCIgb2Zmc2V0PSIxIi8+JiN4YTs8L3JhZGlhbEdyYWRpZW50PiYjeGE7PHJhZGlhbEdyYWRpZW50IGdyYWRpZW50VHJhbnNmb3JtPSJ0cmFuc2xhdGUoMTUuNTg4MyAxNC45MzA4KSByb3RhdGUoNDUuNDA5OCkgc2NhbGUoMjQuNDA5OCA0Ni4xMTg2KSIgZ3JhZGllbnRVbml0cz0idXNlclNwYWNlT25Vc2UiIHI9IjEiIGN5PSIwIiBjeD0iMCIgaWQ9InBhaW50Ml9yYWRpYWxfMjYyMl8zNzM5Ij4mI3hhOzxzdG9wIHN0b3AtY29sb3I9IiMwMTk1RkYiLz4mI3hhOzxzdG9wIHN0b3AtY29sb3I9IiMxMTQ3RTkiIG9mZnNldD0iMSIvPiYjeGE7PC9yYWRpYWxHcmFkaWVudD4mI3hhOzxyYWRpYWxHcmFkaWVudCBncmFkaWVudFRyYW5zZm9ybT0idHJhbnNsYXRlKDE5LjMzOTcgMTYuNTE3NCkgcm90YXRlKDYuOTM1NDUpIHNjYWxlKDkuODMzNTggMi44NjExKSIgZ3JhZGllbnRVbml0cz0idXNlclNwYWNlT25Vc2UiIHI9IjEiIGN5PSIwIiBjeD0iMCIgaWQ9InBhaW50M19yYWRpYWxfMjYyMl8zNzM5Ij4mI3hhOzxzdG9wIHN0b3AtY29sb3I9IiMwMEJCRkYiLz4mI3hhOzxzdG9wIHN0b3AtY29sb3I9IiMwMDhCRkYiIG9mZnNldD0iMSIvPiYjeGE7PC9yYWRpYWxHcmFkaWVudD4mI3hhOzxyYWRpYWxHcmFkaWVudCBncmFkaWVudFRyYW5zZm9ybT0idHJhbnNsYXRlKDE5LjMzOTcgMjAuMDY1Nikgcm90YXRlKDYuOTM1NDUpIHNjYWxlKDkuODMzNTggMi44NjExKSIgZ3JhZGllbnRVbml0cz0idXNlclNwYWNlT25Vc2UiIHI9IjEiIGN5PSIwIiBjeD0iMCIgaWQ9InBhaW50NF9yYWRpYWxfMjYyMl8zNzM5Ij4mI3hhOzxzdG9wIHN0b3AtY29sb3I9IiMwMEJCRkYiLz4mI3hhOzxzdG9wIHN0b3AtY29sb3I9IiMwMDhCRkYiIG9mZnNldD0iMSIvPiYjeGE7PC9yYWRpYWxHcmFkaWVudD4mI3hhOzxjbGlwUGF0aCBpZD0iY2xpcDBfMjYyMl8zNzM5Ij4mI3hhOzxyZWN0IHRyYW5zZm9ybT0idHJhbnNsYXRlKDAuNSAwLjAzNDkxMjEpIiBmaWxsPSJ3aGl0ZSIgaGVpZ2h0PSI0OCIgd2lkdGg9IjQ4Ii8+JiN4YTs8L2NsaXBQYXRoPiYjeGE7PC9kZWZzPiYjeGE7PC9zdmc+" vertex="1" parent="iV5j2CM3sd-YC19MhuGI-23">
          <mxGeometry x="30.5" width="49" height="49" as="geometry" />
        </mxCell>
        <mxCell id="iV5j2CM3sd-YC19MhuGI-25" value="&lt;font color=&quot;#1d2d3e&quot; size=&quot;1&quot; face=&quot;arial&quot; style=&quot;&quot;&gt;&lt;b style=&quot;font-size: 14px;&quot;&gt;Document Management Service&lt;br&gt;&lt;/b&gt;&lt;/font&gt;" style="text;html=1;align=center;verticalAlign=top;resizable=1;points=[[0,0.5,0,0,0],[0.21,1,0,0,0],[0.5,1,0,0,0],[0.85,1,0,0,0],[1,0.5,0,0,0]];autosize=0;strokeColor=none;fillColor=none;fontSize=12;fontColor=default;fontFamily=Helvetica;fixedWidth=1;imageWidth=24;whiteSpace=wrap;labelBackgroundColor=none;" vertex="1" parent="iV5j2CM3sd-YC19MhuGI-23">
          <mxGeometry y="49" width="110" height="46" as="geometry" />
        </mxCell>
        <mxCell id="J7kSFfG_ZM8IoIkOiP3u-12" value="&lt;span style=&quot;color: rgba(0, 0, 0, 0); font-family: monospace; font-size: 0px; text-align: start; text-wrap: nowrap;&quot;&gt;%3CmxGraphModel%3E%3Croot%3E%3CmxCell%20id%3D%220%22%2F%3E%3CmxCell%20id%3D%221%22%20parent%3D%220%22%2F%3E%3CmxCell%20id%3D%222%22%20value%3D%22Action%20get%20additional%20data%22%20style%3D%22rounded%3D1%3BwhiteSpace%3Dwrap%3Bhtml%3D1%3BabsoluteArcSize%3D1%3BarcSize%3D14%3BstrokeWidth%3D2%3BstrokeColor%3D%23053B70%3B%22%20vertex%3D%221%22%20parent%3D%221%22%3E%3CmxGeometry%20x%3D%22840%22%20y%3D%22445%22%20width%3D%2280%22%20height%3D%2250%22%20as%3D%22geometry%22%2F%3E%3C%2FmxCell%3E%3C%2Froot%3E%3C%2FmxGraphModel%3E&lt;/span&gt;" style="rounded=1;whiteSpace=wrap;html=1;strokeColor=#074D92;fillColor=none;arcSize=18;" vertex="1" parent="J7kSFfG_ZM8IoIkOiP3u-1">
          <mxGeometry x="484" y="291" width="322.5" height="515" as="geometry" />
        </mxCell>
        <mxCell id="iV5j2CM3sd-YC19MhuGI-29" style="edgeStyle=orthogonalEdgeStyle;rounded=0;orthogonalLoop=1;jettySize=auto;html=1;fontColor=#C0399F;" edge="1" parent="J7kSFfG_ZM8IoIkOiP3u-1" source="iV5j2CM3sd-YC19MhuGI-27" target="iV5j2CM3sd-YC19MhuGI-22">
          <mxGeometry relative="1" as="geometry" />
        </mxCell>
        <mxCell id="iV5j2CM3sd-YC19MhuGI-30" value="" style="rounded=1;whiteSpace=wrap;html=1;fontColor=#0F828F;" vertex="1" parent="J7kSFfG_ZM8IoIkOiP3u-1">
          <mxGeometry x="533" y="690" width="180" height="74" as="geometry" />
        </mxCell>
        <mxCell id="iV5j2CM3sd-YC19MhuGI-32" style="edgeStyle=orthogonalEdgeStyle;rounded=0;orthogonalLoop=1;jettySize=auto;html=1;entryX=0.457;entryY=0.995;entryDx=0;entryDy=0;entryPerimeter=0;fontColor=#595959;" edge="1" parent="J7kSFfG_ZM8IoIkOiP3u-1" source="iV5j2CM3sd-YC19MhuGI-30" target="iV5j2CM3sd-YC19MhuGI-9">
          <mxGeometry relative="1" as="geometry">
            <Array as="points">
              <mxPoint x="623" y="668" />
            </Array>
          </mxGeometry>
        </mxCell>
        <mxCell id="iV5j2CM3sd-YC19MhuGI-33" value="" style="shape=image;verticalLabelPosition=bottom;labelBackgroundColor=default;verticalAlign=top;aspect=fixed;imageAspect=0;image=data:image/png,iVBORw0KGgoAAAANSUhEUgAAADcAAABHCAYAAACj+d+HAAAAAXNSR0IArs4c6QAAAIRlWElmTU0AKgAAAAgABQESAAMAAAABAAEAAAEaAAUAAAABAAAASgEbAAUAAAABAAAAUgEoAAMAAAABAAIAAIdpAAQAAAABAAAAWgAAAAAAAABIAAAAAQAAAEgAAAABAAOgAQADAAAAAQABAACgAgAEAAAAAQAAADegAwAEAAAAAQAAAEcAAAAAQ21BmwAAAAlwSFlzAAALEwAACxMBAJqcGAAADJJJREFUaAXtW3twVNUZP+fcu68s4ZFsUFFBR6V1AIvySEME8TG25IHySBCFDqMWH1WpreWl4OUViMNoLb4GnbHoHxUDQw1Z0qeGUQKl0NopLy2KDirGbMIz2c3uvff09+3mbjZL2OxulkxnmoObc8853/m+833ne51zr4z1YilfUXxrmVbWr7dIit4iRHSMEFMUJXCsTCv5BZr8YtO+6ATiGZi5vOR2m13UmIapSsZWS8Hfqlq2/Vg8XCbavc4cLXpaxbRcu66vtznUeUbIOGvq8s+mXX+4amltYyaYsnBcNObmPnWn29em6LUbatssYvH1TK2oRFWUl4SqDDNCOhSVPxNUWl/btvSvTfGw6bQvis0VaUWXBvrZ30vEGC12i7ajJmAoo/Wg4RVCMGnK1Q7TfaD86aJJ6TATPyejO1f2ZJmLD/Tfryi8wtTZrZu17f+IJ3ihdrlW+rZQ2BxDN5nqUJke1B+q0rwbLwSfTL+SDFAyMDO0orGqW9apNuU+PWSUvKvV7EpmngVTODy7xp/tvklwPpwYFIooHjlx+PGDOz/92IJJte7xzs2fP8Z26srLF6uKWGkaxtdtQVm8bVXNv1JdCMGTnQayHZ9zJgdDRZlqV1moVS/cssZbnw6+HjE3deHUbJfb/Igr4gbTNP2BgLi6uqK6obuFzFhWlJ/rdh/ZuLjqdDzsjJVF+SpT9iBUhIcUVRw3zvlHVVX+5TzY+Lnx7bQdyrQl03KdbrMeofgGaZot0jTGJsMYLUBRxAtNgcBleOQztdKS2EW1NsqPOWcHrT4p2ZWKwzHTaqdSp8UcOQ67M/QRk2wk3DgyD6OiSqs9lAzhcq2oWqi8YKu2/cisVSW/5dJ8JHYePGxQ181PODikQuppCLY2FibZ57SYY4MCCxCTvg/S5NVObVlVW9EdQaRc48tXlHwobGopHEbjrBWlO+1O+0+QpTTHzZXQhibevjKJrXO47HnTlxcXx8F120yZuSnalP6YtJZsAh6NAu+mRFSmLp16SblW4lVVUY9duNkIGiSTPNjoJBNeEYx4y5YXPxDFAdYQ8S6VEZMLdyMOMpWx2VGYJB9SZs5t8CdUW2QapM5MyesuRGv26tK17n78W9WuFCE8nBd2ggFk0pxv4KqYbuGYu35ullDUsbRjViFBSs5+UPZu2Xk4LJiu6pSZ4wq7I0TSpwJ7YEL/MtLo/LdcK94puXgsqId+CJt8u/NoR4sLPkD69V9ZPW0tza9LJsnZRAsxCi3pzw4xV7QziQfsdvJlnjbZ6efiSpOYQoE0mWhTbPEYypeXzrC5lElmCNmGFDuwOEc8DLUVm8LMkO7VHU5f2bKSAmHnTwnBp5MaxhehcNU0z9jj+xO1U2LuFBvodCqmg5kR4sgmmGGT40FgbywRKeSwYEvIK7n8THAxC54vJ1bNLFjsKAxM3O0Qxt1MFYxsEJ7SGu5UwwaF3pYVcaGdRi7cSIk53galpH/tJbyDki1A8yWrj+pB35zYsHHj/ufb+xYgb6zFPv84FsZ6Drv6dmFZfV3V4EpXB5zF0SH5kpLNZTngARijX7jQwuxO9doZy4s6eTIwFoUhQIPJ92BbkUlp/tUNM3Dua1sglekpMXcdyz8HVWq2AiwRIo+nqsr6siVT8i5EGB7x2q7U8kLw8f3hkMPkZ90doc6bF9+RqK1pmgl7el9pDwUWLBY+hLnUw7NWTbkGMazTFs16Zso1MM0n0J92wUkDZm7sSBVBp4UkM5kYUFXHUdqx2EJqB2QBMLpdmhzHHSPIuXITIvIc8OUkFU630M75z/H+1c9Vn00FR8rMEXKkUXWobulqwaSyAp6PUkMDoaAn6ki0SGjIWDa986x3HrVTKSnZnIVY6vxZxKPzgxEAiBly8RSresoYqTLiWxtQrrdop1KnxdwIZfuHhin3Rgw9FXKpwSp2BUIyqzdr3gOpzYxAp8WcpjGz1S8pSz/Z2X2ks4Su55B6w4kc8omWe7uG6L43LeYIrXed9yRSiiJFVfzdk0kRAvaKM1+z4WeldVpdSoE7llLazBGSzVrtHlM3pgqbQB4Vizb9Z3IgihA+QxcTt67zfp4+JjpNZaDM0KbeYLMxr9TlFTinpY2RbBjO45NAG78l2SuLRMSieWIioO7GDtd90nD9pKs2QeZS2MXN7Res3U2LjuNanTyrbnL+OMt2PrztmW2nooM9eMjIzsXSL1tUOhQhe61qF5NxyByMnVCJiHVMovhHqod+hnBCuWID4LbI083Lql7YnVH7zThzFqNl2o9ycGIbit9oMHQTbsjmgpmBSFSO4GzxjjSMgzjtHRDM+VWVVnXOmtdX90mgTwJ9EuiTQJ8EMiiBpOLcqLUDBjm5MuTv+5uPsCrc98QWjan5LCergTUHv9BY9AInX8vpT2CqS8hdfp+faSyaANOYON0c2v0CiwTtdhz6N83+/UOYJHzh540dl1GxJJN9Tshc/hr3JYrqehfHj0mEEFlFAw4iL+5a1BR961JQ6VmG+8uVSDg+rl/YeCPBjdFYljMrr4Weo0XKEyZn84VkO3FMPwNcf6xf1Bi+7puwLncO7i/fBoFHDMmbkWJuxviC+n2NLxeOy/sWh1anhQfJwF31S5ret9qJ6oSnAqG4HiXGkPe9AaSPIs1GJsFXjlk3CJlHuCD54PfTE6Q0uqAyly5oowULPIpEegmux1/F7bSHS/5GdDCJh3FjcvAmiXkw/xDjsjr8M83vkpgaBkl4KRu58wEc537chtQJw9wnBRunmEpYkvmVOXeAu6vA/F4IYTxuTuYDOnr7zLn8on5R0zqiNKHSMxKwE0NtIY/NkdytuJ2L0TQXAtxrSPODPf6m6lj1prFEJeHO6br/ZSjjKezK4woXh5jgUB2m7F3q+5SQKkw8QLWUxoOQ7pcQwj2WrVE/lnVNwTrPisLn8jahUQghnLbZbb7wUBJ/oOphNQd3j4H+1kKX57MRGkv627GEzP3t6ZaGQGvbdaaUT4LQn7Ceq2Ebv8GC7x1fkZ2L9jQw24hbnGGoD6LtVpz8vph1X41keTkYpxvp/xjMLPva72u/E5QdWoOTA81BUg0yHQVHwxpS65AuvwcJLoTwhg5w5M7sgEj81EGgC7jCSs9mdI/Ar2DXwsZfw6buhopsw/cwkxh3DIYqkn7lQR23k9FR4Vw8hIp2CiuV73933Fd0dANro7ZVhlSyVsBfjjbNomvcwTQGNW6V9OqovcCxnIPdHiZNgQl8iA8BcE7io6zx7uqEzJmM7YYnLIc61cBmyEPdRQgh0X/iTPYYpEnu/U7YY9gz4o3O81hood2VO5LgsEwznrFwP5f/xmh+YWXeFinNIxDITyEIepm6D+Mdi+d8HgT4M9Begf6x4bmM1VCdTEnIXEuj7/XswR7yWKUgMgk64yfPCfXZh4kj0d5Rv8j3gUUILv01qG0hdjdsi3iB10nNLDgZMh7kqvIOtmo6GANb8iwE8cs9i5oOFzyXFxYMvekP+gOrbVlZ12HsaWwouDdfrA807bTwZKrm4zT3pUzD5W8Gy40V/fLGrPF0eovaFXqEngFXaR2xriuYvr4+Cfy/SoCCeCqB9mLKKaMOApnIRDVLOT3A5WmaoPULx66LufjucGeUORB7kAiGg7vTMY+euyjw7L1TMkaI3LVDqCcQjo6BvWHILE7gSDMcbEhKANqzGcpaRiHPevOs1Fe4ue1mJOevAGYXxm9HvPsCAFr9Yp83E+xnbOdwmJ0NSblws0yL3YoTwLVI125rX+QQ1IWI6N8irP8BgX5Bf8U2D8TdYOoKCGMymHod8y9HJH0L8VT9n2IOuVZEJSVroV2jxbUfgSLrlCzw3fHG+075fXMx3orsJfq9Fzb31V2LGpdKzl9BdpNT4Mq9JRPMZURCE9YMxLmLj6EF4avZN62FIWWaFutY9FzGjx5k+oSxElcVPJZ22Dy4lG0wWPAac2KwkKVRxxJIY3pkCrfZwruGxPfnyAl3Uy9yxjnYhcel5Vg4cw5xeTYMGcvOQBWzkSj+HlBhBODnfqiwDw06F545E2j+IDzQwz8R7D1BAvsozPI0kqdo+Mp3mXUKoKsIB1eOgcBR2Br+Y7A7jv8ZQg4Fc1uDra1P2JyuyThd/A6DB9A/AvZ4HGfHZbsXN73VkyVZc3vOnIUpQQ1veYSGcYK4vkDrP2i3dib8deyEdZ57wsyZcnYbM2r3B062sJhbsgQokxrKiFomRSkCJC3G4ufsX3wy5a/P43HEt3uHuWCoy++TYWveoGmMFAF2PH5hfe0+CfRJoE8CfRLoLQn8Fzmktuxelj3/AAAAAElFTkSuQmCC;" vertex="1" parent="J7kSFfG_ZM8IoIkOiP3u-1">
          <mxGeometry x="597.4968377685547" y="693.0038854980469" width="55" height="71" as="geometry" />
        </mxCell>
        <mxCell id="iV5j2CM3sd-YC19MhuGI-36" style="edgeStyle=orthogonalEdgeStyle;rounded=0;orthogonalLoop=1;jettySize=auto;html=1;fontColor=#595959;" edge="1" parent="J7kSFfG_ZM8IoIkOiP3u-1" source="iV5j2CM3sd-YC19MhuGI-34" target="iV5j2CM3sd-YC19MhuGI-30">
          <mxGeometry relative="1" as="geometry" />
        </mxCell>
        <mxCell id="iV5j2CM3sd-YC19MhuGI-34" value="" style="shape=image;verticalLabelPosition=bottom;labelBackgroundColor=default;verticalAlign=top;aspect=fixed;imageAspect=0;image=data:image/png,iVBORw0KGgoAAAANSUhEUgAAABcAAAAXCAYAAADgKtSgAAAAAXNSR0IArs4c6QAAAIRlWElmTU0AKgAAAAgABQESAAMAAAABAAEAAAEaAAUAAAABAAAASgEbAAUAAAABAAAAUgEoAAMAAAABAAIAAIdpAAQAAAABAAAAWgAAAAAAAABIAAAAAQAAAEgAAAABAAOgAQADAAAAAQABAACgAgAEAAAAAQAAABegAwAEAAAAAQAAABcAAAAAVd28qgAAAAlwSFlzAAALEwAACxMBAJqcGAAAAj9JREFUSA3tlT2LE1EUhmcmMyMsCe5YbNRCtpHYyBb+BYsVBJtNE7CwsbK0sgoWomLpPzBgESwEwUJQEGRhKy1SpFtc3V1TCUkMbCYZn3Odc5ncxM1qJ3jhcL7e8865n+N788N3QlnuL4srzpbbgnq9XiJ6IQzDjVKpFE8mEwtaZoD3wB9lWfYRvddut01xqIXlcvn8eDx+BOAqsR4f0dRSTY0XBMEawDfIXWRPiiwDxCv45wC+8H3/KVpmctIxAX+HD1yiKeExw5LnvkznoNVqfcr9E6tGo3EA+GKxICg6YtO13Qc3d5y/qG6O/DiCP839J1+4Yv/usrjn3OMyrHBmEy6VyXEpzJuRpunMEZW4xqIoSqXOPcWWnNs14l3YB9BgAbfiODbrSJEhxZ97mBSTL3gM9i2xH7oBlnw0Gn2lm/t85D3JSAEUGNPtSvOqp9PpETN4NxgM9jVmyZMkOTUcDlch+wyR7RJbl8PGtLioBcfMz8Dzhbjp3hQ2m82w2+1eo+sHkK9rt8XiZbb0gOwyg3u1Wu01nKl5+arV6mWIH0JwBWJZ7BmhKCYfixZx8wV/jfx6r9fb6XQ633x+EqdZq2eQXgekS4D5awCWjuSVfAlmjC37cQN7A8lRMyoD84rTdjOE+DGpTWSOWEogOEQ9R3awp+iA4iF2Ffss4g7h2RTeEKAUR2gXZHziCcZt9C0FQBzxa0vQGnK1zO4w7Pf7TyqVygc2YtVF/K3P/nyHd3tRu25M29O4+vrt38W9n5M41XUmM6SuAAAAAElFTkSuQmCC;" vertex="1" parent="J7kSFfG_ZM8IoIkOiP3u-1">
          <mxGeometry x="1071" y="652" width="56" height="56" as="geometry" />
        </mxCell>
        <mxCell id="iV5j2CM3sd-YC19MhuGI-38" value="Text" style="text;html=1;align=center;verticalAlign=middle;whiteSpace=wrap;rounded=0;" vertex="1" parent="J7kSFfG_ZM8IoIkOiP3u-1">
          <mxGeometry x="789" y="516" width="60" height="30" as="geometry" />
        </mxCell>
        <mxCell id="iV5j2CM3sd-YC19MhuGI-39" value="Text" style="text;html=1;align=center;verticalAlign=middle;whiteSpace=wrap;rounded=0;" vertex="1" parent="J7kSFfG_ZM8IoIkOiP3u-1">
          <mxGeometry x="789" y="516" width="60" height="30" as="geometry" />
        </mxCell>
        <mxCell id="iV5j2CM3sd-YC19MhuGI-40" value="&lt;font color=&quot;#595959&quot; face=&quot;Arial&quot;&gt;Logistic Vender&lt;/font&gt;" style="text;html=1;align=center;verticalAlign=middle;whiteSpace=wrap;rounded=0;" vertex="1" parent="J7kSFfG_ZM8IoIkOiP3u-1">
          <mxGeometry x="1067" y="716" width="69" height="32" as="geometry" />
        </mxCell>
      </root>
    </mxGraphModel>
  </diagram>
  <diagram name="LabelPrinting" id="_Qt_In6Ytar8a9cZ_uHu">
    <mxGraphModel dx="1343" dy="985" grid="0" gridSize="10" guides="1" tooltips="1" connect="1" arrows="1" fold="1" page="1" pageScale="1" pageWidth="1169" pageHeight="827" math="0" shadow="0">
      <root>
        <mxCell id="H-hSeUacVVkauLeo3uML-0" />
        <mxCell id="H-hSeUacVVkauLeo3uML-1" parent="H-hSeUacVVkauLeo3uML-0" />
        <mxCell id="H-hSeUacVVkauLeo3uML-2" value="" style="rounded=1;whiteSpace=wrap;html=1;fontColor=#B3B3B3;strokeColor=#0A6ED1;" vertex="1" parent="H-hSeUacVVkauLeo3uML-1">
          <mxGeometry x="20" y="125" width="360" height="691" as="geometry" />
        </mxCell>
        <mxCell id="H-hSeUacVVkauLeo3uML-3" value="" style="shape=image;verticalLabelPosition=bottom;labelBackgroundColor=default;verticalAlign=top;aspect=fixed;imageAspect=0;image=data:image/png,iVBORw0KGgoAAAANSUhEUgAAAKcAAAANCAYAAADMkX5kAAAAAXNSR0IArs4c6QAAAIRlWElmTU0AKgAAAAgABQESAAMAAAABAAEAAAEaAAUAAAABAAAASgEbAAUAAAABAAAAUgEoAAMAAAABAAIAAIdpAAQAAAABAAAAWgAAAAAAAABIAAAAAQAAAEgAAAABAAOgAQADAAAAAQABAACgAgAEAAAAAQAAAKegAwAEAAAAAQAAAA0AAAAA/PNT5gAAAAlwSFlzAAALEwAACxMBAJqcGAAACl9JREFUaAXFlwmQVsUVRsOu7LJGBGdQUNlXlxDjCGWkgogaIhHUoAVqQLCiCMQVRbQMCQTRopSSEESRpViCYTMIsskuMYAaFkFAkR3ZBcWc8/Maen5+GChJ8lWdebf79eu+fe/tnpl8PzqhJpgPQD0oBKvgbwm7eKarDh2doBzMhCFwGIIuwmgNteD70MlzP3wG78BGCO+uwdaHAlAU+sE+iJWPRhu4HS6D72AljIXxcDrpTyuoD4vB8TsgC26FGqAvQ8H32h2gAZwPvWED2K/ygz7q6zJ4FWKdR+OvoM/b4UGIVYxGDri276fCbAiqjHEz1IUJMA1iGfcuUAs+hL/AFjgTtWOQcTSG5mw5DIPpoMrCfXAx+M69hX1j/teUxcw9oDCMDqt0xnDxdL6l7z2oDbEM/P0Qxhu49DF16JsSjQljfVpUFmlHMLlVoC1YAH3hWugFJjbWIBpHwDmOJmgb4Ilgwk+l3/DiAByEp6EgGIQ+oC/O435NXFh3BPYh8F3jqB8zVZweWt+NhfANZkrl+ek72QqXQ6wLaDwBvjceo6AEBFmUHiDf9YT0+X9LXzjc+qF/ecn4zILgV/x0n/2SCbJ5LgTj4cHwIP4v5B6+Af3q5qIGZACoL+Ep+D28C95iP4VnwIIMspiahQbPmvCTqJ1ufkLHcPAEWsi7waL8I9SBW2ABZMFmKJ7Y8ZrV6PNA6PMy0EeLbD540/8cBkMmNaTT4vQGNNhDwcDfAb8GfTmXMm7doglLYT8XtdNN99QcvDXSizB9rG3nN/6VbaDSUBU8bKeS874O1yUDvG1d70XwcBaB9tAKjsL/Xd4eFpbJNVnPg7eTegXuhpZgYA9BUCUMi1a5EYN0JbwN+yBdc+j4A6wH13wcOoO3Szb4jYVjkDw9I6EN6FOQyTApjvkdzAYD/jI8DDWgE6TLhOlbU/gC/G4jeDO1hkvgMDj3uZJ7DMXpzacP9fOY3AK+EWbB9DzGeojLJWO+52kcOsASWAeZVJ3O25IXK3g2Smy/nQRzQB86grnJpPx0enF42C+Dr2BR8uSRyq21UAbMqfE2XyXhIjDHm2ErGBfH5UBZmAEnqTY9btAimwfeirGKxg1snesKfrMURiT2ezwtrCBvxCngOG+0bAjytloDvmsPJeA5uB1crw+0hFgWq+OPgGu6sVgGOZOa0rka/HYo6L9rvADOZVJmwl7wMLSDMJfreCj91oSkaycdvhsL4RvHGEP798AvEttE5kBQ/GvdsSbL9YeAyfTwjAf7e0I8f3faJthEz4VdYDGc7gB05b37da0WEMt49IcuUBGyYCHozwSwKC2s1rAKnCOwDftJ0GeL7E3w3Xy4BpS5/BTsdw3HXgFLwP3Zb/29Ba5pO/Vr3VO0DNx8E1gLTvwoOIGDY1WmcSM42YdgAHeCxRicwcwlFwsqhHEtVEg6vubp3xlPg0Ey8KNgEsSaSMMEF4S2sAn+AQ/BhRCvQTMlCzgHqoG+Oq9JvBPug4NgAc6FvOSNa7EF9Lt0ho9MpIWvnD/MbeIeszODPqBvABSAW6ETnEqFedEYysNU6AcbwL8nG4ExzCS/Mcfm073EOkDjEXgFtkB8EGimitM49oXq8BlYSIuhHHSD9qBCHnxmsh1TEHpDbTBerr8PvBiMQUq+UE3BxVQhsMj8e9CE2n8JKJ22EHy/AQz8GvgIDFY98EZIl8U0C9aDp9zTUwI8BB/DYXAjw+BZWJ60eRzXIayrYHLScz7PG+AlWA2DID0xJsSgm5AF8C7kQHswqN5SI8H3ecnk63OgJLbxSJd9d4FzGjv3NgZMSBXIJAvCfXlJlIEW8DMIycU8rhpYP05aHuCp4EFR94M3XyY5r759B/szDThNnzm9GqyDVeBF4h47wzTwkF4PXmaZfKY7l6rRsjCLgHm5FIznw3A8F/lpKDfnYqXgIRgFFoMFcBsMBh3wvQViYi3ORbARXEBdDjVTVu4fJvRiyAKTfBQMaidYA2cq17oJKsCjMB4MtnN2gLchyEDeC649G14GE3QLNIHpMBp2QVxk2nGbZkoD+dkTeiRoH4R0mSBlUfYFY/wnUMatTco6+cc8uvTxG9C/X0JRSJf5qA9fwR5w/OLErsfT/WbSTjotnAJgvM5GFo7xVN6a+qrWwScp61h+K2PnVZy+rwQWppoIe1PWscvO2kjJ06wsQgNn8g2QeMoHQUuwsK4C3zcHdR18nLJO/DA4jgvOhzczMDzlW2ATrIAdcLbSx29hG/QD/cyCceBJrAoVwfd1oQ3sBv35FO6Ce8DiawbXg4Fx/+eBegPehFaQH4KGYyyFEHzfPQZ+G0uflIW1OWWd+FEWszOMPtF13PKQ/R1qwSOQA64V1vPpnN46Fot4a6XrBjrWgfuKpe/toCA0hXcgyL0PgDIwGyZDrAI0/HNCeei8uJQ+mw9VCJz7TOS4cAEcwA57zPWtAf4VfA46WwKCdmAYLOU4A2PFNwadcvPeOuIJ1mkDZnArQKy1NMbBWzALnPts1Y0P9NM5QiG5pnPNBOWG3XhNeAr028L8MyjbBlppO7YYGNgg+5Vzna38tmnykYdiK3hQtoO/Sl37Agi3BmYuOdabxL9BHZue7Ab0VQX1NTg+4D87qiOUTVm5f1jI5k29cOyR+uk+nfMB8Fa+CbyNY1lA3tTKubM1kPXiftROcM/OFxRs4xvi6jvrJRR1Dew4/r5Pyc17WsonLOc5CLxl6oJ/w1jVLuot0AJ0aDZ4C20EZVE+Dv6qqwPeYibmXMrbuyg0hzkwBvTJw6KfygIQA9wQvEFGgQdITYaVYOLDjXcU+164A4rAM+A/Wo6z70xlnJolg02uN7iHJ+hqjAVwIejvMMik+XQOh1pQOhpgov0t5r6M+z3gb6Sg/hgWZnXwO4vBvQX5d7n7twDNj74MBXPXFZQFPwSMT6wdNP4F7su6cJ19YC5agessho+gDSj9vxNuhrZQFZT7WAPmxO8cY54s/u5wUqE+T6fBzcR6+juAixm4g/AapOtuOtyEG+gB9WEKOOdgyIYfqmFM4PzO6cY8fcHntdhXgut6MOwfCx7AvNSLAXvB+dqBAVQjwF9hzuUhCP2YqeQb4LCOfcuS9pc20nQpbcd6e70PxeAJsG8cxEkpT7s/hD32xC4F7t/xA6ESxGpA49/g+z7g+HQVp2MeOCYd8/oiqGxYCMZjAljoVWAAGP847s4zFRqBehYs3DC/ezAu25O+LjxLwoOwOekLY13T8bZ7hxMyg4aFpBMm0xPvRsdAL/BdaagKH8Bo2ACxjtDYDy7oDbwJnG8LzIEVcAB+iAzUUtA/N7Eb/gmvgZvWpyvARE+CV0F/8lIJBuwBT76xCMXlnv1e342BN0tQPoyK4I1iwpdAw+TpuishlkW5Ez4H9+D4wmBM5oJ9JkXZtx22wafwPlgUZWAdvAH2x3Lu4rAGPGgm+hDEMm5DwYNsbvTpC5gG3eF1UNaFv6Wcy3zrq3tfBMbb4jReFt1LYFGvBmU8dkARMG7Wz0iwzzHG1xgsBufXJ9sD4UlwXfOw+j8XnNYbxkO7agAAAABJRU5ErkJggg==;" vertex="1" parent="H-hSeUacVVkauLeo3uML-1">
          <mxGeometry x="69.00000000000001" y="140" width="232" height="18.06" as="geometry" />
        </mxCell>
        <mxCell id="H-hSeUacVVkauLeo3uML-4" value="" style="rounded=1;whiteSpace=wrap;html=1;strokeColor=#0A6ED1;" vertex="1" parent="H-hSeUacVVkauLeo3uML-1">
          <mxGeometry x="460" y="125" width="529" height="690" as="geometry" />
        </mxCell>
        <mxCell id="H-hSeUacVVkauLeo3uML-5" value="" style="shape=image;verticalLabelPosition=bottom;labelBackgroundColor=default;verticalAlign=top;aspect=fixed;imageAspect=0;image=data:image/png,iVBORw0KGgoAAAANSUhEUgAAAQ4AAAAQCAYAAADnGpH6AAAAAXNSR0IArs4c6QAAAIRlWElmTU0AKgAAAAgABQESAAMAAAABAAEAAAEaAAUAAAABAAAASgEbAAUAAAABAAAAUgEoAAMAAAABAAIAAIdpAAQAAAABAAAAWgAAAAAAAABIAAAAAQAAAEgAAAABAAOgAQADAAAAAQABAACgAgAEAAAAAQAAAQ6gAwAEAAAAAQAAABAAAAAAfkjL+wAAAAlwSFlzAAALEwAACxMBAJqcGAAAEWNJREFUeAHtlwm4jmUaxyMUQlJJw5wjIlSkhZJQ2pv2labRaCbTMm1Tpm1iKGlfZ9pUU9NCi2gbUREphCxZspwTkp3QQkfN7/d57+n1zXc4RZdmLv/r+p33eZ/1fu77fp73O6W2WqtSPKrDcbAfbAuzoB+MgyLIVkMqmkJ5+ADGQlq1eGkO2yeV3yXPz3lOgmnwDUQ9xYxK87ct5EG6TRsXwlBYBmtgU2oXJtsTXP9DcK30+rz+LKQfasPhkMsHtitjNgXe82UjVImx7eBbGA1j4KeWMdgXmoDr9oEVsDllnrcE81JFbqymbD5PhS9Ae+23O5SBZ2E5lETu2zHG0Phlx1cbPJ/NwPVfho9hs0gjDwQ3rjEaK5Z1wlNQE9JyzD2wCuw3ErJ1NBUmru3Z6OxBoIO3hrTK8dIfssek37vTXjE9aBOUPRza5TongUH8OUp/nQFpf+Qqf00fY7SxqsMEMf8NGztZCcebAz2Sdf241C7huJ+y285M7kENX6SfnhMvj/bgwX8Y4mzov5LqYDrOB+e+BipAyLjfC55N19MvZ8NmkZv0gNwE9WAxeAn4qyAPGoMHqgg6gBtS9t0LDLDaH7xhp/mSUvQvoG5mUl+NZ304DFbCXJgBacW4JVSOhxXgryB/EdSAq2AU9INNpXlM9CaUhQWbatKfYB59swjcv8lTGfJhO/gS9JeJ5SUYPqf4oxWxcIJ0+UdP+AMHbo41izMxbPGXhedEP/sB83JoANdBAdgv+lIssRzjnLlknC8C+/iRHwSTYbPIi8OEaw0aNBTOAy8QL4eL4QAYDF4w3nbKi2IPMHGdw18gvwEdl0u9qewJruG4q+EE8GeXl0j2xUFVRhP52wl0lAG6HLqCcpy2NwUvsOkwG7RxX/BfJL+6/gvlgXK8l51fLy8HL0fHfATKS+9BcC8FYAC9DPOgCGaBPtgTXK8Q/JfGA6ps2w0aQSVYBhNAmyIZtMGfmTVAX+jnj+ETiD6u6U/08qDdjncey8p+78OZ4Bzu9XrYG+bAOaC9tjlGmxpCVVgOzjUT0tqZFz8SO4H+s30UKP0Rcs5fgj4wkRfBIFDuWf9WgALwo+A+dkzKI3jOg5DzNADXNo9s89JbAutTHRpjP8a3EBxnOeRezdFqScV8nmNAGx1rPulnY1cI+l/Z3/gZX/1uv1z6lMp2oH+rQ0foDM5ZE3KpLJXabjx2SDq4hrFcBfrD87ANKPu2AW23XZ8r4zMFeoPj1fagr2vA1uAY+0S7cd0DnLsQVkBTWAiegzxQ2lIf6oJxd//mS8Rcv3hOxsFWVUAHfgsmy2kQDjcAbiYtE+ZOcAPvgkliQs0EAxM6moI3om1dIBJQ4zuB9UvhFEhL4/qB7UPAjYT+REE7TbRjwEQdDh6+86E8qCdBx5nUeaBj/wgfgGt+AR6yt+ByUMeCCajNbUGZDM4zFh6FV8GkWQD6qjkoLw33MQAM1nL4BF4BA6rcl36bBAZLZsDr0BpUaxgIBt6kNLDafB9ETCiuo4N4Gwn6awKUAeV6xtL5tWUluGdtbAbKmDSCZ0AfapOXgfNdA6oOOLfozz5grBeDiXUJqIbg3JNBe3vBdFgG+uTvEGpJ4VkwCbXLy2IiPAD1wEPWA1xzNdQGdSq8AbEf/aOtXSByz1g/De7HtY23Nj0O5pW2e2j0vXG9FEIXUxgN9t83KpOnF1x/0CbbI9cobnUUhI/aU34Ivk7q9N+OcCXov0IwP7RtPHQB1QH0UxE4l3vTf/rpXigE678F/TUOXFd/3Q/6z3rndu/64GBQh8JQMF5/A+Nt+VbQLsvmeRcYDq5tfPX1VdAXtG0eOE9jyNxQBkyjPJCF4AbvgJMh7SBeM053cvt3hntgDayGIyB0NAUdbL9bYCfQgU3hFbBex7SFtMrxYoBt/wyeh4fhOTBhDIhrVoZmsADsey1UBPUOWFcAdaEV6BjrXLsH9Afn6gbqLFgF9jkR1O3gu/tbDh5onWfwrHce1QRMSOsK4Un4CHw3sd3TfqB/V8ALYNDeA+tagQq/GiTbnwAvqt5QDXKpBZWu4VoTwEOn6oD+sn4aOFch+K5tysMwDNyP+3oJnMP9fgktIR8cI8bYfiaVfaybA2ofcB3rPKwmsQkZvnIf9WEvMAbuW188A+ab44zHg1ABekCsmU85D5zDurnQByYm7yt5XgJlwH1Gn5sp9wT9oB0e1rdgWzDW7sFYVQJjNADs5/zZ0lfmjHN7MGvBjlAb7gTrtf8UeCgpW2ccdgd98QUYY/38GbiWtu8CjhsD2uW4GWAe3wtd4X2wXpvNj9fgOHgMXNe2l8G5V4Cx8hzp8+PB9exjXIpgFuif28B60T8zwfG+a4v99YcfFNe23jEZ/ZK/vtgYk5g4DtBgF1eloR3oAJPjMGgCGuKkBiGUvjgWUuklMgk0LDb6D8o1IK1yvMTFoWNNMJ1gWdu06Q+wNTSHBWD9tRAXx5CkroCnF8cpEM64nXIeGKxWYEKosyCCdmKm5vuLw/oXYU/oAB+Da5q86lXwfSocASbUeeChsl7/XpiUDUS3pC6PZ2sIu/Wr/T8C96ZtB0IdcL+51ILKkeC4CeDFoQ97Qcx1KmVt0rbw126UTWj7yN1QA2rBNOgLR0E+RB+TsiXUg9lJvYmv0hfHGN6PBfc9HhzvZXMydICI/0WUY01tt98MsF+P5N3Ya1Ov5H05z6vB+B0MwyDGVU3K5soAqAL20277TAdtLwV3gHX62lxtCOPAOtuyZSz6g+2rYAqYz+bCMrB+OOwND0Hs0diVh5OgHdQGffU4RLwPp2wOuO+IT0/K2uq61eAAiLUfoey+joOpSf0bPI1xPtwE9tVXrns8xMXhmr8Dz3QehB/sfx2YExeA70XwGviBPhuMjfUDy/BHeftcBbdAGzgTjoQaCYN5NgL7m6gVwIBpxFwogLrgAm5oHqTlhiSkQU9AF3BDxcmg3gvOVxPOB79Yt4EJOwVKohV0MrjbwSVwMTj2BRgBG9LXdHgXJkI5MLg6OA6zyaKqQ2dYDSZCJVANwPGqKlwN2uFheRq8nJW+1I/2HwLueyDcCGugpCpLR5NU7QD67Tww6PpAtYfJmdLaj4D+iFgYaw+f5ENoLIVh4DzfRGWOpza7X33eD4xZKdgG9ItPffQhxJrmn0m6K7SEryDk3k9JXpbwvAts/xzM3RbgJZVWaV48ONoavptGOS68PpQvgzyoB/uDh9x99YD1yRyon9XB/f4ZxoN7TUtb9Z3reSF4riJ3KGb84VmaD2Gre5sDX4Iqv/aR2Y/5bG7kQ1VQz8CihME8O4P5VxucJ/QwBVGe47StfXnXR/pM6YtJMALsF7aULZNUVObpAgayd8LOPDWmDewER4C3m+/Kd0nLTVjnpZCWB1RMxOkwA0yqDWkpHYbC5KTjIzx1qBu+An4LG5IbfgPOh+7QANy3ySwnwCGwPunIcKb90mXfPahKP7bMlNb+cb9SCwaBNvwF9K17OChhT54XgheQPj8GtNtxHeFUOAA+hpLKg6Ncq1WmtPaP9hSBe3ANtRq8HEP2WQPpPrb5LhuS46Of8+RS9lxeXKGwK959Rp1zexCV+4j5bfe9PTwFrWAcmPzGeRV0g9hnAeVR4IXRDPSTl5qHxI/S+jSXxmvAOWclpA8nVeuoEW+vQD7MB8/YtnAkuObGKPyStln/eMHuCF5Q0YdixmafuaRvVcRu7dvav+vUmVwm5EjoA8eDh99N6eAxoBzkYasHHjxvx5nggZZJYIC2h19BtiZS8SzosNFQkkuDbplN+4XUuc69G4QT1tkI9ZWhCpgAlSBkv/IwFtrCvtABpoOy/x6QPZ9tJdX8pOOHPJ2rHOjDfNgVHgF9PRD0335wKegX1QnsXx3Og3w4CfqCh9p9VYPYO8X1ygQwJso1wybtyofdoTuE3X4YaoNJph13wVlQEyKZKG609HFcSNqi711TOoLya1qQKX3/x33HxWI+tAH9qd3mhfKD4vyDYS6Yj/Y1F94C92PuRZyXUu6VvJ/A82BQPcELYX3yl4zn5VkYDnOgOGn72ZAPU+H34F4HQ651wr4KtJcBfVOcvBziImxL2bXKQT3w0jB2i8Ac2qTSsG1AB5vg98FL4AZ/AWeBxsyG6XARqDfhBgiHafxQaAIavReEAyhm5DzZdUlTsQ9t0ukmuBfaEaC9JoXJoCyro8D9eDAbQ8i6Q6ETDINRMAOmQV3QqSbdxuhRBt8BHshr4EXwIjsTDJ5+PA702f3gZTsOCsCv0QJwX71hDBiDZTATvgKTwX2W1H/uqTs8B4fAdfA8OM85UAeagvPPg13gQDgd8uDXcCH4q85xm0rfMpFr6n997/zbgvu6Gmz3p77+uwBCZSh0hVfBC/SvcCccAM1A9Qd9dDGYNx+B+ze2c8ELyfh4obqOfY3DZ2B/9Ql4udi+IZnPJVXMb06Yi3tDe9gelJeEWgXaWwPM9VnguRsMufQeldPA/mfA++BZ7AhKX7pHL+ifROcyqw4rAoOYxsXbQST4asomYllI6zJeHLcELB8FU8E6A10aSiKT+2VI25Auz6HtMdBZ+WCSrYHoozN1uO8mgnbrVB1sv8VgItmurbeAe3GPJpP1J4G6A3w36a4A1RTeBetd232Z/E+Ch916fWTy+dSvleAmmA22e1EsBO3Rxg6wKxh46xz3KXwFX0JfqA651ILKD8B5PSwRF5PyEVgEYZNP5x8FJmt56AQzwbbA/caFUSdVfwPlUCEF+2uf0i8zwLqeUAWUsbdO35wO+sp8mwTWpxnOu7FyDzcnbdq7G3h5eOlG7GLcSurMl1qgHoZoSz/tNwyOhZA+fQCin7lQORqznvZ9BexrXuu/4qTfjaF968LJEHGwzstqKOg737uCqgkPQYy17TUoB7b5bo7eBaHTKOg328S8k4nQEYzxCTAfbHePIffgXDG2YdIQMV/F++1JXXOe5pd93zEY6p8wGQ4Cg+SEX4BJPQI8KHmgk02qN8ANpNWbF5NVo6eByXgfVIMh4IIlkYnyNIyF9BidbPA9UDrdC0D7u4N9q4IBGQT7gPYuBevmgP0bgwEwEMtB5xoY9zIBusHWoC/UAHC/OtALSTlfL3gTwpG2XwGuXR9MPu0tBC8D5+iRlLVhZygF2uShHwh+KS6EZqDtFeErKIDXYSHk0mwqTTb3ZXLof+VB7QxvgwlRBZyvEN4D7VPGfhZ48LVLO6bAy6CWwI1QBMYxZMIZ78iDzyjfAzvAMNAnyvWV6+kv538OzK1msAvoC9+N60gwBvrSOdyPcXT9y8H59oJqYI5OB/sa4z0SXOspsN2Lyn21gRZwPbwKynn1r3LMa2CscsncMy9Hg7GIfVP8L/Wnxv2UBf1nfC+FBuB+PgTbW4O5MgbUPNCH+qk62HcCeCaWQ3fwUhkFoRcpmAMHQm34DuaCfTy7xnwq3AqupY9D7uFf4NzKfSn90g1cy3go/Xs/aFchrCM3akAMps8yELJcHgyEgc0l28WDaR/7+u68P0SOj7niWdwcpejrRWcSO05tA45zfdtDttvPvW0XlclTe2Ot2J9rRl34ojR1MX+sl0yR+fXhvM5vkOybLcfuAPZx7rR9vGbeK/G03cMe61LMqbQ97jdbzl8Rwqbs9aK/Y7VLu9N9LOtfbU3HIGJrvdKOqLNfzJH2YfjV/ip84brZbelxMVdmEH9c0/3op/Q4L3QPzmI4G9yLcx8Ck8C218HkfxDuhvFg/fNQC4qTNkRe5vJzelz0S8dX/5gbxsK5JPylH9Iy5vbV7+Fz+zufRB3F/0g/uFfJns+2WCt7bC4/51orHd/s+Zl+i7Z44H/XA+diupeAX+jZMByGwBTw14tf8iZwJdjHXxl+1RfAGZC+hHjdouI84M2yRVs88P/iAb+KjeE0qAleIsqf4CNgACyHTtAW/Dp/Ak/B2+BlskUl8MC/AS4va5Xu1smTAAAAAElFTkSuQmCC;" vertex="1" parent="H-hSeUacVVkauLeo3uML-1">
          <mxGeometry x="565" y="142" width="337.5" height="20" as="geometry" />
        </mxCell>
        <mxCell id="E8FsvfMaI8d220EhHX9X-0" style="edgeStyle=orthogonalEdgeStyle;rounded=0;orthogonalLoop=1;jettySize=auto;html=1;strokeColor=#595959;" edge="1" parent="H-hSeUacVVkauLeo3uML-1" source="H-hSeUacVVkauLeo3uML-7" target="H-hSeUacVVkauLeo3uML-18">
          <mxGeometry relative="1" as="geometry" />
        </mxCell>
        <mxCell id="H-hSeUacVVkauLeo3uML-7" value="&lt;font face=&quot;Arial&quot; color=&quot;#595959&quot;&gt;SalesOrder&lt;/font&gt;" style="shape=document;whiteSpace=wrap;html=1;boundedLbl=1;strokeColor=#074D92;" vertex="1" parent="H-hSeUacVVkauLeo3uML-1">
          <mxGeometry x="119" y="247" width="120" height="80" as="geometry" />
        </mxCell>
        <mxCell id="H-hSeUacVVkauLeo3uML-12" value="&lt;h1 style=&quot;margin-top: 0px;&quot;&gt;S/4HANA Cloud SideBySide&lt;/h1&gt;&lt;h1 style=&quot;margin-top: 0px;&quot;&gt;&amp;nbsp;Label Printing&lt;/h1&gt;" style="text;html=1;whiteSpace=wrap;overflow=hidden;rounded=0;align=center;" vertex="1" parent="H-hSeUacVVkauLeo3uML-1">
          <mxGeometry x="380" y="3" width="415" height="120" as="geometry" />
        </mxCell>
        <mxCell id="H-hSeUacVVkauLeo3uML-18" value="&lt;span style=&quot;color: rgb(89, 89, 89); font-family: Arial;&quot;&gt;OutboundDelivery&lt;/span&gt;" style="shape=document;whiteSpace=wrap;html=1;boundedLbl=1;strokeColor=#074D92;" vertex="1" parent="H-hSeUacVVkauLeo3uML-1">
          <mxGeometry x="119" y="450" width="120" height="80" as="geometry" />
        </mxCell>
        <mxCell id="H-hSeUacVVkauLeo3uML-19" value="" style="group" vertex="1" connectable="0" parent="H-hSeUacVVkauLeo3uML-1">
          <mxGeometry x="670" y="269" width="119" height="490" as="geometry" />
        </mxCell>
        <mxCell id="H-hSeUacVVkauLeo3uML-20" value="&lt;font face=&quot;Arial&quot; color=&quot;#595959&quot;&gt;Backend Servcei&lt;/font&gt;" style="rounded=1;whiteSpace=wrap;html=1;absoluteArcSize=1;arcSize=14;strokeWidth=2;strokeColor=#053B70;verticalAlign=top;fillColor=none;" vertex="1" parent="H-hSeUacVVkauLeo3uML-19">
          <mxGeometry x="-150" y="98" width="224" height="213" as="geometry" />
        </mxCell>
        <mxCell id="H-hSeUacVVkauLeo3uML-21" value="&lt;font face=&quot;Arial&quot; color=&quot;#595959&quot;&gt;CustomEntity&lt;/font&gt;" style="rounded=1;whiteSpace=wrap;html=1;absoluteArcSize=1;arcSize=14;strokeWidth=2;strokeColor=#0F828F;" vertex="1" parent="H-hSeUacVVkauLeo3uML-19">
          <mxGeometry x="-106.5" y="138" width="113" height="35" as="geometry" />
        </mxCell>
        <mxCell id="H-hSeUacVVkauLeo3uML-22" style="edgeStyle=orthogonalEdgeStyle;rounded=0;orthogonalLoop=1;jettySize=auto;html=1;exitX=0.5;exitY=1;exitDx=0;exitDy=0;entryX=0.5;entryY=0;entryDx=0;entryDy=0;fontColor=#595959;" edge="1" parent="H-hSeUacVVkauLeo3uML-19" source="H-hSeUacVVkauLeo3uML-23" target="H-hSeUacVVkauLeo3uML-27">
          <mxGeometry relative="1" as="geometry">
            <Array as="points">
              <mxPoint x="-50" y="247" />
              <mxPoint x="-50" y="247" />
            </Array>
          </mxGeometry>
        </mxCell>
        <mxCell id="H-hSeUacVVkauLeo3uML-23" value="&lt;font face=&quot;Arial&quot; color=&quot;#595959&quot;&gt;CustomQuery&lt;/font&gt;" style="rounded=1;whiteSpace=wrap;html=1;absoluteArcSize=1;arcSize=14;strokeWidth=2;strokeColor=#0F828F;" vertex="1" parent="H-hSeUacVVkauLeo3uML-19">
          <mxGeometry x="-106.5" y="201" width="113" height="35" as="geometry" />
        </mxCell>
        <mxCell id="H-hSeUacVVkauLeo3uML-24" style="edgeStyle=orthogonalEdgeStyle;rounded=0;orthogonalLoop=1;jettySize=auto;html=1;exitX=0.5;exitY=1;exitDx=0;exitDy=0;strokeColor=#595959;" edge="1" parent="H-hSeUacVVkauLeo3uML-19" source="H-hSeUacVVkauLeo3uML-21" target="H-hSeUacVVkauLeo3uML-23">
          <mxGeometry relative="1" as="geometry" />
        </mxCell>
        <mxCell id="H-hSeUacVVkauLeo3uML-25" value="" style="shape=image;verticalLabelPosition=bottom;verticalAlign=top;imageAspect=0;aspect=fixed;image=data:image/svg+xml,PHN2ZyB4bWxucz0iaHR0cDovL3d3dy53My5vcmcvMjAwMC9zdmciIGZpbGw9Im5vbmUiIHZpZXdCb3g9IjAgMCA0OSA0OSIgaGVpZ2h0PSI0OSIgd2lkdGg9IjQ5Ij4mI3hhOzxjaXJjbGUgc3Ryb2tlLXdpZHRoPSIwLjg1NzE0MyIgc3Ryb2tlPSIjRDVEQUREIiBmaWxsPSJ1cmwoI3BhaW50MF9saW5lYXJfMjYyMl8yOTAyKSIgcj0iMjMuNTcxNCIgY3k9IjI0LjAzNDkiIGN4PSIyNC41Ii8+JiN4YTs8cGF0aCBmaWxsPSJ1cmwoI3BhaW50MV9yYWRpYWxfMjYyMl8yOTAyKSIgZD0iTTIyLjQ5OTggMjkuMTA1MUgyMS40ODIxTDIwLjk5MTkgMjcuNjMwMkgxOC42Mzk0TDE4LjE0OTIgMjkuMTA1MUgxNy4xMTkyTDE5LjIyMDMgMjMuMzAwMkgyMC40Mjc1TDIyLjQ5OTggMjkuMTA1MVpNMTguOTExMyAyNi44MTg2SDIwLjcyNDFMMjAuMTA2MSAyNC45NjA1QzE5Ljk2MDUgMjQuNTMyMSAxOS44NjQ0IDI0LjIzNDEgMTkuODE3NyAyNC4wNjY1QzE5LjgwMTIgMjQuMTM1MiAxOS43MDUxIDI0LjQzNTkgMTkuNTI5MyAyNC45Njg4TDE4LjkxMTMgMjYuODE4NloiLz4mI3hhOzxwYXRoIGZpbGw9InVybCgjcGFpbnQyX3JhZGlhbF8yNjIyXzI5MDIpIiBkPSJNMjMuMjg2NiAyOS4xMDUxVjIzLjMwMDJIMjUuNTY0OUMyNi4yMjEzIDIzLjMwMDIgMjYuNzIyNiAyMy40MTk3IDI3LjA2ODYgMjMuNjU4N0MyNy40MTQ3IDIzLjg5NzYgMjcuNTg3NyAyNC4yNTg4IDI3LjU4NzcgMjQuNzQyMkMyNy41ODc3IDI1LjA4IDI3LjQ5ODUgMjUuMzY1NyAyNy4zMiAyNS41OTkxQzI3LjE0NDIgMjUuODMyNiAyNi44ODc0IDI1Ljk4OTEgMjYuNTQ5NSAyNi4wNjg4QzI2Ljk0NSAyNi4xMjEgMjcuMjQ4NSAyNi4yNjkzIDI3LjQ2IDI2LjUxMzdDMjcuNjc0MyAyNi43NTgyIDI3Ljc4MTQgMjcuMDc0IDI3Ljc4MTQgMjcuNDYxM0MyNy43ODE0IDI3LjgzNDggMjcuNjg2NiAyOC4xNDUyIDI3LjQ5NzEgMjguMzkyNEMyNy4zMTAzIDI4LjYzNjggMjcuMDU3NyAyOC44MTY3IDI2LjczOSAyOC45MzIxQzI2LjQyMDQgMjkuMDQ3NSAyNi4wNjIgMjkuMTA1MSAyNS42NjM4IDI5LjEwNTFIMjMuMjg2NlpNMjUuNDcwMSAyNS42ODE1QzI1Ljg0OTIgMjUuNjgxNSAyNi4xMjY2IDI1LjYxNDIgMjYuMzAyMyAyNS40Nzk2QzI2LjQ3ODEgMjUuMzQyMyAyNi41NjYgMjUuMTQxOCAyNi41NjYgMjQuODc4MUMyNi41NjYgMjQuNjIgMjYuNDc5NSAyNC40MzMyIDI2LjMwNjUgMjQuMzE3OEMyNi4xMzYyIDI0LjIwMjUgMjUuODc2NiAyNC4xNDQ4IDI1LjUyNzggMjQuMTQ0OEgyNC4zMDQyVjI1LjY4MTVIMjUuNDcwMVpNMjUuNTgxNCAyOC4yNjA2QzI1Ljk1MjIgMjguMjYwNiAyNi4yNDA1IDI4LjE5NDYgMjYuNDQ2NSAyOC4wNjI4QzI2LjY1NTMgMjcuOTI4MiAyNi43NTk2IDI3LjY5ODkgMjYuNzU5NiAyNy4zNzQ4QzI2Ljc1OTYgMjcuMDc4MiAyNi42NTM5IDI2Ljg2MjUgMjYuNDQyNCAyNi43MjhDMjYuMjMzNyAyNi41OTA2IDI1Ljk0OTQgMjYuNTIyIDI1LjU4OTYgMjYuNTIySDI0LjMwNDJWMjguMjYwNkgyNS41ODE0WiIvPiYjeGE7PHBhdGggZmlsbD0idXJsKCNwYWludDNfcmFkaWFsXzI2MjJfMjkwMikiIGQ9Ik0zMy41ODEgMjkuMTA1MUgzMi41NjM0TDMyLjA3MzEgMjcuNjMwMkgyOS43MjA3TDI5LjIzMDQgMjkuMTA1MUgyOC4yMDA0TDMwLjMwMTYgMjMuMzAwMkgzMS41MDg3TDMzLjU4MSAyOS4xMDUxWk0yOS45OTI2IDI2LjgxODZIMzEuODA1M0wzMS4xODczIDI0Ljk2MDVDMzEuMDQxOCAyNC41MzIxIDMwLjk0NTYgMjQuMjM0MSAzMC44OTkgMjQuMDY2NUMzMC44ODI1IDI0LjEzNTIgMzAuNzg2MyAyNC40MzU5IDMwLjYxMDYgMjQuOTY4OEwyOS45OTI2IDI2LjgxODZaIi8+JiN4YTs8cGF0aCBmaWxsPSJ1cmwoI3BhaW50NF9yYWRpYWxfMjYyMl8yOTAyKSIgZD0iTTM0LjM1OTMgMjkuMTA1MVYyMy4zMDAySDM2Ljc1NzFDMzcuMjEzIDIzLjMwMDIgMzcuNTk2MiAyMy4zNzU4IDM3LjkwNjUgMjMuNTI2OEMzOC4yMTY5IDIzLjY3NzkgMzguNDQ5IDIzLjg5MDcgMzguNjAyOCAyNC4xNjU0QzM4Ljc1NjYgMjQuNDQwMSAzOC44MzM1IDI0Ljc2MTQgMzguODMzNSAyNS4xMjk1QzM4LjgzMzUgMjUuNDgxIDM4Ljc1OCAyNS43OTk2IDM4LjYwNjkgMjYuMDg1M0MzOC40NTU4IDI2LjM3MDkgMzguMjI3OSAyNi41OTg5IDM3LjkyMyAyNi43NjkyQzM3LjYxODEgMjYuOTM2NyAzNy4yNDYgMjcuMDIwNSAzNi44MDY1IDI3LjAyMDVIMzUuMzgxVjI5LjEwNTFIMzQuMzU5M1pNMzYuNjcwNiAyNi4xNTEyQzM3LjA0OTYgMjYuMTUxMiAzNy4zMzI1IDI2LjA2MzMgMzcuNTE5MiAyNS44ODc1QzM3LjcwODggMjUuNzA5IDM3LjgwMzUgMjUuNDU5IDM3LjgwMzUgMjUuMTM3N0MzNy44MDM1IDI0LjgyNDYgMzcuNzA2IDI0LjU4ODQgMzcuNTExIDI0LjQyOTFDMzcuMzE2IDI0LjI2NyAzNy4wMjQ5IDI0LjE4NiAzNi42Mzc2IDI0LjE4NkgzNS4zODFWMjYuMTUxMkgzNi42NzA2WiIvPiYjeGE7PHBhdGggZmlsbD0idXJsKCNwYWludDVfcmFkaWFsXzI2MjJfMjkwMikiIGQ9Ik0xNi4wMDg0IDIyLjc1NjZDMTQuNjk1MSAyMi43OTAyIDEzLjY1NTkgMjMuODgzOSAxMy42ODk1IDI1LjE5NzFDMTMuNzIzNSAyNi41MjggMTQuOTAxNCAyNy41ODQ5IDE2LjIwNzMgMjcuNTEyNUwxNi43Mjk4IDI3LjQ4MzZMMTYuMTAxMiAyOS4xMDUxTDE1Ljg1NzEgMjkuMDkyMkMxMy44MTMyIDI4Ljk4NDQgMTIuMTYyMiAyNy4zMTgxIDEyLjEwOSAyNS4yMzc2QzEyLjA1NDIgMjMuMDkxOCAxMy43MTk0IDIxLjI5ODkgMTUuODQ4MiAyMS4xODFDMTYuMDIwNCAyMC41MDQ5IDE2LjM0NTggMTkuODczOCAxNi44MDY2IDE5LjMzODhDMTguMTUzNyAxNy43NzQ1IDIwLjMzNjkgMTcuMzU3MSAyMi4xNjA4IDE4LjE0NzNDMjMuMjk5NiAxNi44NDY1IDI0Ljc4MDkgMTYuMTQ1NiAyNi41NjQ1IDE2LjMwMzdDMjkuMTA4IDE2LjUyOTIgMzEuNDI2MiAxOC40MDY2IDMxLjY3MzMgMjEuMzcxOEMzMS43MTM1IDIxLjg1NDggMzEuMzM5NiAyMi4yMzcxIDMwLjg5MjkgMjIuMjc3NEMzMC4zNjY3IDIyLjMyNDkgMjkuOTU4NyAyMS45MTI2IDI5Ljg5NjUgMjEuNDQ1OUMyOS42NDM5IDE5LjU1MzkgMjguMDk5MSAxOC4yMTEyIDI2LjQwODcgMTguMDYxM0MyNS4xNDY5IDE3Ljk0OTUgMjQuMTYxNSAxOC40NjQ0IDIzLjM0MjcgMTkuNDg2TDIyLjk0MjEgMTkuOTQ1NUMyMi42OTM4IDIwLjIzMzggMjIuMjgzMiAyMC4yNDQ0IDIyLjAwNjEgMjAuMDUwMkMyMC43ODI0IDE5LjE5MjQgMTkuMTEwNyAxOS4zNzE4IDE4LjE0NTkgMjAuNDkyMkMxNy43NTgzIDIwLjk0MjIgMTcuNTI0NiAyMS41MDI5IDE3LjQ3NCAyMi4wOTU4QzE3LjQ0NSAyMi40MzYgMTcuMTY4OCAyMi43NDkyIDE2Ljc4MjEgMjIuNzQ5M0MxNi41MjM5IDIyLjc1ODIgMTYuMjY2NCAyMi43NSAxNi4wMDg0IDIyLjc1NjZaIi8+JiN4YTs8ZGVmcz4mI3hhOzxsaW5lYXJHcmFkaWVudCBncmFkaWVudFVuaXRzPSJ1c2VyU3BhY2VPblVzZSIgeTI9IjQ0LjI3OTIiIHgyPSI0MS41NjQ1IiB5MT0iNi44NDc3NSIgeDE9IjQuODUyODciIGlkPSJwYWludDBfbGluZWFyXzI2MjJfMjkwMiI+JiN4YTs8c3RvcCBzdG9wLWNvbG9yPSJ3aGl0ZSIvPiYjeGE7PHN0b3Agc3RvcC1jb2xvcj0iI0VBRUNFRSIgb2Zmc2V0PSIxIi8+JiN4YTs8L2xpbmVhckdyYWRpZW50PiYjeGE7PHJhZGlhbEdyYWRpZW50IGdyYWRpZW50VHJhbnNmb3JtPSJ0cmFuc2xhdGUoMjAuNDgxNiAyNC4xNzM1KSByb3RhdGUoMTQuOTY2OSkgc2NhbGUoMTUuNjU2OCA3LjExOTQ0KSIgZ3JhZGllbnRVbml0cz0idXNlclNwYWNlT25Vc2UiIHI9IjEiIGN5PSIwIiBjeD0iMCIgaWQ9InBhaW50MV9yYWRpYWxfMjYyMl8yOTAyIj4mI3hhOzxzdG9wIHN0b3AtY29sb3I9IiMxMzQ4RkYiLz4mI3hhOzxzdG9wIHN0b3AtY29sb3I9IiMwNjIzOEQiIG9mZnNldD0iMSIvPiYjeGE7PC9yYWRpYWxHcmFkaWVudD4mI3hhOzxyYWRpYWxHcmFkaWVudCBncmFkaWVudFRyYW5zZm9ybT0idHJhbnNsYXRlKDIwLjQ4MTYgMjQuMTczNSkgcm90YXRlKDE0Ljk2NjkpIHNjYWxlKDE1LjY1NjggNy4xMTk0NCkiIGdyYWRpZW50VW5pdHM9InVzZXJTcGFjZU9uVXNlIiByPSIxIiBjeT0iMCIgY3g9IjAiIGlkPSJwYWludDJfcmFkaWFsXzI2MjJfMjkwMiI+JiN4YTs8c3RvcCBzdG9wLWNvbG9yPSIjMTM0OEZGIi8+JiN4YTs8c3RvcCBzdG9wLWNvbG9yPSIjMDYyMzhEIiBvZmZzZXQ9IjEiLz4mI3hhOzwvcmFkaWFsR3JhZGllbnQ+JiN4YTs8cmFkaWFsR3JhZGllbnQgZ3JhZGllbnRUcmFuc2Zvcm09InRyYW5zbGF0ZSgyMC40ODE2IDI0LjE3MzUpIHJvdGF0ZSgxNC45NjY5KSBzY2FsZSgxNS42NTY4IDcuMTE5NDQpIiBncmFkaWVudFVuaXRzPSJ1c2VyU3BhY2VPblVzZSIgcj0iMSIgY3k9IjAiIGN4PSIwIiBpZD0icGFpbnQzX3JhZGlhbF8yNjIyXzI5MDIiPiYjeGE7PHN0b3Agc3RvcC1jb2xvcj0iIzEzNDhGRiIvPiYjeGE7PHN0b3Agc3RvcC1jb2xvcj0iIzA2MjM4RCIgb2Zmc2V0PSIxIi8+JiN4YTs8L3JhZGlhbEdyYWRpZW50PiYjeGE7PHJhZGlhbEdyYWRpZW50IGdyYWRpZW50VHJhbnNmb3JtPSJ0cmFuc2xhdGUoMjAuNDgxNiAyNC4xNzM1KSByb3RhdGUoMTQuOTY2OSkgc2NhbGUoMTUuNjU2OCA3LjExOTQ0KSIgZ3JhZGllbnRVbml0cz0idXNlclNwYWNlT25Vc2UiIHI9IjEiIGN5PSIwIiBjeD0iMCIgaWQ9InBhaW50NF9yYWRpYWxfMjYyMl8yOTAyIj4mI3hhOzxzdG9wIHN0b3AtY29sb3I9IiMxMzQ4RkYiLz4mI3hhOzxzdG9wIHN0b3AtY29sb3I9IiMwNjIzOEQiIG9mZnNldD0iMSIvPiYjeGE7PC9yYWRpYWxHcmFkaWVudD4mI3hhOzxyYWRpYWxHcmFkaWVudCBncmFkaWVudFRyYW5zZm9ybT0idHJhbnNsYXRlKDE1LjE0MjMgMTguMTY0Nikgcm90YXRlKDMzLjUyOTQpIHNjYWxlKDE2LjI1MjYgMjguMjgwOSkiIGdyYWRpZW50VW5pdHM9InVzZXJTcGFjZU9uVXNlIiByPSIxIiBjeT0iMCIgY3g9IjAiIGlkPSJwYWludDVfcmFkaWFsXzI2MjJfMjkwMiI+JiN4YTs8c3RvcCBzdG9wLWNvbG9yPSIjMDE5NUZGIi8+JiN4YTs8c3RvcCBzdG9wLWNvbG9yPSIjMTE0N0U5IiBvZmZzZXQ9IjEiLz4mI3hhOzwvcmFkaWFsR3JhZGllbnQ+JiN4YTs8L2RlZnM+JiN4YTs8L3N2Zz4=;points=[[0,0,0,0,0],[0,0.25,0,0,0],[0,0.5,0,0,0],[0,0.75,0,0,0],[0.25,0,0,0,0],[0.5,0,0,0,0],[0.75,0,0,0,0],[1,0,0,0,0],[1,0.25,0,0,0],[1,0.5,0,0,0],[1,0.75,0,0,0]];" vertex="1" parent="H-hSeUacVVkauLeo3uML-19">
          <mxGeometry x="-131.9990909090909" y="-30" width="37.136842105263156" height="37.136842105263156" as="geometry" />
        </mxCell>
        <mxCell id="H-hSeUacVVkauLeo3uML-26" value="&lt;font color=&quot;#1d2d3e&quot; size=&quot;1&quot; face=&quot;arial&quot; style=&quot;&quot;&gt;&lt;b style=&quot;font-size: 14px;&quot;&gt;ABAP Environment&lt;br&gt;&lt;/b&gt;&lt;/font&gt;" style="text;html=1;align=center;verticalAlign=top;resizable=1;points=[[0,0.5,0,0,0],[0.21,1,0,0,0],[0.5,1,0,0,0],[0.85,1,0,0,0],[1,0.5,0,0,0]];autosize=0;strokeColor=none;fillColor=none;fontSize=12;fontColor=default;fontFamily=Helvetica;fixedWidth=1;imageWidth=24;whiteSpace=wrap;labelBackgroundColor=none;" vertex="1" parent="H-hSeUacVVkauLeo3uML-19">
          <mxGeometry x="-166.42999999999995" y="7.136842105263156" width="106" height="34.863157894736844" as="geometry" />
        </mxCell>
        <mxCell id="H-hSeUacVVkauLeo3uML-27" value="&lt;font face=&quot;Arial&quot; color=&quot;#595959&quot;&gt;RenderSignPDF&lt;/font&gt;" style="rounded=1;whiteSpace=wrap;html=1;absoluteArcSize=1;arcSize=14;strokeWidth=2;strokeColor=#0F828F;" vertex="1" parent="H-hSeUacVVkauLeo3uML-19">
          <mxGeometry x="-106.5" y="254" width="113" height="35" as="geometry" />
        </mxCell>
        <mxCell id="H-hSeUacVVkauLeo3uML-29" style="edgeStyle=orthogonalEdgeStyle;rounded=0;orthogonalLoop=1;jettySize=auto;html=1;entryX=0.943;entryY=0.475;entryDx=0;entryDy=0;entryPerimeter=0;strokeColor=#C0399F;" edge="1" parent="H-hSeUacVVkauLeo3uML-1" source="H-hSeUacVVkauLeo3uML-23" target="H-hSeUacVVkauLeo3uML-18">
          <mxGeometry relative="1" as="geometry" />
        </mxCell>
        <mxCell id="H-hSeUacVVkauLeo3uML-30" value="&lt;font color=&quot;#595959&quot; face=&quot;Arial&quot;&gt;Odata Api&lt;/font&gt;" style="edgeLabel;html=1;align=center;verticalAlign=middle;resizable=0;points=[];" vertex="1" connectable="0" parent="H-hSeUacVVkauLeo3uML-29">
          <mxGeometry x="-0.2595" y="-1" relative="1" as="geometry">
            <mxPoint as="offset" />
          </mxGeometry>
        </mxCell>
        <mxCell id="H-hSeUacVVkauLeo3uML-31" value="" style="rounded=1;whiteSpace=wrap;html=1;strokeColor=#074D92;fillColor=none;arcSize=20;" vertex="1" parent="H-hSeUacVVkauLeo3uML-1">
          <mxGeometry x="841" y="319" width="134" height="238" as="geometry" />
        </mxCell>
        <mxCell id="H-hSeUacVVkauLeo3uML-35" value="&lt;span style=&quot;color: rgba(0, 0, 0, 0); font-family: monospace; font-size: 0px; text-align: start; text-wrap: nowrap;&quot;&gt;%3CmxGraphModel%3E%3Croot%3E%3CmxCell%20id%3D%220%22%2F%3E%3CmxCell%20id%3D%221%22%20parent%3D%220%22%2F%3E%3CmxCell%20id%3D%222%22%20value%3D%22Action%20get%20additional%20data%22%20style%3D%22rounded%3D1%3BwhiteSpace%3Dwrap%3Bhtml%3D1%3BabsoluteArcSize%3D1%3BarcSize%3D14%3BstrokeWidth%3D2%3BstrokeColor%3D%23053B70%3B%22%20vertex%3D%221%22%20parent%3D%221%22%3E%3CmxGeometry%20x%3D%22840%22%20y%3D%22445%22%20width%3D%2280%22%20height%3D%2250%22%20as%3D%22geometry%22%2F%3E%3C%2FmxCell%3E%3C%2Froot%3E%3C%2FmxGraphModel%3E&lt;/span&gt;" style="rounded=1;whiteSpace=wrap;html=1;strokeColor=#074D92;fillColor=none;arcSize=18;" vertex="1" parent="H-hSeUacVVkauLeo3uML-1">
          <mxGeometry x="472.5" y="231" width="322.5" height="515" as="geometry" />
        </mxCell>
        <mxCell id="H-hSeUacVVkauLeo3uML-36" style="edgeStyle=orthogonalEdgeStyle;rounded=0;orthogonalLoop=1;jettySize=auto;html=1;fontColor=#595959;" edge="1" parent="H-hSeUacVVkauLeo3uML-1" source="H-hSeUacVVkauLeo3uML-27" target="H-hSeUacVVkauLeo3uML-31">
          <mxGeometry relative="1" as="geometry" />
        </mxCell>
        <mxCell id="H-hSeUacVVkauLeo3uML-37" value="" style="rounded=1;whiteSpace=wrap;html=1;fontColor=#074D92;" vertex="1" parent="H-hSeUacVVkauLeo3uML-1">
          <mxGeometry x="533" y="625" width="180" height="74" as="geometry" />
        </mxCell>
        <mxCell id="H-hSeUacVVkauLeo3uML-38" style="edgeStyle=orthogonalEdgeStyle;rounded=0;orthogonalLoop=1;jettySize=auto;html=1;entryX=0.457;entryY=0.995;entryDx=0;entryDy=0;entryPerimeter=0;fontColor=#595959;" edge="1" parent="H-hSeUacVVkauLeo3uML-1" source="H-hSeUacVVkauLeo3uML-37" target="H-hSeUacVVkauLeo3uML-20">
          <mxGeometry relative="1" as="geometry">
            <Array as="points">
              <mxPoint x="623" y="603" />
            </Array>
          </mxGeometry>
        </mxCell>
        <mxCell id="H-hSeUacVVkauLeo3uML-39" value="" style="shape=image;verticalLabelPosition=bottom;labelBackgroundColor=default;verticalAlign=top;aspect=fixed;imageAspect=0;image=data:image/png,iVBORw0KGgoAAAANSUhEUgAAADcAAABHCAYAAACj+d+HAAAAAXNSR0IArs4c6QAAAIRlWElmTU0AKgAAAAgABQESAAMAAAABAAEAAAEaAAUAAAABAAAASgEbAAUAAAABAAAAUgEoAAMAAAABAAIAAIdpAAQAAAABAAAAWgAAAAAAAABIAAAAAQAAAEgAAAABAAOgAQADAAAAAQABAACgAgAEAAAAAQAAADegAwAEAAAAAQAAAEcAAAAAQ21BmwAAAAlwSFlzAAALEwAACxMBAJqcGAAADJJJREFUaAXtW3twVNUZP+fcu68s4ZFsUFFBR6V1AIvySEME8TG25IHySBCFDqMWH1WpreWl4OUViMNoLb4GnbHoHxUDQw1Z0qeGUQKl0NopLy2KDirGbMIz2c3uvff09+3mbjZL2OxulkxnmoObc8853/m+833ne51zr4z1YilfUXxrmVbWr7dIit4iRHSMEFMUJXCsTCv5BZr8YtO+6ATiGZi5vOR2m13UmIapSsZWS8Hfqlq2/Vg8XCbavc4cLXpaxbRcu66vtznUeUbIOGvq8s+mXX+4amltYyaYsnBcNObmPnWn29em6LUbatssYvH1TK2oRFWUl4SqDDNCOhSVPxNUWl/btvSvTfGw6bQvis0VaUWXBvrZ30vEGC12i7ajJmAoo/Wg4RVCMGnK1Q7TfaD86aJJ6TATPyejO1f2ZJmLD/Tfryi8wtTZrZu17f+IJ3ihdrlW+rZQ2BxDN5nqUJke1B+q0rwbLwSfTL+SDFAyMDO0orGqW9apNuU+PWSUvKvV7EpmngVTODy7xp/tvklwPpwYFIooHjlx+PGDOz/92IJJte7xzs2fP8Z26srLF6uKWGkaxtdtQVm8bVXNv1JdCMGTnQayHZ9zJgdDRZlqV1moVS/cssZbnw6+HjE3deHUbJfb/Igr4gbTNP2BgLi6uqK6obuFzFhWlJ/rdh/ZuLjqdDzsjJVF+SpT9iBUhIcUVRw3zvlHVVX+5TzY+Lnx7bQdyrQl03KdbrMeofgGaZot0jTGJsMYLUBRxAtNgcBleOQztdKS2EW1NsqPOWcHrT4p2ZWKwzHTaqdSp8UcOQ67M/QRk2wk3DgyD6OiSqs9lAzhcq2oWqi8YKu2/cisVSW/5dJ8JHYePGxQ181PODikQuppCLY2FibZ57SYY4MCCxCTvg/S5NVObVlVW9EdQaRc48tXlHwobGopHEbjrBWlO+1O+0+QpTTHzZXQhibevjKJrXO47HnTlxcXx8F120yZuSnalP6YtJZsAh6NAu+mRFSmLp16SblW4lVVUY9duNkIGiSTPNjoJBNeEYx4y5YXPxDFAdYQ8S6VEZMLdyMOMpWx2VGYJB9SZs5t8CdUW2QapM5MyesuRGv26tK17n78W9WuFCE8nBd2ggFk0pxv4KqYbuGYu35ullDUsbRjViFBSs5+UPZu2Xk4LJiu6pSZ4wq7I0TSpwJ7YEL/MtLo/LdcK94puXgsqId+CJt8u/NoR4sLPkD69V9ZPW0tza9LJsnZRAsxCi3pzw4xV7QziQfsdvJlnjbZ6efiSpOYQoE0mWhTbPEYypeXzrC5lElmCNmGFDuwOEc8DLUVm8LMkO7VHU5f2bKSAmHnTwnBp5MaxhehcNU0z9jj+xO1U2LuFBvodCqmg5kR4sgmmGGT40FgbywRKeSwYEvIK7n8THAxC54vJ1bNLFjsKAxM3O0Qxt1MFYxsEJ7SGu5UwwaF3pYVcaGdRi7cSIk53galpH/tJbyDki1A8yWrj+pB35zYsHHj/ufb+xYgb6zFPv84FsZ6Drv6dmFZfV3V4EpXB5zF0SH5kpLNZTngARijX7jQwuxO9doZy4s6eTIwFoUhQIPJ92BbkUlp/tUNM3Dua1sglekpMXcdyz8HVWq2AiwRIo+nqsr6siVT8i5EGB7x2q7U8kLw8f3hkMPkZ90doc6bF9+RqK1pmgl7el9pDwUWLBY+hLnUw7NWTbkGMazTFs16Zso1MM0n0J92wUkDZm7sSBVBp4UkM5kYUFXHUdqx2EJqB2QBMLpdmhzHHSPIuXITIvIc8OUkFU630M75z/H+1c9Vn00FR8rMEXKkUXWobulqwaSyAp6PUkMDoaAn6ki0SGjIWDa986x3HrVTKSnZnIVY6vxZxKPzgxEAiBly8RSresoYqTLiWxtQrrdop1KnxdwIZfuHhin3Rgw9FXKpwSp2BUIyqzdr3gOpzYxAp8WcpjGz1S8pSz/Z2X2ks4Su55B6w4kc8omWe7uG6L43LeYIrXed9yRSiiJFVfzdk0kRAvaKM1+z4WeldVpdSoE7llLazBGSzVrtHlM3pgqbQB4Vizb9Z3IgihA+QxcTt67zfp4+JjpNZaDM0KbeYLMxr9TlFTinpY2RbBjO45NAG78l2SuLRMSieWIioO7GDtd90nD9pKs2QeZS2MXN7Res3U2LjuNanTyrbnL+OMt2PrztmW2nooM9eMjIzsXSL1tUOhQhe61qF5NxyByMnVCJiHVMovhHqod+hnBCuWID4LbI083Lql7YnVH7zThzFqNl2o9ycGIbit9oMHQTbsjmgpmBSFSO4GzxjjSMgzjtHRDM+VWVVnXOmtdX90mgTwJ9EuiTQJ8EMiiBpOLcqLUDBjm5MuTv+5uPsCrc98QWjan5LCergTUHv9BY9AInX8vpT2CqS8hdfp+faSyaANOYON0c2v0CiwTtdhz6N83+/UOYJHzh540dl1GxJJN9Tshc/hr3JYrqehfHj0mEEFlFAw4iL+5a1BR961JQ6VmG+8uVSDg+rl/YeCPBjdFYljMrr4Weo0XKEyZn84VkO3FMPwNcf6xf1Bi+7puwLncO7i/fBoFHDMmbkWJuxviC+n2NLxeOy/sWh1anhQfJwF31S5ret9qJ6oSnAqG4HiXGkPe9AaSPIs1GJsFXjlk3CJlHuCD54PfTE6Q0uqAyly5oowULPIpEegmux1/F7bSHS/5GdDCJh3FjcvAmiXkw/xDjsjr8M83vkpgaBkl4KRu58wEc537chtQJw9wnBRunmEpYkvmVOXeAu6vA/F4IYTxuTuYDOnr7zLn8on5R0zqiNKHSMxKwE0NtIY/NkdytuJ2L0TQXAtxrSPODPf6m6lj1prFEJeHO6br/ZSjjKezK4woXh5jgUB2m7F3q+5SQKkw8QLWUxoOQ7pcQwj2WrVE/lnVNwTrPisLn8jahUQghnLbZbb7wUBJ/oOphNQd3j4H+1kKX57MRGkv627GEzP3t6ZaGQGvbdaaUT4LQn7Ceq2Ebv8GC7x1fkZ2L9jQw24hbnGGoD6LtVpz8vph1X41keTkYpxvp/xjMLPva72u/E5QdWoOTA81BUg0yHQVHwxpS65AuvwcJLoTwhg5w5M7sgEj81EGgC7jCSs9mdI/Ar2DXwsZfw6buhopsw/cwkxh3DIYqkn7lQR23k9FR4Vw8hIp2CiuV73933Fd0dANro7ZVhlSyVsBfjjbNomvcwTQGNW6V9OqovcCxnIPdHiZNgQl8iA8BcE7io6zx7uqEzJmM7YYnLIc61cBmyEPdRQgh0X/iTPYYpEnu/U7YY9gz4o3O81hood2VO5LgsEwznrFwP5f/xmh+YWXeFinNIxDITyEIepm6D+Mdi+d8HgT4M9Begf6x4bmM1VCdTEnIXEuj7/XswR7yWKUgMgk64yfPCfXZh4kj0d5Rv8j3gUUILv01qG0hdjdsi3iB10nNLDgZMh7kqvIOtmo6GANb8iwE8cs9i5oOFzyXFxYMvekP+gOrbVlZ12HsaWwouDdfrA807bTwZKrm4zT3pUzD5W8Gy40V/fLGrPF0eovaFXqEngFXaR2xriuYvr4+Cfy/SoCCeCqB9mLKKaMOApnIRDVLOT3A5WmaoPULx66LufjucGeUORB7kAiGg7vTMY+euyjw7L1TMkaI3LVDqCcQjo6BvWHILE7gSDMcbEhKANqzGcpaRiHPevOs1Fe4ue1mJOevAGYXxm9HvPsCAFr9Yp83E+xnbOdwmJ0NSblws0yL3YoTwLVI125rX+QQ1IWI6N8irP8BgX5Bf8U2D8TdYOoKCGMymHod8y9HJH0L8VT9n2IOuVZEJSVroV2jxbUfgSLrlCzw3fHG+075fXMx3orsJfq9Fzb31V2LGpdKzl9BdpNT4Mq9JRPMZURCE9YMxLmLj6EF4avZN62FIWWaFutY9FzGjx5k+oSxElcVPJZ22Dy4lG0wWPAac2KwkKVRxxJIY3pkCrfZwruGxPfnyAl3Uy9yxjnYhcel5Vg4cw5xeTYMGcvOQBWzkSj+HlBhBODnfqiwDw06F545E2j+IDzQwz8R7D1BAvsozPI0kqdo+Mp3mXUKoKsIB1eOgcBR2Br+Y7A7jv8ZQg4Fc1uDra1P2JyuyThd/A6DB9A/AvZ4HGfHZbsXN73VkyVZc3vOnIUpQQ1veYSGcYK4vkDrP2i3dib8deyEdZ57wsyZcnYbM2r3B062sJhbsgQokxrKiFomRSkCJC3G4ufsX3wy5a/P43HEt3uHuWCoy++TYWveoGmMFAF2PH5hfe0+CfRJoE8CfRLoLQn8Fzmktuxelj3/AAAAAElFTkSuQmCC;" vertex="1" parent="H-hSeUacVVkauLeo3uML-1">
          <mxGeometry x="597.4968377685547" y="628.0038854980469" width="55" height="71" as="geometry" />
        </mxCell>
        <mxCell id="H-hSeUacVVkauLeo3uML-40" style="edgeStyle=orthogonalEdgeStyle;rounded=0;orthogonalLoop=1;jettySize=auto;html=1;fontColor=#595959;" edge="1" parent="H-hSeUacVVkauLeo3uML-1" source="H-hSeUacVVkauLeo3uML-41" target="H-hSeUacVVkauLeo3uML-37">
          <mxGeometry relative="1" as="geometry" />
        </mxCell>
        <mxCell id="H-hSeUacVVkauLeo3uML-41" value="" style="shape=image;verticalLabelPosition=bottom;labelBackgroundColor=default;verticalAlign=top;aspect=fixed;imageAspect=0;image=data:image/png,iVBORw0KGgoAAAANSUhEUgAAABcAAAAXCAYAAADgKtSgAAAAAXNSR0IArs4c6QAAAIRlWElmTU0AKgAAAAgABQESAAMAAAABAAEAAAEaAAUAAAABAAAASgEbAAUAAAABAAAAUgEoAAMAAAABAAIAAIdpAAQAAAABAAAAWgAAAAAAAABIAAAAAQAAAEgAAAABAAOgAQADAAAAAQABAACgAgAEAAAAAQAAABegAwAEAAAAAQAAABcAAAAAVd28qgAAAAlwSFlzAAALEwAACxMBAJqcGAAAAj9JREFUSA3tlT2LE1EUhmcmMyMsCe5YbNRCtpHYyBb+BYsVBJtNE7CwsbK0sgoWomLpPzBgESwEwUJQEGRhKy1SpFtc3V1TCUkMbCYZn3Odc5ncxM1qJ3jhcL7e8865n+N788N3QlnuL4srzpbbgnq9XiJ6IQzDjVKpFE8mEwtaZoD3wB9lWfYRvddut01xqIXlcvn8eDx+BOAqsR4f0dRSTY0XBMEawDfIXWRPiiwDxCv45wC+8H3/KVpmctIxAX+HD1yiKeExw5LnvkznoNVqfcr9E6tGo3EA+GKxICg6YtO13Qc3d5y/qG6O/DiCP839J1+4Yv/usrjn3OMyrHBmEy6VyXEpzJuRpunMEZW4xqIoSqXOPcWWnNs14l3YB9BgAbfiODbrSJEhxZ97mBSTL3gM9i2xH7oBlnw0Gn2lm/t85D3JSAEUGNPtSvOqp9PpETN4NxgM9jVmyZMkOTUcDlch+wyR7RJbl8PGtLioBcfMz8Dzhbjp3hQ2m82w2+1eo+sHkK9rt8XiZbb0gOwyg3u1Wu01nKl5+arV6mWIH0JwBWJZ7BmhKCYfixZx8wV/jfx6r9fb6XQ633x+EqdZq2eQXgekS4D5awCWjuSVfAlmjC37cQN7A8lRMyoD84rTdjOE+DGpTWSOWEogOEQ9R3awp+iA4iF2Ffss4g7h2RTeEKAUR2gXZHziCcZt9C0FQBzxa0vQGnK1zO4w7Pf7TyqVygc2YtVF/K3P/nyHd3tRu25M29O4+vrt38W9n5M41XUmM6SuAAAAAElFTkSuQmCC;" vertex="1" parent="H-hSeUacVVkauLeo3uML-1">
          <mxGeometry x="1071" y="634" width="56" height="56" as="geometry" />
        </mxCell>
        <mxCell id="H-hSeUacVVkauLeo3uML-44" value="&lt;font face=&quot;Arial&quot; color=&quot;#595959&quot;&gt;Warehouse/Logistic Clerk&lt;/font&gt;" style="text;html=1;align=center;verticalAlign=middle;whiteSpace=wrap;rounded=0;" vertex="1" parent="H-hSeUacVVkauLeo3uML-1">
          <mxGeometry x="1067" y="698" width="69" height="32" as="geometry" />
        </mxCell>
        <mxCell id="E8FsvfMaI8d220EhHX9X-2" value="" style="shape=image;verticalLabelPosition=bottom;verticalAlign=top;imageAspect=0;image=https://digitalmarketplace-sapcpprd.s3.eu-central-1.amazonaws.com/3TGg9-0g-5qIIYW44NcAnUr3xC8n9a1p-xgqiK2zaWRBBg07hOTGW5H1up8FbXof.svg;" vertex="1" parent="H-hSeUacVVkauLeo3uML-1">
          <mxGeometry x="887" y="378" width="34" height="39" as="geometry" />
        </mxCell>
        <mxCell id="E8FsvfMaI8d220EhHX9X-3" value="&lt;font face=&quot;Arial&quot;&gt;&lt;b&gt;SAP Forms Service by Adobe&lt;/b&gt;&lt;/font&gt;" style="text;html=1;align=center;verticalAlign=middle;whiteSpace=wrap;rounded=0;" vertex="1" parent="H-hSeUacVVkauLeo3uML-1">
          <mxGeometry x="874" y="419" width="71" height="43" as="geometry" />
        </mxCell>
      </root>
    </mxGraphModel>
  </diagram>
</mxfile>
